<svg width="40" height="40" viewBox="0 0 40 40" fill="none" xmlns="http://www.w3.org/2000/svg">
<g clip-path="url(#clip0_502_819)">
<path opacity="0.2" d="M19.9998 23.75C14.7338 23.7583 9.55931 22.3739 5.00098 19.7373V32.5C5.00098 32.6642 5.03331 32.8267 5.09612 32.9784C5.15894 33.1301 5.25102 33.2679 5.36709 33.3839C5.48316 33.5 5.62096 33.5921 5.77262 33.6549C5.92428 33.7177 6.08682 33.75 6.25098 33.75H33.751C33.9151 33.75 34.0777 33.7177 34.2293 33.6549C34.381 33.5921 34.5188 33.5 34.6349 33.3839C34.7509 33.2679 34.843 33.1301 34.9058 32.9784C34.9686 32.8267 35.001 32.6642 35.001 32.5V19.7358C30.4421 22.3734 25.2667 23.7583 19.9998 23.75Z" fill="#0A65CC"/>
<path d="M33.751 11.25H6.25098C5.56062 11.25 5.00098 11.8096 5.00098 12.5V32.5C5.00098 33.1904 5.56062 33.75 6.25098 33.75H33.751C34.4413 33.75 35.001 33.1904 35.001 32.5V12.5C35.001 11.8096 34.4413 11.25 33.751 11.25Z" stroke="#0A65CC" stroke-width="2" stroke-linecap="round" stroke-linejoin="round"/>
<path d="M26.25 11.25V8.75C26.25 8.08696 25.9866 7.45107 25.5178 6.98223C25.0489 6.51339 24.413 6.25 23.75 6.25H16.25C15.587 6.25 14.9511 6.51339 14.4822 6.98223C14.0134 7.45107 13.75 8.08696 13.75 8.75V11.25" stroke="#0A65CC" stroke-width="2" stroke-linecap="round" stroke-linejoin="round"/>
<path d="M35.0012 19.7358C30.4423 22.3734 25.2669 23.7583 20 23.75C14.7339 23.7583 9.55935 22.3739 5.00098 19.7372" stroke="#0A65CC" stroke-width="2" stroke-linecap="round" stroke-linejoin="round"/>
<path d="M18.125 18.75H21.875" stroke="#0A65CC" stroke-width="2" stroke-linecap="round" stroke-linejoin="round"/>
</g>
<defs>
<clipPath id="clip0_502_819">
<rect width="40" height="40" fill="white"/>
</clipPath>
</defs>
</svg>