<svg width="41" height="40" viewBox="0 0 41 40" fill="none" xmlns="http://www.w3.org/2000/svg">
<path d="M30.867 23.3333H27.467V27.2222H30.867M30.867 15.5556H27.467V19.4444H30.867M34.267 31.1111H20.667V27.2222H24.067V23.3333H20.667V19.4444H24.067V15.5556H20.667V11.6667H34.267M17.267 7.77778H13.867V3.88889H17.267M17.267 15.5556H13.867V11.6667H17.267M17.267 23.3333H13.867V19.4444H17.267M17.267 31.1111H13.867V27.2222H17.267M10.467 7.77778H7.06699V3.88889H10.467M10.467 15.5556H7.06699V11.6667H10.467M10.467 23.3333H7.06699V19.4444H10.467M10.467 31.1111H7.06699V27.2222H10.467M20.667 7.77778V0H3.66699V35H37.667V7.77778H20.667Z" fill="#0A65CC"/>
</svg>