<svg width="24" height="24" viewBox="0 0 24 24" fill="none" xmlns="http://www.w3.org/2000/svg">
<g id="weui:copy-outlined">
<path id="Vector" fill-rule="evenodd" clip-rule="evenodd" d="M12.4 3.2H6.2V20.8H18.8V9.6H14C13.5757 9.6 13.1687 9.43143 12.8686 9.13137C12.5686 8.83131 12.4 8.42435 12.4 8V3.2ZM13.6 3.299V8C13.6 8.22 13.78 8.4 14 8.4H18.703L13.6 3.299ZM5.996 2H13.998L20 8V21.001C20.0004 21.132 19.9749 21.2619 19.925 21.3831C19.8752 21.5043 19.8019 21.6144 19.7093 21.7072C19.6168 21.8 19.5069 21.8737 19.3858 21.9239C19.2648 21.9741 19.135 22 19.004 22H5.996C5.73165 21.9989 5.47847 21.8933 5.29183 21.7061C5.10519 21.5188 5.00026 21.2654 5 21.001V3C5 2.446 5.446 2 5.996 2Z" fill="black"/>
</g>
</svg>