<svg width="24" height="24" viewBox="0 0 24 24" fill="none" xmlns="http://www.w3.org/2000/svg">
<g id="ion:book">
<g id="Vector">
<mask id="path-1-inside-1_719_1715" fill="white">
<path d="M9.48 3.46868C7.78641 2.66008 5.41922 2.26399 2.25 2.24993C1.95111 2.24587 1.65809 2.33302 1.41 2.49977C1.20637 2.63741 1.03968 2.82298 0.924597 3.04015C0.809512 3.25733 0.749555 3.49946 0.750002 3.74524V17.1562C0.750002 18.0627 1.395 18.7466 2.25 18.7466C5.58141 18.7466 8.92313 19.0579 10.9247 20.9498C10.9521 20.9758 10.9865 20.9931 11.0237 20.9998C11.0608 21.0064 11.0991 21.0019 11.1338 20.9869C11.1685 20.9719 11.1979 20.9471 11.2186 20.9155C11.2393 20.8839 11.2502 20.8469 11.25 20.8091V5.00711C11.2501 4.90051 11.2272 4.79513 11.1831 4.69809C11.1389 4.60105 11.0745 4.51462 10.9941 4.44461C10.5356 4.05266 10.0263 3.72439 9.48 3.46868ZM22.59 2.49836C22.3418 2.33203 22.0488 2.24536 21.75 2.24993C18.5808 2.26399 16.2136 2.65821 14.52 3.46868C13.9737 3.72392 13.4643 4.05155 13.0055 4.44274C12.9252 4.51284 12.8609 4.59931 12.8168 4.69633C12.7728 4.79335 12.75 4.89868 12.75 5.00524V20.8082C12.75 20.8445 12.7607 20.88 12.7807 20.9102C12.8008 20.9404 12.8293 20.9641 12.8628 20.9781C12.8962 20.9922 12.9331 20.9961 12.9687 20.9893C13.0044 20.9825 13.0372 20.9653 13.0631 20.9399C14.2664 19.7446 16.3781 18.7452 21.7519 18.7457C22.1497 18.7457 22.5312 18.5877 22.8125 18.3064C23.0938 18.0251 23.2519 17.6435 23.2519 17.2457V3.74571C23.2524 3.49944 23.1923 3.25682 23.0769 3.03928C22.9615 2.82174 22.7942 2.63597 22.59 2.49836Z"/>
</mask>
<path d="M9.48 3.46868L9.04914 4.37113L9.05607 4.37437L9.48 3.46868ZM2.25 2.24993L2.23642 3.24988L2.24557 3.24992L2.25 2.24993ZM1.41 2.49977L0.852157 1.66982L0.850004 1.67128L1.41 2.49977ZM0.750002 3.74524L1.75 3.74524L1.75 3.74342L0.750002 3.74524ZM10.9247 20.9498L11.6133 20.2246L11.6116 20.223L10.9247 20.9498ZM11.25 20.8091L10.25 20.8091L10.25 20.8139L11.25 20.8091ZM11.25 5.00711L10.25 5.00663V5.00711H11.25ZM10.9941 4.44461L11.6507 3.69035L11.6439 3.68452L10.9941 4.44461ZM22.59 2.49836L23.1488 1.66902L23.1467 1.66765L22.59 2.49836ZM21.75 2.24993L21.7544 3.24998L21.7653 3.24981L21.75 2.24993ZM14.52 3.46868L14.9433 4.3747L14.9517 4.37071L14.52 3.46868ZM13.0055 4.44274L12.3566 3.68171L12.3476 3.68962L13.0055 4.44274ZM12.75 5.00524H13.75V5.00507L12.75 5.00524ZM12.75 20.8082L13.75 20.8088V20.8082H12.75ZM13.0631 20.9399L13.7629 21.6543L13.7679 21.6494L13.0631 20.9399ZM21.7519 18.7457L21.7518 19.7457H21.7519V18.7457ZM23.2519 3.74571L22.2519 3.74348V3.74571H23.2519ZM9.91086 2.56626C8.02162 1.66425 5.48139 1.26426 2.25444 1.24994L2.24557 3.24992C5.35705 3.26372 7.5512 3.65591 9.04915 4.3711L9.91086 2.56626ZM2.26359 1.25002C1.76137 1.2432 1.26901 1.38964 0.852159 1.66983L1.96785 3.32972C2.04717 3.2764 2.14085 3.24854 2.23642 3.24984L2.26359 1.25002ZM0.850004 1.67128C0.51062 1.90068 0.232805 2.20995 0.0409955 2.57191L1.8082 3.50839C1.84656 3.436 1.90212 3.37414 1.97 3.32826L0.850004 1.67128ZM0.0409955 2.57191C-0.150814 2.93387 -0.250741 3.33742 -0.249996 3.74706L1.75 3.74342C1.74985 3.66149 1.76984 3.58078 1.8082 3.50839L0.0409955 2.57191ZM-0.249997 3.74524V17.1562H1.75V3.74524H-0.249997ZM-0.249997 17.1562C-0.249997 18.559 0.788349 19.7466 2.25 19.7466V17.7466C2.00166 17.7466 1.75 17.5664 1.75 17.1562H-0.249997ZM2.25 19.7466C3.89468 19.7466 5.48112 19.8246 6.88123 20.1176C8.28186 20.4106 9.42011 20.9037 10.2378 21.6765L11.6116 20.223C10.4277 19.104 8.89432 18.4955 7.29085 18.16C5.68685 17.8243 3.93673 17.7466 2.25 17.7466V19.7466ZM10.2361 21.6749C10.4056 21.8359 10.6187 21.9435 10.8488 21.9843L11.1985 20.0152C11.3543 20.0428 11.4985 20.1157 11.6133 20.2246L10.2361 21.6749ZM10.8488 21.9843C11.079 22.0252 11.316 21.9976 11.5306 21.9048L10.737 20.069C10.8822 20.0062 11.0427 19.9875 11.1985 20.0152L10.8488 21.9843ZM11.5306 21.9048C11.7451 21.8121 11.9277 21.6583 12.0556 21.4627L10.3816 20.3683C10.4682 20.2358 10.5918 20.1318 10.737 20.069L11.5306 21.9048ZM12.0556 21.4627C12.1835 21.267 12.2511 21.0381 12.25 20.8044L10.25 20.8139C10.2493 20.6557 10.295 20.5007 10.3816 20.3683L12.0556 21.4627ZM12.25 20.8091V5.00711H10.25V20.8091H12.25ZM12.25 5.0076C12.2501 4.75795 12.1967 4.51118 12.0933 4.28394L10.2729 5.11223C10.2578 5.07907 10.25 5.04306 10.25 5.00663L12.25 5.0076ZM12.0933 4.28394C11.9899 4.05671 11.839 3.8543 11.6507 3.69038L10.3375 5.19885C10.31 5.17493 10.288 5.1454 10.2729 5.11223L12.0933 4.28394ZM11.6439 3.68452C11.117 3.23409 10.5317 2.85684 9.90394 2.56298L9.05607 4.37437C9.52087 4.59193 9.95418 4.87123 10.3443 5.20471L11.6439 3.68452ZM23.1467 1.66765C22.7295 1.38805 22.2369 1.24237 21.7347 1.25004L21.7653 3.24981C21.8606 3.24835 21.9541 3.27601 22.0333 3.32908L23.1467 1.66765ZM21.7456 1.24994C18.5194 1.26425 15.9784 1.66217 14.0883 2.56664L14.9517 4.37071C16.4488 3.65425 18.6422 3.26373 21.7544 3.24992L21.7456 1.24994ZM14.0967 2.56269C13.4691 2.85593 12.8838 3.23234 12.3567 3.68177L13.6543 5.20371C14.0448 4.87076 14.4784 4.5919 14.9433 4.37466L14.0967 2.56269ZM12.3476 3.68962C12.1599 3.8536 12.0094 4.05586 11.9063 4.28281L13.7273 5.10985C13.7124 5.14276 13.6906 5.17209 13.6634 5.19586L12.3476 3.68962ZM11.9063 4.28281C11.8033 4.50977 11.75 4.75615 11.75 5.00541L13.75 5.00507C13.75 5.04121 13.7423 5.07694 13.7273 5.10985L11.9063 4.28281ZM11.75 5.00524V20.8082H13.75V5.00524H11.75ZM11.75 20.8076C11.7499 21.0408 11.8186 21.2689 11.9476 21.4632L13.6139 20.3572C13.7028 20.491 13.7501 20.6482 13.75 20.8088L11.75 20.8076ZM11.9476 21.4632C12.0766 21.6576 12.2601 21.8095 12.475 21.8999L13.2505 20.0564C13.3986 20.1187 13.525 20.2233 13.6139 20.3572L11.9476 21.4632ZM12.475 21.8999C12.69 21.9903 12.9269 22.0153 13.156 21.9716L12.7814 20.007C12.9393 19.9769 13.1025 19.9941 13.2505 20.0564L12.475 21.8999ZM13.156 21.9716C13.3852 21.9279 13.5963 21.8175 13.7629 21.6543L12.3634 20.2255C12.4782 20.1131 12.6236 20.0371 12.7814 20.007L13.156 21.9716ZM13.7679 21.6494C14.6914 20.732 16.4744 19.7452 21.7518 19.7457L21.752 17.7457C16.2818 17.7452 13.8414 18.7572 12.3584 20.2305L13.7679 21.6494ZM21.7519 19.7457C22.4149 19.7457 23.0508 19.4823 23.5196 19.0135L22.1054 17.5993C22.0117 17.693 21.8845 17.7457 21.7519 17.7457V19.7457ZM23.5196 19.0135C23.9885 18.5446 24.2519 17.9088 24.2519 17.2457H22.2519C22.2519 17.3783 22.1992 17.5055 22.1054 17.5993L23.5196 19.0135ZM24.2519 17.2457V3.74571H22.2519V17.2457H24.2519ZM24.2519 3.74793C24.2528 3.33748 24.1526 2.93312 23.9602 2.57056L22.1936 3.50801C22.232 3.58052 22.2521 3.6614 22.2519 3.74348L24.2519 3.74793ZM23.9602 2.57056C23.7679 2.20799 23.4892 1.89837 23.1488 1.66903L22.0313 3.3277C22.0993 3.37357 22.1551 3.43549 22.1936 3.50801L23.9602 2.57056Z" fill="black" mask="url(#path-1-inside-1_719_1715)"/>
</g>
</g>
</svg>