<svg width="41" height="40" viewBox="0 0 41 40" fill="none" xmlns="http://www.w3.org/2000/svg">
<g clip-path="url(#clip0_502_847)">
<path opacity="0.2" d="M14.083 25C18.5703 25 22.208 21.3623 22.208 16.875C22.208 12.3877 18.5703 8.75 14.083 8.75C9.59569 8.75 5.95801 12.3877 5.95801 16.875C5.95801 21.3623 9.59569 25 14.083 25Z" fill="#0A65CC"/>
<path d="M14.083 25C18.5703 25 22.208 21.3623 22.208 16.875C22.208 12.3877 18.5703 8.75 14.083 8.75C9.59569 8.75 5.95801 12.3877 5.95801 16.875C5.95801 21.3623 9.59569 25 14.083 25Z" stroke="#0A65CC" stroke-width="2" stroke-miterlimit="10"/>
<path d="M24.6162 9.05256C25.7337 8.7377 26.9058 8.66597 28.0534 8.84221C29.201 9.01845 30.2974 9.43856 31.269 10.0743C32.2406 10.7099 33.0646 11.5465 33.6856 12.5274C34.3067 13.5084 34.7103 14.6111 34.8693 15.7612C35.0283 16.9113 34.939 18.0821 34.6074 19.1948C34.2758 20.3075 33.7096 21.3362 32.9469 22.2116C32.1843 23.0871 31.2429 23.7889 30.1861 24.2699C29.1294 24.7508 27.9819 24.9998 26.8208 24.9999" stroke="#0A65CC" stroke-width="2" stroke-linecap="round" stroke-linejoin="round"/>
<path d="M2.83203 30.8432C4.10099 29.0382 5.78561 27.565 7.74367 26.548C9.70173 25.531 11.8757 25.0001 14.0822 25C16.2886 24.9999 18.4626 25.5307 20.4208 26.5476C22.3789 27.5644 24.0636 29.0375 25.3327 30.8424" stroke="#0A65CC" stroke-width="2" stroke-linecap="round" stroke-linejoin="round"/>
<path d="M26.8213 25C29.0279 24.9984 31.2024 25.5285 33.1607 26.5455C35.119 27.5625 36.8034 29.0364 38.0713 30.8424" stroke="#0A65CC" stroke-width="2" stroke-linecap="round" stroke-linejoin="round"/>
</g>
<defs>
<clipPath id="clip0_502_847">
<rect width="40" height="40" fill="white" transform="translate(0.333008)"/>
</clipPath>
</defs>
</svg>