<svg width="54" height="54" viewBox="0 0 54 54" fill="none" xmlns="http://www.w3.org/2000/svg">
<rect width="54" height="54" rx="16" fill="#C0F2C6"/>
<path d="M36.75 27.75V36H17.25V27.75M16.5 21H37.5V27C37.5 27 33 30 27 30C21 30 16.5 27 16.5 27V21ZM27 31.5V28.5V31.5ZM30 21C30 21 30 18 27 18C24 18 24 21 24 21" fill="#58D067"/>
<path d="M36.75 27.75V36H17.25V27.75M27 31.5V28.5M30 21C30 21 30 18 27 18C24 18 24 21 24 21M16.5 21H37.5V27C37.5 27 33 30 27 30C21 30 16.5 27 16.5 27V21Z" stroke="#31B642" stroke-linecap="round" stroke-linejoin="round"/>
</svg>