<svg width="54" height="54" viewBox="0 0 54 54" fill="none" xmlns="http://www.w3.org/2000/svg">
<rect width="54" height="54" rx="16" fill="#C8D8EF"/>
<path d="M21 37C20.45 37 19.9793 36.8043 19.588 36.413C19.1967 36.0217 19.0007 35.5507 19 35V19C19 18.45 19.196 17.9793 19.588 17.588C19.98 17.1967 20.4507 17.0007 21 17H30L35 22V35C35 35.55 34.8043 36.021 34.413 36.413C34.0217 36.805 33.5507 37.0007 33 37H21ZM27 34C28.1167 34 29.0627 33.6083 29.838 32.825C30.6133 32.0417 31.0007 31.1 31 30V26H29V30C29 30.55 28.8083 31.021 28.425 31.413C28.0417 31.805 27.5667 32.0007 27 32C26.45 32 25.9793 31.8043 25.588 31.413C25.1967 31.0217 25.0007 30.5507 25 30V24.5C25 24.35 25.05 24.229 25.15 24.137C25.25 24.045 25.3667 23.9993 25.5 24C25.65 24 25.771 24.046 25.863 24.138C25.955 24.23 26.0007 24.3507 26 24.5V30H28V24.5C28 23.8 27.7583 23.2083 27.275 22.725C26.7917 22.2417 26.2 22 25.5 22C24.8 22 24.2083 22.2417 23.725 22.725C23.2417 23.2083 23 23.8 23 24.5V30C23 31.1 23.3917 32.0417 24.175 32.825C24.9583 33.6083 25.9 34 27 34ZM29 23H33L29 19V23Z" fill="#2B5A9E"/>
</svg>