<svg width="54" height="54" viewBox="0 0 54 54" fill="none" xmlns="http://www.w3.org/2000/svg">
<rect width="54" height="54" rx="16" fill="#FFC1C1"/>
<path d="M30.0469 21.4866C30.0469 23.589 28.3426 25.2933 26.2403 25.2933C24.1379 25.2933 22.4336 23.589 22.4336 21.4866C22.4336 19.3842 24.1379 17.6799 26.2403 17.6799C28.3426 17.6799 30.0469 19.3842 30.0469 21.4866Z" fill="#FF5959" stroke="#FF2626"/>
<path d="M29 33.6667H33.6667V34.6001H29V33.6667Z" fill="#FF5959"/>
<path d="M25.5001 34.9999V34.4999H25.0001H18.1534V30.5932H18.1535L18.1534 30.5881C18.1501 30.2654 18.2394 29.9486 18.4108 29.6751C18.5818 29.4023 18.8273 29.1841 19.1183 29.0463C21.3502 28.0173 23.7803 27.4895 26.238 27.4999L26.2397 27.4999C27.2193 27.5008 28.1974 27.5707 29.1668 27.7091V29.6666V30.1666H29.6668H31.0001H31.5001V29.6666V28.6866C31.5001 28.6424 31.5177 28.6 31.5489 28.5687C31.5802 28.5375 31.6226 28.5199 31.6668 28.5199C31.711 28.5199 31.7534 28.5375 31.7846 28.5687C31.8159 28.6 31.8334 28.6424 31.8334 28.6866V29.6666V30.1666H32.3334H37.0001C37.0443 30.1666 37.0867 30.1841 37.118 30.2154L37.4715 29.8618L37.118 30.2154C37.1492 30.2467 37.1668 30.289 37.1668 30.3332V36.9999C37.1668 37.0441 37.1492 37.0865 37.118 37.1178L37.4715 37.4713L37.118 37.1178C37.0867 37.149 37.0443 37.1666 37.0001 37.1666H25.6668C25.6226 37.1666 25.5802 37.149 25.5489 37.1178C25.5177 37.0865 25.5001 37.0441 25.5001 36.9999V34.9999ZM36.3334 36.8332H36.8334V36.3332V30.9999V30.4999H36.3334H32.3334H31.8334V30.9999V31.2799C31.8334 31.3241 31.8159 31.3665 31.7846 31.3978C31.7534 31.429 31.711 31.4466 31.6668 31.4466C31.6226 31.4466 31.5802 31.429 31.5489 31.3978C31.5177 31.3665 31.5001 31.3241 31.5001 31.2799V30.9999V30.4999H31.0001H26.3334H25.8334V30.9999V36.3332V36.8332H26.3334H36.3334Z" fill="#FF5959" stroke="#FF2626"/>
</svg>