<svg width="511" height="380" viewBox="0 0 511 380" fill="none" xmlns="http://www.w3.org/2000/svg">
<g clip-path="url(#clip0_230_1082)">
<path opacity="0.95" d="M227.677 53.3815H271.742C282.941 53.3815 293.682 57.5721 301.601 65.0313C309.52 72.4906 313.969 82.6076 313.969 93.1566V134.664C313.969 139.887 312.876 145.059 310.754 149.885C308.632 154.711 305.522 159.095 301.601 162.789C297.68 166.482 293.025 169.412 287.902 171.411C282.779 173.41 277.288 174.438 271.743 174.438H227.677C222.132 174.438 216.641 173.41 211.518 171.411C206.395 169.412 201.74 166.482 197.819 162.789C193.898 159.095 190.788 154.711 188.666 149.885C186.544 145.059 185.452 139.887 185.452 134.664V93.1559C185.452 82.6071 189.901 72.4903 197.819 65.0311C205.738 57.572 216.478 53.3815 227.677 53.3815Z" fill="url(#paint0_linear_230_1082)"/>
<path d="M279.461 146.877H219.96V149.646H279.461V146.877Z" fill="#96BFE6"/>
<path d="M271.033 155.602H228.387V158.37H271.033V155.602Z" fill="#96BFE6"/>
<path opacity="0.95" d="M461.256 95.3668H384.854C357.381 95.3668 335.11 116.345 335.11 142.223V242.981C335.11 268.859 357.381 289.837 384.854 289.837H461.256C488.729 289.837 511 268.859 511 242.981V142.223C511 116.345 488.729 95.3668 461.256 95.3668Z" fill="url(#paint1_linear_230_1082)"/>
<path d="M428.811 210.092H414.861V212.526H428.811V210.092Z" fill="#4598E6"/>
<path d="M443.073 232.393H361.898V237.104H443.073V232.393Z" fill="#96BFE6"/>
<path d="M427.54 255.014H361.898V259.726H427.54V255.014Z" fill="#96BFE6"/>
<path d="M400.38 243.704H361.898V248.415H400.38V243.704Z" fill="#96BFE6"/>
<path d="M464.309 114.759V117.138H479.185V130.291H481.711V114.759H464.309ZM363.299 130.29H365.825V117.138H380.701V114.759H363.299V130.29ZM479.189 198.146V211.298H464.314V213.677H481.715V198.146L479.189 198.146ZM365.826 198.146H363.3V213.68H380.701V211.298H365.826V198.146Z" fill="#4598E6"/>
<path d="M473.836 260.073C470.894 260.073 468.018 259.251 465.571 257.711C463.125 256.171 461.218 253.983 460.092 251.422C458.966 248.861 458.672 246.044 459.246 243.326C459.82 240.607 461.236 238.11 463.317 236.151C465.398 234.191 468.048 232.856 470.934 232.316C473.82 231.775 476.811 232.052 479.529 233.113C482.248 234.174 484.571 235.97 486.206 238.274C487.841 240.579 488.713 243.288 488.713 246.059C488.709 249.775 487.14 253.336 484.351 255.963C481.562 258.591 477.781 260.068 473.836 260.073ZM473.836 234.759C471.464 234.759 469.144 235.422 467.171 236.663C465.198 237.905 463.661 239.67 462.753 241.735C461.845 243.8 461.607 246.072 462.07 248.264C462.533 250.456 463.675 252.47 465.353 254.05C467.031 255.631 469.169 256.707 471.496 257.143C473.823 257.579 476.235 257.355 478.428 256.5C480.62 255.645 482.493 254.196 483.812 252.338C485.13 250.479 485.834 248.294 485.834 246.059C485.83 243.063 484.565 240.191 482.316 238.072C480.066 235.954 477.017 234.762 473.836 234.759Z" fill="#4598E6"/>
<path d="M472.888 251.575L466.13 245.209L468.166 243.291L472.889 247.739L479.51 241.502L481.546 243.42L472.888 251.575Z" fill="#4598E6"/>
<path d="M482.782 369.358C482.782 375.235 374.707 380.001 241.391 380.001C108.074 380.001 0 375.237 0 369.358C0 363.478 108.074 358.714 241.391 358.714C374.707 358.714 482.782 363.48 482.782 369.358Z" fill="url(#paint2_linear_230_1082)"/>
<path opacity="0.95" d="M293.022 57.9082H206.398V127.917H293.022V57.9082Z" fill="url(#paint3_linear_230_1082)"/>
<path d="M282.798 100.527C279.945 93.4183 273.091 90.1547 269.856 89.1378C268.704 88.7778 266.646 88.1446 264.477 87.4836C260.57 86.2945 256.301 85.0002 256.301 85.0002H242.819C242.819 85.0002 238.151 86.4741 233.189 88.112L233.188 88.1149L233.185 88.1161C228.614 89.6259 223.801 91.2719 222.176 92.0407C218.788 93.6346 213.086 105.029 211.934 106.335C211.339 107.007 208.695 111.445 206.092 116.403H220.616C222.151 113.919 223.333 111.996 223.333 111.996C223.333 111.996 224.251 113.894 225.366 116.403H271.896C272.632 113.488 273.091 109.814 273.091 109.814C273.091 109.814 275.583 113.006 278.303 116.403H291.713C288.452 111.249 284.403 104.54 282.798 100.527Z" fill="#2B5A9E"/>
<path d="M251.166 50.103C251.166 50.103 261.708 51.6671 260.103 67.2036C258.498 82.7401 249.194 81.4662 248.572 81.4506C247.949 81.435 239.231 81.734 238.552 62.7651C238.552 62.7651 238.254 48.741 251.166 50.103Z" fill="#EEA886"/>
<path d="M260.266 62.8146C260.266 62.8146 261.417 61.6532 261.843 62.8288C262.269 64.0044 260.268 69.249 260.197 69.4937C260.197 69.4937 259.986 69.9499 259.709 69.6971C259.432 69.4442 260.266 62.8146 260.266 62.8146Z" fill="#EEA886"/>
<path d="M238.837 62.6179C238.837 62.6179 237.706 61.4355 237.258 62.6036C236.811 63.7717 238.683 69.0502 238.77 69.2977C238.77 69.2977 238.971 69.7573 239.253 69.5112C239.535 69.2651 238.837 62.6179 238.837 62.6179Z" fill="#EEA886"/>
<path d="M260.26 65.1975L258.749 67.0957C258.749 67.0957 258.792 62.9291 258.55 62.2755C258.308 61.622 257.937 59.6261 257.734 59.157C257.531 58.6878 248.682 56.3503 240.864 59.839C240.864 59.839 241.208 62.8355 240.459 63.1019C239.71 63.3684 240.077 67.9832 240.077 67.9832L238.837 66.6639C238.837 66.6639 236.937 54.711 237.406 53.4649C237.876 52.2189 239.37 44.7289 255.408 49.1749C255.408 49.1749 260.408 48.1776 261.411 51.4291C262.415 54.6805 260.26 65.1975 260.26 65.1975Z" fill="#434343"/>
<path d="M257.608 84.7197C257.604 84.7055 256.256 84.094 256.256 84.094C255.6 82.7109 256.087 76.8745 256.087 76.8745C256.087 76.8745 242.66 73.6556 243.044 76.1172C243.428 78.5789 241.887 84.2973 241.887 84.2973L235 87.5189C235 87.5189 242.341 106.08 250.773 103.686C259.206 101.291 262.392 86.8498 262.392 86.8498L257.608 84.7197Z" fill="#EEA886"/>
<path d="M243.237 78.8513C243.969 79.6598 244.876 80.3124 245.896 80.7659C246.916 81.2194 248.027 81.4634 249.155 81.4817C251.625 81.4817 253.398 80.8295 255.858 78.5699C255.858 78.5699 254.791 82.8614 249.171 83.2607C249.171 83.2607 245.096 83.7488 243.237 78.8513Z" fill="#A77860"/>
<path d="M204.476 141.176C204.476 141.176 212.223 144.745 210.306 154.455C208.389 164.164 207.543 165.473 209.686 169.267C211.828 173.061 214.356 189.246 212.428 192.313C210.5 195.38 188.561 178.832 185.519 164.948C182.476 151.063 187.447 144.889 189.204 142.588C190.961 140.287 197.637 137.906 204.476 141.176Z" fill="#0E2D3D"/>
<path d="M201.553 366.52H203.309V358.724C205.47 360.134 207.364 361.876 208.913 363.876C211.072 366.865 214.045 366.611 218.569 366.421C223.093 366.23 222.887 364.513 222.486 362.095C222.084 359.678 217.489 358.915 216.003 358.533C214.518 358.152 211.146 352.679 210.061 351.347C209.166 350.245 208.407 349.05 207.799 347.786C207.799 347.786 206.955 344.542 202.769 347.786C198.583 351.03 199.798 357.263 200.271 357.835C200.744 358.407 201.553 366.52 201.553 366.52Z" fill="#222429"/>
<path d="M210.4 358.531C211.953 359.485 216.004 358.531 216.004 358.531C214.856 357.131 207.799 347.782 207.799 347.782C203.512 345.428 201.817 348.667 201.817 348.667C203.567 349.17 208.846 357.576 210.4 358.531Z" fill="#EEA886"/>
<path d="M255.548 214.648C255.548 214.648 258.358 215.156 259.318 213.911C260.135 212.853 262.002 212.041 262.577 211.79C263.345 211.451 265.295 209.596 265.754 210.502C266.212 211.407 262.695 213.71 262.06 214.331C261.424 214.952 265.509 215.228 266.213 215.831C266.918 216.434 266.051 222.781 263.271 222.287C260.491 221.794 257.868 219.537 257.361 219.541C256.676 219.484 255.996 219.389 255.323 219.257L255.548 214.648Z" fill="#EEA886"/>
<path d="M265.594 215.574C265.594 215.574 273.997 217.619 274.436 218.197C274.875 218.775 274.731 219.197 273.937 219.037C273.143 218.877 265.756 217.282 265.756 217.282C265.756 217.282 275.271 221.277 275.74 221.676C276.015 221.91 275.786 222.743 275.353 222.693C274.92 222.643 265.249 219.193 265.249 219.193C265.249 219.193 274.125 222.938 274.412 223.383C274.473 223.496 274.495 223.625 274.476 223.751C274.458 223.877 274.399 223.994 274.308 224.088C274.217 224.182 274.098 224.248 273.967 224.278C273.835 224.307 273.698 224.298 273.572 224.252C272.893 224.017 264.446 220.98 264.446 220.98C264.446 220.98 270.725 224.088 270.732 224.599C270.736 224.911 270.575 225.64 268.981 224.791C267.388 223.941 263.405 222.308 263.405 222.308L265.594 215.574Z" fill="#EEA886"/>
<path d="M178.805 367.054H179.885V361.329C181.157 362.655 182.112 364.223 182.684 365.926C183.562 368.661 186.705 369.473 191.499 369.345C196.293 369.218 196.361 367.436 195.956 364.764C195.55 362.093 191.499 360.697 191.499 360.697C189.676 359.17 185.152 352.841 185.152 352.841C184.262 352.646 183.339 352.634 182.444 352.807C181.55 352.98 180.705 353.333 179.97 353.843C177.691 355.576 178.399 359.488 178.467 360.506C178.535 361.523 178.805 367.054 178.805 367.054Z" fill="#222429"/>
<path d="M182.114 230.687C182.114 230.687 176.401 237.683 174.852 245.983C173.302 254.283 175.766 282.142 175.7 286.245C175.633 290.347 171.581 300.555 172.389 308.283C173.197 316.011 176.397 354.475 176.397 354.475L185.151 352.839C185.151 352.839 184.647 313.627 185.151 310.383C185.655 307.139 186.674 295.315 186.878 293.977C187.083 292.638 199.738 257.571 199.738 251.584C199.738 245.597 195.888 220.924 182.114 230.687Z" fill="#222429"/>
<path d="M210.811 233.42C210.811 233.42 220.197 267.162 221.311 271.838C222.425 276.513 224.039 280.368 224.039 282.353C224.039 286.959 222.223 294.353 222.223 294.353L210.304 348.046H198.952C198.952 348.046 205.277 315.834 205.447 309.534C205.618 303.221 210.777 294.257 209.766 291.585C208.754 288.913 193.459 258.094 193.459 258.094C193.459 258.094 181.877 223.625 210.811 233.42Z" fill="#222429"/>
<path d="M191.5 360.693L185.152 352.838L179.97 353.839C180.91 356.08 182.232 358.161 183.884 360.001C186.867 363.133 191.5 360.693 191.5 360.693Z" fill="#EEA886"/>
<path d="M206.936 176.08C209.528 176.432 211.919 177.592 213.729 179.375C216.293 182.173 218.456 185.277 220.163 188.605C220.928 190.18 231.663 204.764 232.22 205.092C232.777 205.421 238.173 207.119 241.748 208.252C247.265 210.001 258.325 213.787 258.325 213.787L256.128 220.337C256.128 220.337 235.328 213.927 230.123 212.719C223.754 211.241 209.093 193.523 209.093 193.523C209.093 193.523 198.162 181.458 206.936 176.08Z" fill="#2B5A9E"/>
<path d="M200.184 173.522C200.184 173.522 205.197 175.752 206.937 176.08C208.677 176.407 215.43 184.67 216.614 187.687C217.798 190.703 216.614 195.228 214.177 200.539C211.74 205.85 214.038 207.622 212.924 212.933C211.809 218.244 212.168 238.116 212.377 241.068C212.585 244.019 179.791 248.492 173.317 243.114C173.317 243.114 177.7 225.206 182.889 220.094C184.012 218.989 183.892 211.62 183.127 209.789C182.362 207.959 173.729 194.248 173.729 194.248C173.729 194.248 173.095 180.35 176.862 177.591C180.134 175.198 189.051 174.345 190.652 173.82C192.254 173.295 196.91 173.063 200.184 173.522Z" fill="#FFC507"/>
<path d="M202.575 168.074C202.575 168.074 202.426 169.374 202.253 171.131C202.187 171.826 202.113 172.594 202.047 173.38C201.832 175.432 201.745 177.495 201.784 179.557C201.784 179.557 196.574 184.474 190.652 173.819C192.197 170.547 192.416 166.856 191.267 163.443C189.392 157.457 202.575 168.074 202.575 168.074Z" fill="#EEA886"/>
<path d="M217.153 202.499C217.153 202.499 218.407 194.644 217.074 189.867C217.074 189.867 217.074 193.975 214.683 199.808L217.153 202.499Z" fill="#183C59"/>
<path d="M186.649 174.574C186.649 174.574 190.232 184.54 200.069 183.809C209.907 183.078 204.732 175.392 204.732 175.392C203.728 174.83 202.678 174.346 201.591 173.943C200.901 173.818 190.715 173.697 190.715 173.697L186.649 174.574Z" fill="#EEA886"/>
<path d="M204.732 175.392C204.732 175.392 209.885 188.815 209.885 202.499C209.885 216.182 210.299 238.47 212.099 245.508C213.898 252.547 219.017 274.314 219.017 274.314L223.031 272.358C223.031 272.358 213.381 237.619 212.653 235.114C211.925 232.609 213.206 206.145 213.899 203.928C214.591 201.712 217.533 191.849 217.076 189.113C216.5 185.663 213.072 180.559 207.537 176.17L204.732 175.392Z" fill="#2B5A9E"/>
<path d="M188.593 174.154C190.827 181.363 192.44 188.73 193.416 196.184C195.038 208.553 188.434 265.973 184.007 279.007L166.848 276.4C166.848 276.4 170.542 235.814 175.557 228.428C180.572 221.042 182.166 214.507 176.754 199.091C171.342 183.675 179.129 176.041 179.129 176.041C179.129 176.041 187.089 174.314 188.593 174.154Z" fill="#2B5A9E"/>
<path d="M207.105 215.113L186.3 249.056L163.172 236.478L183.073 202.044L207.105 215.113Z" fill="#616161"/>
<path d="M204.596 216.281L186.12 246.427L165.579 235.256L183.253 204.674L204.596 216.281Z" fill="white"/>
<path d="M197.78 213.574L199.075 211.458L190.771 206.941L189.15 208.881L197.78 213.574Z" fill="#616161"/>
<path d="M196.789 237.656C196.328 237.664 195.868 237.602 195.428 237.472C195.428 237.472 194.701 237.075 194.167 236.822C194.03 236.755 193.889 236.695 193.745 236.643C192.924 236.454 192.141 236.142 191.425 235.719C190.506 235.119 187.251 231.566 187.251 231.566L188.79 229.362L189.918 227.105C189.918 227.105 196.756 227.522 197.683 227.987C197.772 228.031 197.857 228.08 197.939 228.133C198.471 228.55 198.956 229.017 199.386 229.528C199.518 229.634 200.754 230.77 200.708 231.254C200.704 231.524 200.626 231.789 200.483 232.023C200.34 232.257 200.135 232.453 199.889 232.591C199.798 233.296 199.499 233.962 199.026 234.514C198.98 234.873 198.848 235.216 198.639 235.519C198.43 235.822 198.15 236.076 197.82 236.26C197.82 236.26 197.549 237.48 196.789 237.656Z" fill="#EEA886"/>
<path d="M182.69 176.08C182.69 176.08 176.373 174.375 172.752 180.933C169.132 187.491 169.154 190.289 168.666 193.491C168.209 196.514 166.147 204.769 165.939 205.622C165.73 206.475 161.059 216.64 163.204 220.193C165.356 223.765 187.224 234.277 187.085 235.064C186.946 235.851 190.872 227.116 190.872 227.116C190.872 227.116 182.024 222.47 180.575 221.04C178.221 218.717 173.255 216.213 174.276 213.331C175.474 209.945 179.074 198.522 179.909 196.85C180.744 195.177 188.016 178.212 182.69 176.08Z" fill="#2B5A9E"/>
<path d="M203.353 142.254C203.353 142.254 214.601 145.583 208.494 163.867C202.388 182.151 187.027 161.749 188.634 150.609C190.242 139.469 203.353 142.254 203.353 142.254Z" fill="#EEA987"/>
<path d="M209.645 152.92C205.47 156.34 200.223 158.381 194.702 158.732C194.702 158.732 191.108 162.702 190.832 164.26C190.832 164.26 182.486 150.861 192.745 142.829C203.003 134.797 213.415 149.612 209.645 152.92Z" fill="#0E2D3D"/>
<path d="M194.815 159.096C194.743 157.766 193.872 154.737 191.772 155.585C189.673 156.432 191.901 162.599 193.294 162.22C193.294 162.22 194.986 162.245 194.815 159.096Z" fill="#EEA987"/>
<path d="M202.253 171.131C202.186 171.826 202.113 172.594 202.047 173.38C202.047 173.38 197.081 173.101 193.765 166.145C193.98 166.449 197.617 171.482 202.253 171.131Z" fill="#A77860"/>
<path d="M79.0882 338.333C86.3006 333.556 94.7408 300.262 95.2446 280.431C95.503 270.272 98.6906 266.041 101.506 262.306C104.194 258.737 106.516 255.655 105.164 248.577C102.579 235.052 109.375 229.213 109.444 229.156L108.657 228.311C108.355 228.56 101.278 234.582 103.99 248.777C105.254 255.39 103.17 258.155 100.535 261.658C97.7679 265.331 94.3241 269.904 94.0578 280.405C93.5172 301.687 84.8878 333.123 78.4081 337.416L79.0882 338.333Z" fill="url(#paint4_linear_230_1082)"/>
<path d="M63.9712 328.623C63.2904 327.17 62.5865 325.667 61.7883 324.081C57.6686 315.889 54.0153 314.54 47.9696 312.305C46.492 311.759 44.8172 311.14 42.9798 310.361C34.3186 306.695 35.9984 301.291 37.4753 296.524C37.6819 295.857 37.8891 295.193 38.0676 294.535C38.8291 291.731 37.3659 290.324 35.1506 288.195C32.9908 286.283 31.2051 284.027 29.875 281.532C28.1477 278.128 29.0272 276.303 30.0715 275.371C32.2688 273.409 37.335 273.77 42.1183 276.231C43.6208 277.115 44.9712 278.211 46.1228 279.479C49.1723 282.488 52.9674 286.23 62.5656 286.273C68.0355 286.298 71.036 287.009 72.5892 288.653C74.3511 290.517 74.0193 293.31 73.5594 297.174C73.4003 298.51 73.2197 300.025 73.111 301.662C72.8218 307.722 74.7756 313.689 78.6385 318.543C82.2947 322.644 86.7994 331.153 84.8547 336.389C84.04 338.584 82.2176 339.966 79.4381 340.495C78.4351 340.694 77.4135 340.799 76.3886 340.807C69.6736 340.802 67.2193 335.558 63.9712 328.623ZM41.5482 277.218C37.2767 275.021 32.6956 274.578 30.8963 276.188C29.5288 277.408 30.1723 279.507 30.9554 281.049C32.2257 283.434 33.936 285.588 36.0064 287.41C38.3246 289.638 40.1556 291.398 39.2271 294.815C39.045 295.485 38.8349 296.162 38.624 296.841C37.1507 301.587 35.7595 306.073 43.4728 309.338C45.2843 310.104 46.9447 310.719 48.4101 311.26C54.5134 313.516 58.546 315.007 62.8686 323.598C63.6733 325.198 64.38 326.707 65.0645 328.168C68.7955 336.134 71.0476 340.942 79.2049 339.388C81.5433 338.944 83.0662 337.808 83.7326 336.013C85.4456 331.397 81.3468 323.318 77.7273 319.259C73.6311 314.203 71.5745 307.94 71.9242 301.589C72.035 299.925 72.2171 298.396 72.3776 297.046C72.8029 293.471 73.1103 290.888 71.7018 289.397C70.4142 288.034 67.5994 287.417 62.5613 287.395C52.4564 287.35 48.467 283.415 45.2613 280.253C44.1934 279.07 42.9412 278.045 41.5475 277.215L41.5482 277.218Z" fill="url(#paint5_linear_230_1082)"/>
<path d="M79.3071 347.288L80.4982 347.229C80.4392 346.175 78.9372 321.332 68.3457 314.057C56.7258 306.079 53.0631 297.505 51.3185 291.752C49.2622 284.973 38.7953 283.159 38.3541 283.085L38.1469 284.192C38.2483 284.209 48.3209 285.955 50.172 292.061C51.9655 297.976 55.7275 306.785 67.644 314.967C77.7835 321.922 79.2963 347.036 79.3071 347.288Z" fill="url(#paint6_linear_230_1082)"/>
<path d="M77.294 352.874C74.8023 351.705 74.8923 347.004 75.029 339.89C75.2017 330.9 75.4385 318.587 70.4422 307.262C65.1343 295.231 69.8664 291.715 74.446 288.314C79.5733 284.506 84.4156 280.909 75.1211 264.672C70.8525 257.214 69.4972 252.17 70.856 248.798C72.199 245.464 75.9661 244.165 79.9569 242.79C86.8433 240.417 94.6487 237.725 93.6403 223.996C93.3316 219.787 93.8563 217.199 95.2957 215.851C96.8568 214.386 99.1577 214.545 101.821 214.728C105.845 215.005 110.403 215.32 114.375 210.439C114.788 209.219 118.584 198.335 123.126 196.474C123.561 196.28 124.036 196.181 124.517 196.184C124.998 196.186 125.472 196.29 125.904 196.488C129.039 197.9 130.859 199.576 131.466 201.61C132.523 205.147 129.773 209.135 126.587 213.757C121.581 221.017 115.908 229.246 121.792 239.039C129.573 251.987 125.463 256.517 119.777 262.789C116.519 266.382 112.826 270.454 110.357 277.094C108.371 282.435 111.758 287.529 115.035 292.455C119.144 298.633 123.393 305.022 114.447 310.567C99.6558 319.733 85.0483 349.654 84.9029 349.955L84.8424 350.079L84.728 350.164C82.0031 352.176 80.0196 353.136 78.5254 353.136C78.0987 353.141 77.6768 353.051 77.294 352.874ZM113.788 309.627C121.759 304.687 118.173 299.294 114.021 293.051C110.755 288.14 107.053 282.574 109.228 276.722C111.771 269.881 115.541 265.724 118.867 262.056C124.44 255.912 128.122 251.852 120.753 239.589C114.512 229.204 120.652 220.298 125.586 213.142C128.614 208.751 131.228 204.96 130.317 201.912C129.808 200.207 128.196 198.764 125.389 197.499C125.11 197.371 124.805 197.305 124.495 197.305C124.186 197.305 123.88 197.371 123.602 197.499C119.388 199.227 115.519 210.751 115.48 210.867L115.449 210.96L115.387 211.038C111.01 216.486 105.866 216.131 101.733 215.846C99.2628 215.676 97.3124 215.541 96.1371 216.644C94.979 217.729 94.5537 220.108 94.8315 223.916C95.9017 238.487 87.2888 241.456 80.365 243.842C76.4785 245.182 73.1189 246.34 71.9687 249.193C70.7452 252.238 72.0767 256.989 76.1683 264.135C85.9386 281.203 80.4701 285.266 75.1816 289.194C70.7582 292.48 66.5795 295.583 71.5405 306.828C76.6326 318.37 76.3936 330.818 76.2187 339.908C76.0993 346.112 76.0028 351.013 77.823 351.866C78.8867 352.365 80.9214 351.522 83.8686 349.357C85.0576 346.943 99.0483 318.764 113.788 309.629L113.788 309.627Z" fill="url(#paint7_linear_230_1082)"/>
<path d="M53.9476 222.461C61.4752 220.03 59.9112 233.697 63.0924 243.809C66.2735 253.922 98.4783 248.221 84.9604 273.542C71.4426 298.863 102.057 282.01 92.9126 304.107C83.7686 326.203 92.1209 349.835 82.1772 343.824C72.2335 337.813 76.5929 309.987 66.2556 306.681C55.9182 303.376 54.2311 299.519 64.4663 290.531C74.7015 281.543 37.6466 272.619 46.7914 254.469C55.9362 236.32 45.2511 225.273 53.9476 222.461Z" fill="url(#paint8_linear_230_1082)"/>
<path d="M78.7118 342.372C79.6583 338.589 87.7429 305.3 80.1995 301.276C73.5507 297.73 73.7148 283.936 74.7519 270.91C75.6703 259.378 59.9487 253.989 59.2779 253.766L58.8792 254.825C59.0346 254.877 74.4115 260.153 73.5615 270.824C72.4963 284.201 72.3826 298.397 79.6108 302.253C85.3383 305.308 80.0649 332.062 77.5495 342.116L78.7118 342.372Z" fill="white"/>
<path d="M107.115 330.521L96.3674 368.93H72.3474L61.5997 330.521H107.115Z" fill="url(#paint9_linear_230_1082)"/>
<path d="M107.115 330.521C107.115 330.521 83.4542 334.706 83.4542 368.931H72.3474L61.5997 330.521H107.115Z" fill="url(#paint10_linear_230_1082)"/>
<path opacity="0.95" d="M361.307 8.55225H386.299C390.858 8.55225 395.372 9.39804 399.584 11.0413C403.796 12.6846 407.623 15.0933 410.846 18.1297C414.07 21.1661 416.627 24.7709 418.371 28.7381C420.116 32.7054 421.014 36.9575 421.014 41.2517V55.955C421.014 60.2491 420.116 64.5012 418.371 68.4685C416.627 72.4358 414.07 76.0405 410.846 79.0769C407.623 82.1134 403.796 84.522 399.584 86.1653C395.372 87.8086 390.858 88.6544 386.299 88.6544H361.308C352.101 88.6544 343.271 85.2092 336.76 79.0767C330.25 72.9443 326.593 64.6269 326.593 55.9543V41.2517C326.593 32.5792 330.25 24.262 336.76 18.1297C343.27 11.9974 352.1 8.55225 361.307 8.55225Z" fill="url(#paint11_linear_230_1082)"/>
<path d="M377.189 73.5044H369.7V74.8108H377.189V73.5044Z" fill="#4598E6"/>
<path d="M380.217 1.53698C380.217 1.53698 386.25 4.65551 384.335 12.3319C382.42 20.0083 381.692 21.0191 383.248 24.12C384.804 27.221 386.172 40.2159 384.512 42.5927C382.853 44.9696 366.022 30.9998 364.151 19.8185C362.281 8.63709 366.491 3.89284 367.984 2.12068C369.476 0.348531 374.895 -1.31311 380.217 1.53698Z" fill="#344052"/>
<path d="M391.545 64.9629H385.085C384.773 61.9616 384.484 59.8722 384.543 59.563C384.638 59.0532 378.115 42.9357 377.506 41.6022C376.898 40.2687 374.502 36.6979 374.189 33.3312C373.877 29.9646 378.534 28.606 378.534 28.606C384.825 29.6676 386.955 37.864 386.955 37.864C386.955 37.864 389.596 54.4845 390.932 59.161C391.338 61.0714 391.543 63.0147 391.545 64.9629Z" fill="#EEA886"/>
<path d="M388.294 41.8659L378.674 45.6862C378.674 45.6862 369.831 25.0176 377.243 27.3253C384.633 29.6263 387.957 33.9509 388.294 41.8659Z" fill="#38D554"/>
<path d="M386.153 51.5979C385.872 53.65 384.722 60.919 384.978 62.8816C385.022 63.2057 385.164 63.9507 385.378 64.9636H362.183C362.799 62.8891 363.361 61.0532 363.701 59.9847C364.828 56.4655 363.748 55.5239 363.179 52.7084C362.958 51.606 362.179 49.5132 361.329 47.1492C361.041 46.3594 360.753 45.5363 360.471 44.7086C359.658 42.1584 359.06 39.5514 358.684 36.9122C357.284 28.5057 364.148 27.6989 364.148 27.6989C366.698 27.2555 371.153 25.96 371.153 25.96L378.134 27.3267C378.717 27.5638 379.265 27.869 379.767 28.2352C379.767 28.2352 379.771 28.2351 379.771 28.2385C380.331 28.6294 380.856 29.063 381.341 29.5348C382.749 31.1605 384.018 32.8888 385.136 34.7034C385.599 35.4146 386.065 36.1448 386.504 36.8634C387.923 39.1759 388.931 41.0416 388.9 43.1459C388.87 45.215 386.434 49.5457 386.153 51.5979Z" fill="#38D554"/>
<path d="M378.132 27.3267C378.132 27.3267 382.503 34.3644 380.877 34.8898C379.252 35.4153 370.683 33.6384 367.336 26.9891C367.336 26.9891 372.965 24.579 378.132 27.3267Z" fill="#EEA886"/>
<path d="M377.507 30.5408C377.507 30.5408 373.621 32.0886 370.108 26.9931C370.108 26.9931 371.053 21.2075 369.055 17.8605C367.057 14.5135 377.786 21.8726 377.786 21.8726C377.786 21.8726 377.612 22.5628 377.432 23.581C377.34 24.1024 377.246 24.7085 377.173 25.3518C377.113 25.8881 377.067 26.4515 377.046 27.0121C376.951 28.2055 377.108 29.4047 377.507 30.5408Z" fill="#EEA886"/>
<path d="M367.863 38.4233C367.064 42.2964 361.328 47.1485 361.328 47.1485C361.045 46.3567 360.753 45.5357 360.472 44.7079C363.221 42.9316 365.707 40.8181 367.863 38.4233Z" fill="#393D63"/>
<path d="M366.425 41.5059C366.061 42.9174 364.389 57.2139 364.571 57.7014C364.677 57.9807 365.488 61.2877 366.298 64.9636H358.813C358.046 62.5948 357.589 60.6288 357.702 59.5156C358.18 54.6933 356.445 39.3202 356.445 39.3202C356.445 39.3202 354.891 30.0215 363.083 28.8595C363.083 28.8595 367.922 29.4595 368.215 32.8255C368.507 36.1915 366.788 40.0978 366.425 41.5059Z" fill="#EEA886"/>
<path d="M355.838 43.4802L366.004 45.7174C366.004 45.7174 374.065 30.9687 366.806 28.2759C359.15 25.4366 354.003 35.435 355.838 43.4802Z" fill="#38D554"/>
<path d="M379.278 2.35585C379.278 2.35585 388.113 5.40661 382.516 19.7716C376.92 34.1366 365.485 17.3202 367.211 8.49465C368.938 -0.33086 379.278 2.35585 379.278 2.35585Z" fill="#EEA987"/>
<path d="M383.867 11.0845C380.402 13.6632 376.137 15.1043 371.721 15.1881C371.721 15.1881 369.972 19.2036 369.689 20.4361C369.689 20.4361 362.296 8.47845 370.796 2.43862C379.296 -3.60121 387.003 8.57946 383.867 11.0845Z" fill="#344052"/>
<path d="M372.732 16.0504C372.727 14.9867 372.156 12.5413 370.447 13.1426C368.737 13.744 370.269 18.7398 371.394 18.4869C371.394 18.4869 372.742 18.5669 372.732 16.0504Z" fill="#EEA987"/>
<path d="M377.056 26.7667C372.904 25.682 371.298 21.9574 371.249 21.8326C374.625 25.9424 377.172 25.3518 377.172 25.3518C377.112 25.8881 377.108 26.223 377.056 26.7667Z" fill="#A77860"/>
<path d="M396.246 23.0502V24.3274H404.231V31.3869H405.588V23.0502H396.246ZM342.019 31.3889H343.376V24.3254H351.361V23.0502H342.019V31.3889ZM404.231 67.8157V74.8772H396.246V76.1551H405.587V67.8164L404.231 67.8157ZM343.376 67.8157H342.019V76.1544H351.36V74.8765H343.375L343.376 67.8157Z" fill="#4598E6"/>
<path d="M254.711 133.351H244.709V135.096H254.711V133.351Z" fill="#4598E6"/>
<path d="M279.687 65.9568V67.6632H290.353V77.0927H292.165V65.9568H279.687ZM207.256 77.0921H209.067V67.6632H219.734V65.9568H207.256V77.0921ZM290.353 125.746V135.179H279.687V136.886H292.164V125.746H290.353ZM209.067 125.746H207.256V136.886H219.734V135.179H209.067V125.746Z" fill="#4598E6"/>
<path d="M473.15 197.054H464.689C464.534 196.735 464.409 196.457 464.306 196.236C461.795 190.652 448.857 177.848 448.857 177.848V177.876C448.853 177.879 448.85 177.884 448.85 177.89V177.903C448.842 177.924 448.835 177.938 448.828 177.958C448.821 177.979 448.813 178.021 448.798 178.063C448.79 178.085 448.785 178.107 448.784 178.131C448.776 178.152 448.769 178.165 448.761 178.186C448.231 180.052 445.625 189.347 444.321 197.053H387.069C386.936 196.338 386.781 195.658 386.605 195.027C386.108 193.193 385.739 191.33 385.5 189.45C385.493 189.36 385.478 189.277 385.47 189.187C385.426 188.86 385.389 188.534 385.359 188.216C385.051 185.248 385.019 182.261 385.264 179.289C385.102 179.615 383.946 183.61 382.429 188.541C381.597 191.246 380.655 194.236 379.72 197.052H366.2L383.166 150.947C383.541 150.67 387.945 148.665 391.155 147.222C394.432 145.752 398.386 143.595 401.957 141.75C403.783 140.806 405.506 139.953 407.001 139.309L407.23 139.212V139.206C409.696 138.144 411.339 137.443 411.339 137.443H411.346C411.405 137.436 411.795 137.401 412.414 137.346C415.86 137.034 426.552 136.09 430.131 135.897C430.425 135.876 430.675 135.869 430.867 135.861C430.987 135.854 431.107 135.854 431.227 135.861C433.117 136.344 434.972 136.942 436.779 137.651C436.889 137.686 437 137.727 437.11 137.769C437.251 137.818 437.383 137.866 437.523 137.915C437.773 138.005 438.031 138.095 438.289 138.193C438.805 138.387 439.342 138.581 439.879 138.782C440.063 138.85 440.255 138.917 440.446 138.99C446.242 141.154 452.884 143.838 454.459 144.906C455.505 145.607 458.752 151.371 462.515 158.501C466.566 170.726 471.523 188.357 473.15 197.054Z" fill="#DECBC4"/>
<path d="M431.135 134.296C430.983 141.546 416.082 145.512 416.082 145.512C416.082 145.512 409.849 138.151 411.337 137.444C411.922 137.167 412.159 136.069 412.232 134.837C412.279 133.74 412.25 132.642 412.147 131.549C412.103 131.036 412.06 130.706 412.06 130.706C412.06 130.706 414.189 128.59 416.898 126.069C421.631 121.662 428.138 116.014 428.148 118.26C428.146 118.404 428.127 118.546 428.093 118.686C426.951 123.744 431.135 134.296 431.135 134.296Z" fill="#EEA886"/>
<path d="M425.397 123.675C425.367 123.717 424.735 124.608 423.657 125.886C421.369 128.598 417.069 133.049 412.234 134.835C412.281 133.738 412.252 132.64 412.149 131.547C411.651 131.535 411.155 131.479 410.669 131.379C411.649 129.827 412.73 128.335 413.908 126.91L416.899 126.068L425.397 123.675Z" fill="#A77860"/>
<path d="M428.258 118.361C426.969 121.005 425.744 122.917 425.397 123.676C424.935 124.489 424.349 125.234 423.656 125.887C421.201 128.379 416.636 131.665 412.149 131.55C411.651 131.539 411.155 131.483 410.669 131.382C408.858 131.009 406.718 130.216 405.54 128.045C396.244 110.901 402.975 96.8813 402.975 96.8813C402.975 96.8813 428.393 90.1107 432.37 97.3179C435.161 102.377 431.286 112.155 428.258 118.361Z" fill="#EEA886"/>
<path d="M402.974 96.8827C402.974 96.8827 400.613 96.7593 400.029 92.5438C399.454 88.3785 400.619 87.2239 400.619 87.2239C400.619 87.2239 411.112 83.0885 414.881 82.5461C418.649 82.0037 427.915 81.4912 430.087 83.8342C430.087 83.8342 435.364 82.6817 436.802 90.931C439.083 104.023 429.029 116.735 429.029 116.735C429.029 116.735 429.115 108.182 427.113 107.049C425.11 105.916 423.382 108.608 423.382 108.608L419.286 109.299C419.286 109.299 425.508 96.646 418.045 96.1776C410.582 95.7091 407.246 97.6162 402.974 96.8827Z" fill="#E8734D"/>
<path d="M423.496 105.2C423.885 101.432 431.119 99.9937 430.635 103.943C430.151 107.893 426.588 111.687 424.943 111.553C423.297 111.42 423.198 108.072 423.496 105.2Z" fill="#EEA886"/>
<path d="M465.837 158.858C463.481 151.748 461.441 146.123 460.536 145.512C458.952 144.444 446.405 141.191 440.448 138.993C440.256 138.925 440.065 138.857 439.88 138.784C439.343 138.581 438.805 138.389 438.29 138.195C438.032 138.098 437.775 138.008 437.524 137.917C437.384 137.869 437.252 137.82 437.112 137.772C437.002 137.73 436.891 137.688 436.78 137.654C436.773 137.66 436.765 137.675 436.751 137.681C434.408 140.207 432.213 142.851 430.176 145.603C424.02 153.842 415.997 167.194 417.231 179.52C417.628 183.474 418.115 189.155 418.931 195.529C418.99 196.036 419.057 196.542 419.131 197.055H446.906C447.245 190.382 447.849 181.594 448.762 178.189C448.769 178.168 448.777 178.154 448.784 178.133C448.785 178.11 448.79 178.087 448.798 178.065C448.806 178.031 448.821 177.998 448.828 177.961C448.835 177.941 448.842 177.926 448.85 177.906V177.892C448.851 177.887 448.853 177.882 448.857 177.878C448.857 177.878 455.58 187.776 455.927 197.057H473.408C472.553 188.434 469.88 171.058 465.837 158.858Z" fill="#222429"/>
<path d="M407.12 139.395C407.12 139.395 405.021 145.971 402.312 162.389V162.395C402.216 162.944 402.127 163.505 402.032 164.081C402.024 164.143 402.009 164.212 402.002 164.284C401.936 164.658 401.877 165.048 401.818 165.437C401.811 165.485 401.804 165.527 401.796 165.572C401.752 165.829 401.707 166.092 401.67 166.363C401.567 167.008 401.464 167.674 401.361 168.347C400.345 175.047 398.989 185.694 397.613 197.056H386.633C386.037 193.9 385.477 191.028 385.521 189.056C385.501 189.099 385.483 189.143 385.469 189.189C384.593 191.477 383.628 193.967 382.65 196.388L382.385 197.054H363.46L382.311 150.602C382.687 150.325 387.539 147.863 390.75 146.427C394.101 144.922 398.335 143.07 402.09 141.439C403.889 140.656 405.573 139.928 407.001 139.31L407.12 139.395Z" fill="#222429"/>
<path d="M432.65 155.639L425.396 159.496L428.496 162.471L421.692 197.055H419.129C418.187 190.063 417.65 183.786 417.23 179.52C415.337 160.459 435.528 138.963 436.781 137.653C437.752 137.999 438.796 138.381 439.88 138.784L432.65 155.639Z" fill="#51565C"/>
<path d="M407.231 139.214C407.231 139.214 404.521 147.545 401.369 168.346C400.353 175.04 398.994 185.694 397.614 197.055H396.546L395.14 164.378L398.594 160.853L395.524 157.24L402.092 141.439C403.892 140.655 405.575 139.927 407.004 139.309L407.231 139.214Z" fill="#51565C"/>
<path d="M437.146 137.736L431.136 134.297C431.136 134.297 430.967 137.402 416.082 145.512L420.31 156.727L437.146 137.736Z" fill="#F5E2D9"/>
<path d="M412.123 135.861C412.123 135.861 412.357 139.212 416.081 145.512L407.831 155.643L407.23 139.212L412.123 135.861Z" fill="#F5E2D9"/>
<path d="M416.105 145.516C416.105 145.516 417.703 151.54 417.128 153.226C417.128 153.226 413.612 154.431 411.082 152.925C412.306 150.209 414.004 147.705 416.105 145.516Z" fill="#D44040"/>
<path d="M414.167 165.995C412.684 176.287 412.329 186.695 413.107 197.055H406.06C405.964 195.744 405.876 194.378 405.787 192.949C404.477 171.526 412.517 152.379 412.517 152.379L416.104 151.533C416.104 151.533 414.947 161.004 414.167 165.995Z" fill="#D44040"/>
<path d="M385.751 179.347C385.483 184.488 385.522 189.054 385.522 189.054V189.058C385.522 189.083 385.515 189.222 385.503 189.451C385.493 189.364 385.481 189.279 385.47 189.193C384.597 191.481 383.629 193.969 382.653 196.391C382.44 193.781 382.368 191.163 382.437 188.547C382.828 174.133 387.642 166.573 387.642 166.573C386.533 169.085 386.004 174.475 385.751 179.347Z" fill="#2D3133"/>
<path d="M319.879 197.117L297.363 208.778L274.752 175.261L302.102 166.312L319.879 197.117Z" fill="#292C47"/>
<path d="M318.454 196.111L297.398 207.013L276.253 175.669L301.827 167.301L318.454 196.111Z" fill="white"/>
<path d="M326.165 190.248C326.165 190.248 322.246 188.485 320.526 187.56C318.806 186.635 314.381 185.37 314.024 185.07C313.667 184.77 300.907 184.028 300.133 183.399C299.359 182.77 298.607 184.873 301.914 185.555C305.221 186.238 309.823 187.906 310.074 189.123C310.325 190.341 306.678 190.629 306.308 191.632C305.938 192.634 306.411 192.409 306.935 192.624C307.458 192.839 311.275 190.848 312.952 191.414C314.63 191.979 317.199 191.196 318.483 191.611C319.767 192.026 326.024 194.008 326.024 194.008L326.165 190.248Z" fill="#EEA886"/>
<path d="M296.269 204.57C296.269 204.57 292.977 201.779 291.384 200.611C289.79 199.443 286.8 196.009 286.361 195.809C285.921 195.609 280.211 184.572 279.28 184.13C278.349 183.687 280.16 182.201 282.131 184.871C284.101 187.54 287.562 190.975 288.878 190.725C290.194 190.475 289.062 187.123 289.921 186.405C290.78 185.686 290.739 186.194 291.158 186.574C291.577 186.955 291.071 191.116 292.29 192.388C293.51 193.659 293.726 196.24 294.641 197.219C295.556 198.199 299.976 202.982 299.976 202.982L296.269 204.57Z" fill="#EEA886"/>
<path d="M367.168 353.756C367.168 353.756 367.881 358.412 367.969 359.112C368.058 359.811 375.891 358.7 375.891 358.7L376.525 353.157C376.525 353.157 368.151 353.099 367.168 353.756Z" fill="#424773"/>
<path d="M367.89 358.519C367.89 358.519 365.409 361.325 363.008 362.548C360.607 363.771 356.835 364.255 355.415 365.521C354.39 366.435 351.683 370.369 361.653 370.29C371.623 370.21 376.43 370.846 377.498 369.337C378.566 367.829 375.952 358.204 375.952 358.204C375.952 358.204 373.591 359.003 367.89 358.519Z" fill="#222429"/>
<path d="M311.044 353.756C311.044 353.756 311.757 358.412 311.845 359.112C311.934 359.811 319.768 358.7 319.768 358.7L320.402 353.157C320.402 353.157 312.024 353.099 311.044 353.756Z" fill="#424773"/>
<path d="M311.762 358.519C311.762 358.519 309.279 361.325 306.879 362.548C304.479 363.771 295.645 364.775 294.226 366.04C293.202 366.954 291.497 370.633 305.525 370.289C315.491 370.044 320.302 370.845 321.369 369.337C322.437 367.828 319.824 358.203 319.824 358.203C319.824 358.203 317.602 359.058 311.762 358.519Z" fill="#222429"/>
<path d="M360.684 234.109C360.684 234.109 368.045 245.124 367.496 255.081C366.947 265.038 370.164 275.91 371.271 286.312C372.504 297.905 377.547 325.362 377.731 331.563C377.914 337.764 376.948 357.572 376.948 357.572L366.85 357.79C366.85 357.79 358.369 309.797 356.173 304.9C353.977 300.003 343.084 265.091 342.719 261.172C342.353 257.253 360.684 234.109 360.684 234.109Z" fill="#2B5A9E"/>
<path d="M321.939 235.601C321.939 235.601 316.392 262.892 315.66 268.987C314.928 275.082 314.436 298.478 314.076 302.288C313.717 306.098 311.636 352.131 309.686 357.789H322.596C322.596 357.789 332.506 324.324 332.506 308.49C332.506 292.656 340.161 274.068 345.101 263.622C350.04 253.175 361.355 252.928 364.393 233.545C364.389 233.545 326.052 229.454 321.939 235.601Z" fill="#2B5A9E"/>
<path d="M348.4 141.498C348.4 141.498 338.521 138.022 333.965 145.106C329.409 152.189 329.849 166.371 334.829 168.115C339.809 169.859 347.29 168.947 349.839 164.515C352.388 160.082 354.69 153.674 354.58 149.392C354.469 145.109 350.997 142.734 348.4 141.498Z" fill="#EEA886"/>
<path d="M335.903 168.44C335.903 168.44 336.314 170.952 335.635 172.19C334.956 173.428 348.434 173.46 348.434 173.46C349.152 169.25 350.211 165.098 351.601 161.04C353.678 155.351 335.903 168.44 335.903 168.44Z" fill="#EEA886"/>
<path d="M351.601 161.04C351.601 161.04 350.671 162.486 346.874 161.921C343.077 161.357 338.444 156.602 336.858 156.079C335.272 155.556 335.257 154.68 335.257 154.68L334.265 156.046L332.581 156.146C332.581 156.146 334.116 151.889 331.799 150.153C329.481 148.417 334.204 136.374 346.383 140.384C346.383 140.384 355.739 142.812 355.397 147.824C355.054 152.835 353.696 158.543 351.601 161.04Z" fill="#3A3F47"/>
<path d="M334.835 172.041C334.835 172.041 334.879 169.677 336.017 169.449C337.154 169.222 348.577 168.188 349.974 168.704V171.458C349.974 171.458 347.282 173.02 334.835 172.041Z" fill="#E2D2CA"/>
<path d="M335.511 152.861C335.727 152.02 337.994 149.619 338.862 152.19C339.731 154.762 337.55 158.224 336.332 157.925C335.115 157.626 334.971 154.992 335.511 152.861Z" fill="#EEA886"/>
<path d="M289.503 199.982C289.509 199.98 289.515 199.98 289.521 199.982C289.442 200.013 289.431 200.016 289.503 199.982Z" fill="#323657"/>
<path d="M368.988 260.351C363.611 261.678 358.131 262.599 352.598 263.104C342.266 264.177 316.451 262.717 316.29 261.567C316.128 260.418 321.843 218.754 321.518 216.609C321.192 214.463 321.018 206.819 321.018 206.819C320.891 208.913 318.625 217.47 315.89 222.134C314.902 223.819 311.587 229.101 309.988 227.897C302.255 222.08 290.279 200.162 289.52 199.978C290.159 199.716 295.195 197.532 295.903 197.31C296.522 197.116 302.101 202.68 305.481 206.129C306.989 207.667 308.059 208.784 308.059 208.784C309.035 206.715 312.593 193.682 313.695 189.172C316.187 178.999 315.804 178.576 315.804 178.576C323.361 176.422 334.835 172.039 334.835 172.039L349.973 171.458C349.973 171.458 363.864 174.338 369.338 176.666C369.857 176.887 369.859 188.342 371.281 191.345L366.747 200.362C366.747 200.362 364.127 218.22 363.58 226.162C363.334 229.809 368.988 260.351 368.988 260.351Z" fill="#FFC507"/>
<path d="M371.913 206.219C371.518 207.421 369.723 208.437 368.557 208.881C367.789 209.174 366.948 209.254 366.134 209.111L365.541 209.007L355.167 207.195C355.167 207.195 352.897 182.57 369.339 176.671C369.774 176.803 375.544 195.193 371.913 206.219Z" fill="#FFC507"/>
<path d="M368.556 208.879C367.788 209.173 366.947 209.252 366.133 209.109L365.54 209.006L366.563 196.423L368.556 208.879Z" fill="#AB9546"/>
<path d="M308.059 208.787L306.791 213.845C306.791 213.845 305.415 208.77 305.481 206.132C306.989 207.669 308.059 208.787 308.059 208.787Z" fill="#AB9546"/>
<path d="M351.216 142.334C351.216 142.334 364.164 140.807 351.437 161.181L351.216 142.334Z" fill="#3A3F47"/>
<path d="M285.164 173.46L283.847 171.33L294.211 167.961L295.527 170.079L285.164 173.46Z" fill="#292C47"/>
<g opacity="0.95">
<path d="M482.887 82.1869H490.228L487.98 77.7952H480.639L482.887 82.1869Z" fill="url(#paint12_linear_230_1082)"/>
<path d="M479.45 82.1869H481.2L478.952 77.7952H477.205L479.45 82.1869Z" fill="url(#paint13_linear_230_1082)"/>
<path d="M454.074 76.9565H483.812L482.826 74.7606H453.087L454.074 76.9565Z" fill="url(#paint14_linear_230_1082)"/>
</g>
<path d="M284.353 3.35852H293.157C293.661 3.35852 294.143 3.54694 294.5 3.88234C294.856 4.21773 295.056 4.67262 295.056 5.14694C295.056 5.38171 295.007 5.61419 294.911 5.83108C294.816 6.04798 294.676 6.24506 294.5 6.41107C294.323 6.57708 294.114 6.70876 293.884 6.79861C293.654 6.88845 293.407 6.93469 293.158 6.93469H284.353C283.849 6.93469 283.366 6.74636 283.01 6.41111C282.654 6.07586 282.454 5.62115 282.454 5.14694C282.454 4.67262 282.654 4.21773 283.01 3.88234C283.366 3.54694 283.849 3.35852 284.353 3.35852Z" fill="url(#paint15_linear_230_1082)"/>
<path d="M293.157 11.9365H284.353C283.304 11.9365 282.454 12.7372 282.454 13.7249V13.7256C282.454 14.7133 283.304 15.514 284.353 15.514H293.157C294.206 15.514 295.056 14.7133 295.056 13.7256V13.7249C295.056 12.7372 294.206 11.9365 293.157 11.9365Z" fill="url(#paint16_linear_230_1082)"/>
<path d="M284.353 20.5146H293.157C293.661 20.5146 294.143 20.7031 294.5 21.0385C294.856 21.3739 295.056 21.8288 295.056 22.3031C295.056 22.7774 294.856 23.2323 294.5 23.5677C294.143 23.9031 293.661 24.0915 293.157 24.0915H284.353C283.849 24.0915 283.366 23.9032 283.01 23.5679C282.654 23.2327 282.454 22.778 282.454 22.3037C282.454 21.8293 282.654 21.3742 283.01 21.0387C283.366 20.7031 283.85 20.5146 284.353 20.5146Z" fill="url(#paint17_linear_230_1082)"/>
<path d="M302.052 3.35852C302.527 3.35852 302.983 3.53644 303.32 3.85315C303.656 4.16985 303.845 4.5994 303.845 5.04729V5.25067C303.845 5.69838 303.656 6.12775 303.32 6.44433C302.984 6.76091 302.528 6.93876 302.053 6.93876C301.817 6.93894 301.584 6.89531 301.366 6.81039C301.148 6.72547 300.95 6.60091 300.784 6.44385C300.617 6.28679 300.485 6.10032 300.395 5.89511C300.305 5.6899 300.259 5.46998 300.259 5.24796V5.04457C300.26 4.59716 300.449 4.16831 300.785 3.85219C301.121 3.53607 301.577 3.35852 302.052 3.35852Z" fill="url(#paint18_linear_230_1082)"/>
<path d="M302.051 11.9365C302.287 11.9364 302.52 11.9801 302.738 12.0649C302.955 12.1497 303.153 12.2741 303.319 12.4309C303.486 12.5877 303.618 12.7739 303.708 12.9789C303.798 13.1838 303.845 13.4035 303.845 13.6253V13.8246C303.845 14.0465 303.799 14.2662 303.708 14.4712C303.618 14.6762 303.486 14.8625 303.32 15.0194C303.153 15.1763 302.955 15.3008 302.738 15.3856C302.52 15.4705 302.287 15.5141 302.051 15.514C301.816 15.514 301.583 15.4704 301.365 15.3855C301.148 15.3006 300.95 15.1762 300.784 15.0194C300.617 14.8626 300.485 14.6764 300.395 14.4715C300.305 14.2666 300.259 14.047 300.259 13.8253V13.6219C300.26 13.1747 300.449 12.746 300.785 12.43C301.121 12.114 301.576 11.9365 302.051 11.9365Z" fill="url(#paint19_linear_230_1082)"/>
<path d="M302.052 20.5146C302.527 20.5146 302.983 20.6925 303.319 21.0091C303.655 21.3257 303.844 21.755 303.844 22.2027V22.4061C303.844 22.8538 303.655 23.2832 303.319 23.5998C302.983 23.9164 302.527 24.0942 302.052 24.0942C301.816 24.0943 301.583 24.0506 301.365 23.9657C301.148 23.8808 300.95 23.7563 300.784 23.5993C300.617 23.4423 300.485 23.256 300.395 23.0509C300.305 22.8458 300.259 22.626 300.259 22.4041V22.2007C300.26 21.7533 300.449 21.3244 300.785 21.0083C301.121 20.6922 301.577 20.5146 302.052 20.5146Z" fill="url(#paint20_linear_230_1082)"/>
<path d="M254.368 200.125H267.551L263.517 192.241H250.334L254.368 200.125Z" fill="url(#paint21_linear_230_1082)"/>
<path d="M248.199 200.125H251.341L247.306 192.241H244.165L248.199 200.125Z" fill="url(#paint22_linear_230_1082)"/>
</g>
<defs>
<linearGradient id="paint0_linear_230_1082" x1="258.835" y1="270.679" x2="249.938" y2="99.2036" gradientUnits="userSpaceOnUse">
<stop stop-color="#D1D7E0"/>
<stop offset="1" stop-color="#EBEBFF"/>
</linearGradient>
<linearGradient id="paint1_linear_230_1082" x1="423.055" y1="318.424" x2="423.055" y2="142.04" gradientUnits="userSpaceOnUse">
<stop stop-color="#D1D7E0"/>
<stop offset="1" stop-color="#EBEBFF"/>
</linearGradient>
<linearGradient id="paint2_linear_230_1082" x1="0" y1="369.358" x2="482.782" y2="369.358" gradientUnits="userSpaceOnUse">
<stop stop-color="#7792C4"/>
<stop offset="1" stop-color="#EDEDED"/>
</linearGradient>
<linearGradient id="paint3_linear_230_1082" x1="249.71" y1="209.477" x2="249.71" y2="80.4511" gradientUnits="userSpaceOnUse">
<stop stop-color="#D1D7E0"/>
<stop offset="1" stop-color="#EBEBFF"/>
</linearGradient>
<linearGradient id="paint4_linear_230_1082" x1="-997.018" y1="283.322" x2="-965.982" y2="283.322" gradientUnits="userSpaceOnUse">
<stop stop-color="#3076A1"/>
<stop offset="1" stop-color="#48C9B6"/>
</linearGradient>
<linearGradient id="paint5_linear_230_1082" x1="-973.015" y1="274.111" x2="-916.588" y2="274.111" gradientUnits="userSpaceOnUse">
<stop stop-color="#3076A1"/>
<stop offset="1" stop-color="#48C9B6"/>
</linearGradient>
<linearGradient id="paint6_linear_230_1082" x1="-968.165" y1="283.085" x2="-925.813" y2="283.085" gradientUnits="userSpaceOnUse">
<stop stop-color="#3076A1"/>
<stop offset="1" stop-color="#48C9B6"/>
</linearGradient>
<linearGradient id="paint7_linear_230_1082" x1="-1019.4" y1="196.184" x2="-955.799" y2="196.184" gradientUnits="userSpaceOnUse">
<stop stop-color="#3076A1"/>
<stop offset="1" stop-color="#48C9B6"/>
</linearGradient>
<linearGradient id="paint8_linear_230_1082" x1="93.8102" y1="339.993" x2="23.656" y2="307.892" gradientUnits="userSpaceOnUse">
<stop stop-color="#3076A1"/>
<stop offset="1" stop-color="#48C9B6"/>
</linearGradient>
<linearGradient id="paint9_linear_230_1082" x1="65.1954" y1="408.376" x2="78.5131" y2="332.306" gradientUnits="userSpaceOnUse">
<stop stop-color="#C9C4C1"/>
<stop offset="1" stop-color="#FFF6DE"/>
</linearGradient>
<linearGradient id="paint10_linear_230_1082" x1="56.8206" y1="349.726" x2="102.336" y2="349.726" gradientUnits="userSpaceOnUse">
<stop stop-color="#C9C4C1"/>
<stop offset="1" stop-color="#FFF6DE"/>
</linearGradient>
<linearGradient id="paint11_linear_230_1082" x1="373.803" y1="100.429" x2="373.803" y2="27.7768" gradientUnits="userSpaceOnUse">
<stop stop-color="#D1D7E0"/>
<stop offset="1" stop-color="#EBEBFF"/>
</linearGradient>
<linearGradient id="paint12_linear_230_1082" x1="480.639" y1="79.991" x2="490.228" y2="79.991" gradientUnits="userSpaceOnUse">
<stop stop-color="#D1D7E0"/>
<stop offset="1" stop-color="#EBEBFF"/>
</linearGradient>
<linearGradient id="paint13_linear_230_1082" x1="477.205" y1="79.991" x2="481.2" y2="79.991" gradientUnits="userSpaceOnUse">
<stop stop-color="#D1D7E0"/>
<stop offset="1" stop-color="#EBEBFF"/>
</linearGradient>
<linearGradient id="paint14_linear_230_1082" x1="453.087" y1="75.8586" x2="483.812" y2="75.8586" gradientUnits="userSpaceOnUse">
<stop stop-color="#D1D7E0"/>
<stop offset="1" stop-color="#EBEBFF"/>
</linearGradient>
<linearGradient id="paint15_linear_230_1082" x1="282.454" y1="5.14661" x2="295.056" y2="5.14661" gradientUnits="userSpaceOnUse">
<stop stop-color="#D1D7E0"/>
<stop offset="1" stop-color="#EBEBFF"/>
</linearGradient>
<linearGradient id="paint16_linear_230_1082" x1="282.454" y1="13.7253" x2="295.056" y2="13.7253" gradientUnits="userSpaceOnUse">
<stop stop-color="#D1D7E0"/>
<stop offset="1" stop-color="#EBEBFF"/>
</linearGradient>
<linearGradient id="paint17_linear_230_1082" x1="282.454" y1="22.3031" x2="295.056" y2="22.3031" gradientUnits="userSpaceOnUse">
<stop stop-color="#D1D7E0"/>
<stop offset="1" stop-color="#EBEBFF"/>
</linearGradient>
<linearGradient id="paint18_linear_230_1082" x1="300.259" y1="5.14864" x2="303.845" y2="5.14864" gradientUnits="userSpaceOnUse">
<stop stop-color="#D1D7E0"/>
<stop offset="1" stop-color="#EBEBFF"/>
</linearGradient>
<linearGradient id="paint19_linear_230_1082" x1="300.259" y1="13.7253" x2="303.845" y2="13.7253" gradientUnits="userSpaceOnUse">
<stop stop-color="#D1D7E0"/>
<stop offset="1" stop-color="#EBEBFF"/>
</linearGradient>
<linearGradient id="paint20_linear_230_1082" x1="300.259" y1="22.3044" x2="303.844" y2="22.3044" gradientUnits="userSpaceOnUse">
<stop stop-color="#D1D7E0"/>
<stop offset="1" stop-color="#EBEBFF"/>
</linearGradient>
<linearGradient id="paint21_linear_230_1082" x1="250.334" y1="196.183" x2="267.551" y2="196.183" gradientUnits="userSpaceOnUse">
<stop stop-color="#D1D7E0"/>
<stop offset="1" stop-color="#EBEBFF"/>
</linearGradient>
<linearGradient id="paint22_linear_230_1082" x1="244.165" y1="196.183" x2="251.341" y2="196.183" gradientUnits="userSpaceOnUse">
<stop stop-color="#D1D7E0"/>
<stop offset="1" stop-color="#EBEBFF"/>
</linearGradient>
<clipPath id="clip0_230_1082">
<rect width="511" height="380" fill="white"/>
</clipPath>
</defs>
</svg>