<svg width="394" height="289" viewBox="0 0 394 289" fill="none" xmlns="http://www.w3.org/2000/svg">
<path d="M88.8559 41.0551C101.133 41.7708 106.27 34.4725 112.038 25.0909C127.83 -0.591702 163.001 1.88329 174.799 17.6982C183.155 28.9 201.176 26.5955 215.752 22.2112C230.1 17.8968 254.545 13.7508 274.015 18.9076C291.021 23.4117 297.999 39.6594 313.5 38.6596C347.318 36.4791 364.367 65.5688 358.242 78.2553C354.244 86.5356 352.26 95.7987 355.509 104.319C359.09 113.704 367.266 121.133 373.876 129.2C380.485 137.267 385.808 147.352 382.523 156.816C379.711 164.915 371.325 170.518 366.118 177.68C349.952 199.92 365.944 234.002 344.402 252.539C328.983 265.808 303.842 262.745 282.267 265.277C264.273 267.389 247.341 273.973 229.431 276.554C193.16 281.777 156.53 270.27 119.757 269.947C106.804 269.834 93.6096 271.091 81.0642 268.306C64.3264 264.592 50.0825 253.372 44.2747 239.326C36.2622 219.941 43.855 197.506 34.8019 178.468C27.4268 162.958 9.39205 150.338 10.527 133.599C11.2329 123.18 19.4041 114.463 25.0232 105.22C33.3776 91.4822 22.3194 37.1755 88.8559 41.0551ZM195.892 15.8929C192.665 15.8929 190.049 17.6393 190.049 19.7931C190.049 21.9469 192.671 23.5076 195.892 23.6932C206.385 24.2972 206.385 20.6012 206.385 18.4474C206.384 15.0061 199.118 15.8929 195.892 15.8929ZM302.454 32.5235C305.26 34.5423 308.836 35.7511 312.485 35.9141C313.458 35.9572 314.52 35.9038 315.271 35.3662C316.202 34.7005 316.301 33.3411 315.477 32.5796C314.959 32.1002 314.203 31.8852 313.499 31.6366C312.3 31.212 311.124 30.6039 310.444 29.6513C310.247 29.3746 310.077 29.0575 309.75 28.8973C307.719 27.9015 298.763 29.867 302.454 32.5235ZM320.328 35.9688C321.252 36.2469 322.264 35.9908 323.194 35.7278C323.79 35.5593 324.521 35.1875 324.361 34.6642C324.284 34.4122 324.012 34.2444 323.746 34.1212C322.522 33.5507 320.936 33.1302 319.706 33.8602C318.476 34.5889 319.404 35.6908 320.328 35.9688ZM363.002 109.428C363.162 110.64 364.021 111.689 364.853 112.677C366.456 114.582 368.084 116.512 370.202 117.998C371.097 118.627 372.139 119.19 373.293 119.225C374.344 119.256 375.35 118.842 376.202 118.31C378.279 117.013 379.68 114.942 379.967 112.744C380.36 109.729 378.75 106.794 376.878 104.226C375.717 102.635 374.366 101.049 372.426 100.197C369.172 98.7668 367.023 100.015 366.114 102.525C365.277 104.834 362.664 106.855 363.002 109.428ZM16.8638 179.627C15.1503 180.942 16.6956 184.79 17.2017 187.33C17.3534 188.091 17.5554 188.879 18.108 189.487C18.8626 190.32 20.1162 190.661 21.2921 190.957C23.3773 191.485 25.9051 191.931 27.4976 190.656C28.6789 189.709 28.8463 188.164 28.844 186.773C28.8424 185.502 28.763 184.231 28.6082 182.966C28.5335 182.36 28.4337 181.733 28.0603 181.215C27.584 180.551 26.7344 180.165 25.9028 179.859C22.9207 178.759 18.5772 178.312 16.8638 179.627ZM121.574 276.029C120.56 276.207 119.35 276.587 119.203 277.47C119.082 278.2 119.788 278.824 120.47 279.266C126.062 282.901 133.586 283.133 140.586 283.219C141.403 283.229 142.249 283.233 143.001 282.958C144.498 282.408 145.217 280.689 144.52 279.421C144.265 278.958 143.863 278.568 143.44 278.209C137.817 273.44 128.572 274.805 121.574 276.029ZM261.213 273.57C254.902 277.592 261.285 281.182 269.254 278.519C273.549 277.083 277.667 275.666 282.063 274.705C283.484 274.395 292.074 272.777 292.075 271.096C292.078 266.639 282.397 267.691 276.307 268.433C271.4 269.032 266.416 270.253 261.213 273.57Z" fill="#ECF3FF"/>
<path d="M142.613 261.951C159.389 261.951 172.989 260.843 172.989 259.478C172.989 258.112 159.389 257.005 142.613 257.005C125.836 257.005 112.236 258.112 112.236 259.478C112.236 260.843 125.836 261.951 142.613 261.951Z" fill="#C8DBFB"/>
<path d="M298.674 261.951C315.45 261.951 329.05 260.843 329.05 259.478C329.05 258.112 315.45 257.005 298.674 257.005C281.898 257.005 268.298 258.112 268.298 259.478C268.298 260.843 281.898 261.951 298.674 261.951Z" fill="#C8DBFB"/>
<path d="M362.855 85.379C362.77 84.9188 362.675 84.4689 362.575 84.0312" stroke="#C8DBFB" stroke-linecap="round" stroke-linejoin="round"/>
<path d="M361.826 81.3741C356.406 65.2948 339.128 66.846 323.511 66.8741C306.7 66.9042 46.4384 67.3726 46.4384 67.3726C20.2843 67.4199 22.8152 100.318 43.2944 100.281C55.0687 100.26 59.5458 119.523 39.1876 119.56C26.9739 119.582 26.5833 133.071 34.7946 135.773" stroke="#C8DBFB" stroke-linecap="round" stroke-linejoin="round" stroke-dasharray="3.99 3.99"/>
<path d="M36.3044 136.129C36.8028 136.204 37.3262 136.243 37.8741 136.242" stroke="#C8DBFB" stroke-linecap="round" stroke-linejoin="round"/>
<path d="M37.3745 139.45C39.4534 139.45 41.1387 137.982 41.1387 136.17C41.1387 134.359 39.4534 132.891 37.3745 132.891C35.2956 132.891 33.6104 134.359 33.6104 136.17C33.6104 137.982 35.2956 139.45 37.3745 139.45Z" fill="#5193F4"/>
<path d="M362.857 89.5454C364.936 89.5454 366.621 88.0771 366.621 86.2658C366.621 84.4544 364.936 82.9861 362.857 82.9861C360.778 82.9861 359.093 84.4544 359.093 86.2658C359.093 88.0771 360.778 89.5454 362.857 89.5454Z" fill="#5193F4"/>
<path d="M79.4538 111.662C78.9115 114.326 78.1176 116.929 77.1508 119.497C75.0679 125.037 72.1912 130.372 69.283 135.638C67.766 138.391 61.6116 144.76 58.3104 145.972C58.6956 138.789 58.727 130.399 57.7681 123.146C56.8485 116.161 59.7331 110.867 56.5891 104.389C56.1882 103.56 55.7716 102.731 55.3551 101.903C53.7909 98.8209 52.2425 95.7255 51.7552 92.404C51.1264 88.1923 52.6276 83.3916 56.8092 81.2001C59.8195 79.625 63.7417 79.7072 66.9564 80.9468C70.1712 82.1863 72.7492 84.4531 74.7064 86.9938C80.1848 94.0901 81.1751 103.253 79.4538 111.662Z" fill="#5E82B5"/>
<path d="M64.8341 88.3956C70.9893 95.9672 71.523 104.79 72.0559 114.057C72.5896 123.324 70.0335 132.711 64.7783 140.781" stroke="#0B43A4" stroke-miterlimit="10" stroke-linecap="round" stroke-linejoin="round"/>
<path d="M64.5771 228.089C60.2636 224.766 55.8989 221.395 52.7117 217.218C49.9355 213.58 48.1434 209.45 45.7218 205.624C44.1545 203.15 42.3042 200.765 41.3964 198.051C40.4886 195.337 40.7063 192.123 42.9197 190.056C45.2282 187.9 49.199 187.569 52.3336 188.679C55.4682 189.79 57.8647 192.088 59.6945 194.568C62.1248 197.862 63.7479 201.604 64.4254 205.476C65.0385 208.984 64.8821 212.568 65.507 216.075C66.0894 219.342 67.3501 222.48 68.9386 225.471C70.3794 228.187 74.0296 233.026 74.961 235.809C72.3805 236.934 66.4156 229.504 64.5771 228.089Z" fill="#00AD9F"/>
<path d="M49.4946 193.644C53.596 195.209 55.2269 199.47 56.0829 203.3C57.0567 207.658 56.8406 212.377 59.1341 216.341C63.454 223.81 69.077 232.312 73.2562 234.852" stroke="#00AD9F" stroke-miterlimit="10" stroke-linecap="round" stroke-linejoin="round"/>
<path d="M43.3473 217.87C39.7679 216.639 34.9874 216.132 32.6923 218.825C30.7705 221.079 31.7656 224.273 33.0931 226.831C34.214 228.99 35.6374 231.186 38.0009 232.361C39.6154 233.163 41.5065 233.404 43.352 233.596C48.4987 234.129 53.6832 234.39 58.8661 234.378C64.8735 234.363 72.1503 236.501 77.1209 239.765C70.7425 229.433 55.3951 222.016 43.3473 217.87Z" fill="#3A5796"/>
<path d="M37.0671 224.585C41.6236 224.755 46.2217 225.033 50.595 226.161C55.0673 227.313 72.2713 234.192 74.9602 237.12" stroke="#0B43A4" stroke-miterlimit="10" stroke-linecap="round" stroke-linejoin="round"/>
<path d="M82.3933 196.672C77.7355 190.316 69.7639 185.879 61.1831 184.874C54.8479 184.133 48.3289 185.166 42.0762 184.017C35.5076 182.817 29.5812 179.129 26.1503 174.096C22.7194 169.064 21.8265 162.773 23.7546 157.165C25.2236 152.904 28.579 148.867 33.4373 147.5C36.0838 146.759 38.9802 146.859 41.684 147.428C44.1796 147.952 46.5006 148.86 48.637 150.046C53.5282 152.743 57.4771 156.897 60.4482 161.304C63.1442 165.311 69.7977 171.551 74.3211 175.609C76.9754 177.981 78.9035 179.602 78.9035 179.602C82.0098 182.962 80.5572 192.664 82.3933 196.672Z" fill="#52D2BC"/>
<path d="M32.0256 159.82C47.2481 165.809 63.8539 173.656 74.6496 184.761" stroke="#00AD9F" stroke-miterlimit="10" stroke-linecap="round" stroke-linejoin="round"/>
<path opacity="0.2" d="M76.1086 183.268C76.1086 183.268 53.4215 167.245 48.6379 150.045C53.5292 152.742 57.4781 156.896 60.4492 161.302C63.1451 165.311 69.7986 171.55 74.3221 175.608C74.8565 177.762 75.4492 180.285 76.1086 183.268Z" fill="#5275A0"/>
<path opacity="0.2" d="M77.1508 119.497C75.0679 125.037 72.1911 130.372 69.2829 135.638C67.7659 138.391 61.6115 144.76 58.3103 145.972C58.6955 138.788 58.7269 130.399 57.768 123.146C56.8484 116.161 59.733 110.867 56.589 104.389C56.1881 103.56 55.7716 102.731 55.355 101.903C55.6458 101.985 55.9288 102.074 56.2039 102.177C61.3757 104.108 63.7652 108.874 64.2053 113.504C64.5748 117.325 63.7809 121.153 63.1914 124.954C62.9163 126.707 62.6962 128.502 63.1285 130.22C63.1364 130.241 63.1442 130.255 63.1442 130.275C63.6866 132.323 67.1214 132.206 67.5616 130.131L68.9371 123.769C69.3458 121.866 69.7938 119.873 71.5859 118.544C72.2933 118.017 73.205 117.688 74.1325 117.715C75.6102 117.764 76.5377 118.518 77.1508 119.497Z" fill="#5275A0"/>
<path d="M76.1117 179.25C72.5284 162.945 70.6435 160.433 72.2202 156.346C74.2285 151.137 73.0998 145.9 74.9948 140.659C76.8899 135.418 78.1797 129.781 76.6509 124.451C76.1675 122.765 75.1882 120.927 72.864 120.857C71.9318 120.829 71.024 121.157 70.3142 121.684C68.5229 123.014 68.071 125.006 67.6614 126.909L66.293 133.273C65.8481 135.342 62.4165 135.464 61.8733 133.412C61.8686 133.395 61.8639 133.378 61.86 133.36C61.4206 131.638 61.647 129.845 61.9174 128.096C62.5061 124.292 63.2991 120.465 62.936 116.64C62.4966 112.011 60.1056 107.244 54.9306 105.317C53.0961 104.634 51.0258 104.479 49.093 104.911C43.6916 106.119 42.2941 110.718 43.0856 114.645C43.6429 117.409 45.1315 119.95 46.4772 122.499C49.7627 128.725 47.3528 134.436 47.8071 141.277C49.0631 160.157 76.1117 179.25 76.1117 179.25Z" fill="#7EE8D4"/>
<path d="M52.0129 109.846C54.6783 121.447 57.3727 133.132 62.5453 144.072C64.0623 147.281 64.8043 151.502 73.5823 160.23" stroke="#00AD9F" stroke-miterlimit="10" stroke-linecap="round" stroke-linejoin="round"/>
<path d="M155.955 112.82C153.196 110.073 150.65 107.279 147.969 104.588C146.232 102.841 144.44 101.136 142.491 99.52C141.524 98.7119 140.526 97.9312 139.473 97.1711C133.248 92.6922 126.299 88.9736 118.872 86.2069C114.392 84.5359 109.66 83.1594 105.856 80.4953C102.051 77.8382 99.316 73.469 100.582 69.3668C101.501 66.4083 104.386 64.1073 107.695 63.0526C110.996 62.0048 114.659 62.087 118.094 62.7308C127.683 64.5319 135.692 70.5379 141.139 77.6396C141.233 77.7629 141.336 77.893 141.43 78.0231C145.423 83.3306 148.213 89.2338 150.642 95.2467C151.42 97.1779 152.159 99.1228 152.89 101.061C153.99 103.958 157.37 109.95 155.955 112.82Z" fill="#5E82B5"/>
<path d="M112.091 69.7045C122.552 71.4426 129.957 77.478 137.716 83.834C145.475 90.1899 151.102 98.4976 153.738 107.488" stroke="#0B43A4" stroke-miterlimit="10" stroke-linecap="round" stroke-linejoin="round"/>
<path opacity="0.2" d="M147.969 104.588C147.883 105.533 147.914 106.478 148.119 107.437C145.501 106.916 143.686 103.376 142.491 99.52C141.32 95.774 140.738 91.7198 140.557 89.8502C140.204 85.9055 140.495 81.9061 141.43 78.0231C145.423 83.3305 148.213 89.2338 150.642 95.2466C149.809 97.4039 149.093 99.5885 148.504 101.794C148.252 102.732 148.056 103.656 147.969 104.588Z" fill="#5275A0"/>
<path d="M166.124 71.6816C165.239 75.0996 162.868 78.0526 160.782 81.0487C159.68 82.6273 158.653 84.249 157.693 85.8926C154.621 91.1507 152.276 96.7362 150.732 102.482C150.223 104.365 149.939 106.213 150.348 108.126C145.189 107.1 143.136 94.329 142.785 90.5337C142.167 83.6977 143.503 76.6939 146.733 70.4311C148.143 67.6821 149.963 64.9839 152.768 63.2239C155.564 61.4638 159.529 60.8454 162.492 62.3801C164.278 63.304 165.423 64.838 165.981 66.5837C166.524 68.2129 166.549 70.0311 166.124 71.6816Z" fill="#52D2BC"/>
<path d="M148.37 104.356C145.163 97.3389 147.112 82.4856 152.256 73.1499C153.806 70.3373 156.013 67.7 159.106 66.1283" stroke="#00AD9F" stroke-miterlimit="10" stroke-linecap="round" stroke-linejoin="round"/>
<path opacity="0.2" d="M166.124 71.6816C165.239 75.0996 162.868 78.0526 160.782 81.0488C159.68 82.6273 158.654 84.249 157.693 85.8926C156.283 83.8271 155.322 81.5432 155.056 79.1579C154.622 75.1797 156.366 70.918 160.081 68.5759C161.817 67.4849 163.854 66.8665 165.982 66.583C166.525 68.2129 166.549 70.0311 166.124 71.6816Z" fill="#5275A0"/>
<path d="M195.872 101.405C195.63 102.715 195.18 103.973 194.537 105.187C192.25 109.5 187.45 113.202 180.255 116.213C180.255 116.213 179.855 109.391 179.771 107.566C179.42 99.7468 169.68 95.42 163.519 89.7181C160.38 86.8089 158.001 83.1362 157.559 79.158C157.125 75.1798 158.869 70.918 162.584 68.5759C165.697 66.62 169.771 66.1906 173.602 66.4454C179.779 66.8741 186.014 69.1286 189.854 73.3328C190.02 73.493 190.163 73.6601 190.304 73.8272C192.658 76.6275 193.869 80.038 194.754 83.4347C196.29 89.3182 196.983 95.4419 195.872 101.405Z" fill="#00AD9F"/>
<path d="M165.231 72.7712C171.972 75.8092 178.726 79.4819 182.652 85.1414C188.13 93.0362 186.936 103.309 182.711 111.768" stroke="#00AD9F" stroke-miterlimit="10" stroke-linecap="round" stroke-linejoin="round"/>
<path d="M308.662 151.845C312.959 145.681 310.765 137.753 312.259 130.66C313.409 125.208 316.893 120.153 321.873 116.704C325 114.539 329.391 112.994 332.925 114.616C333.691 114.968 334.601 115.462 335.337 115.067C335.777 114.831 335.953 114.356 336.057 113.915C336.953 110.084 334.839 105.9 336.565 102.292C337.496 100.349 339.419 98.8976 341.457 97.7662C345.385 95.5843 349.982 94.3277 354.637 94.1633C355.873 94.1195 357.159 94.1613 358.265 94.6441C360.262 95.5165 361.175 97.6834 360.907 99.6166C360.639 101.55 359.416 103.279 358.058 104.825C353.545 109.967 346.933 114.403 346.06 120.831C345.949 121.642 345.949 122.502 346.377 123.228C346.79 123.93 347.561 124.432 347.995 125.125C349.385 127.351 346.7 129.875 344.077 130.969C341.682 131.968 339.083 132.595 336.44 132.811C334.62 132.959 332.562 132.997 331.324 134.169C329.039 136.331 331.665 139.789 331.184 142.698C330.885 144.514 329.373 145.981 327.857 147.252C325.038 149.613 321.952 151.733 318.661 153.571C315.992 155.062 313.167 156.378 310.8 158.215C308.434 160.053 306.521 162.539 306.366 165.299" fill="#52D2BC"/>
<path d="M314.325 145.85C315.028 142.863 316.623 140.1 318.202 137.378C320.67 133.126 323.186 128.81 326.913 125.323C329.744 122.674 333.194 120.579 336.071 117.97C338.122 116.111 339.871 113.998 341.244 111.712C341.989 110.473 342.634 109.171 343.639 108.081C344.832 106.786 346.463 105.864 347.881 104.756C349.798 103.26 351.342 101.403 352.379 99.351" stroke="#00AD9F" stroke-miterlimit="10" stroke-linecap="round" stroke-linejoin="round"/>
<path d="M370.368 156.122C369.401 159.368 367.961 162.58 365.495 165.155C363.789 166.928 361.667 168.333 359.348 169.477C358.153 170.072 356.896 170.592 355.631 171.06C350.709 172.86 345.421 173.88 340.091 174.059C332.326 174.313 324.34 172.818 316.888 174.75C313.468 175.635 310.318 177.245 307.732 179.373C306.112 180.696 304.721 182.222 303.622 183.901L304.636 178.284C306.514 172.244 308.43 166.095 312.268 160.801C314.742 157.37 317.957 154.384 321.377 151.637C326.84 147.241 332.9 143.372 339.589 140.543C344.997 138.256 351.002 136.646 356.975 137.283C362.941 137.913 368.805 141.2 370.667 146.179C371.861 149.376 371.343 152.869 370.368 156.122Z" fill="#5E82B5"/>
<path d="M309.712 174.008C315.42 166.652 323.967 160.999 333.634 158.187C339.657 156.434 346.027 155.769 352.128 154.235C358.229 152.701 364.317 150.096 367.894 145.525" stroke="#0B43A4" stroke-miterlimit="10" stroke-linecap="round" stroke-linejoin="round"/>
<path d="M313.473 227.953C313.814 220.401 318.295 213.427 323.737 207.54C328.275 202.631 333.753 198.138 340.518 195.901C342.637 195.2 344.964 194.73 347.165 195.202C349.366 195.673 351.362 197.314 351.403 199.289C351.436 200.955 350.152 202.409 348.8 203.588C344.353 207.468 338.604 209.959 333.218 212.796C323.959 217.671 315.158 224.18 311.485 233.046" fill="#52D2BC"/>
<path d="M316.899 221.344C322.557 210.347 337.206 200.513 346.868 199.285" stroke="#00AD9F" stroke-miterlimit="10" stroke-linecap="round" stroke-linejoin="round"/>
<path d="M309.935 233.959C309.858 232.692 314.597 229.383 315.663 228.539C321.578 223.866 328.612 220.427 336.037 218.396C339.043 217.574 342.236 216.976 345.243 217.609C348.249 218.242 351.009 220.387 351.304 223.213C351.59 225.954 349.48 228.636 346.787 229.962C344.094 231.289 340.944 231.488 337.942 231.337C333.302 231.101 328.746 230.096 324.089 230.128C319.43 230.158 312.892 230.569 309.935 233.959Z" fill="#00AD9F"/>
<path d="M314.76 230.115C324.279 225.622 338.674 222.697 349.124 223.799" stroke="#00AD9F" stroke-miterlimit="10" stroke-linecap="round" stroke-linejoin="round"/>
<path opacity="0.2" d="M195.872 101.405C195.63 102.715 195.18 103.973 194.537 105.187C191.198 99.0202 188.26 90.9617 187.55 81.0707C187.358 78.3943 188.218 75.6379 189.854 73.332C190.02 73.4923 190.163 73.6594 190.304 73.8265C192.658 76.6268 193.869 80.0372 194.754 83.434C196.29 89.3181 196.983 95.4419 195.872 101.405Z" fill="#5275A0"/>
<path d="M228.799 101.06C235.908 98.8606 243.29 97.1061 249.752 93.7148C251.705 92.6896 253.59 91.4973 254.976 89.9194C256.363 88.3416 257.216 86.3288 256.906 84.3599C256.593 82.3582 255.121 80.44 255.616 78.4663C255.942 77.1651 257.063 76.1481 257.92 75.0448C259.958 72.4206 260.564 68.9902 259.528 65.953C258.413 62.6897 255.608 60.0792 254.009 56.9721C252.704 54.4348 252.238 51.5749 252.679 48.8212C246.717 48.891 241.274 51.729 235.41 52.6761C230.925 53.4007 226.259 53.0069 221.813 53.8972C213.707 55.5202 207.08 61.7365 205.818 68.9005C202.059 68.3376 198.011 69.5189 195.399 71.9419C192.62 74.5189 191.057 78.1786 191.309 81.7076C193.141 107.34 209.984 120.712 209.984 120.712C209.984 120.712 226.089 101.899 228.799 101.06Z" fill="#7EE8D4"/>
<path d="M212.9 100.881C212.162 94.5578 214.696 88.308 217.61 82.4801C220.449 76.8014 223.716 71.2344 228.101 66.3584C232.485 61.4824 238.058 57.3021 244.637 54.9518" stroke="#00AD9F" stroke-miterlimit="10" stroke-linecap="round" stroke-linejoin="round"/>
<path d="M219.226 58.8307C218.479 64.4676 219.002 71.2591 220.685 76.7405" stroke="#00AD9F" stroke-miterlimit="10" stroke-linecap="round" stroke-linejoin="round"/>
<path d="M221.897 74.7215C229.286 70.592 240.654 68.0841 249.419 68.5217" stroke="#00AD9F" stroke-miterlimit="10" stroke-linecap="round" stroke-linejoin="round"/>
<path d="M203.829 75.7755C212.723 79.0435 213.09 90.4405 213.328 93.6784" stroke="#00AD9F" stroke-miterlimit="10" stroke-linecap="round" stroke-linejoin="round"/>
<path d="M215.751 86.4315C222.558 82.178 232.394 80.8994 239.633 82.4855" stroke="#00AD9F" stroke-miterlimit="10" stroke-linecap="round" stroke-linejoin="round"/>
<path d="M234.321 55.9037C232.274 58.1034 231.765 60.7201 231.971 62.5301" stroke="#00AD9F" stroke-miterlimit="10" stroke-linecap="round" stroke-linejoin="round"/>
<path d="M233.909 60.9242C237.047 59.5238 241.242 59.2026 245.729 60.1833" stroke="#00AD9F" stroke-miterlimit="10" stroke-linecap="round" stroke-linejoin="round"/>
<path d="M58.8975 73.3204C59.7338 73.2821 65.4354 69.6018 67.6315 68.3622C68.2493 68.0129 68.8765 67.6472 69.308 67.1274C69.7395 66.6077 69.9408 65.8947 69.6271 65.3154C69.2373 64.5956 68.5904 63.8765 66.9587 63.8793C64.1181 63.8848 63.1316 64.6977 61.7506 65.9427C57.1824 70.0579 58.8975 73.3204 58.8975 73.3204Z" fill="#4A49CA"/>
<path d="M84.4612 88.1621C86.9434 89.1339 89.5962 90.103 92.2961 89.8023C93.3438 89.6859 94.4867 89.2709 94.8349 88.4032C95.1328 87.6615 94.7217 86.811 94.0473 86.2898C93.3721 85.7686 92.4816 85.5166 91.6052 85.3304C88.3001 84.6277 83.6611 85.0167 80.3882 85.8262C80.3882 85.8248 82.9796 87.5821 84.4612 88.1621Z" fill="#4A49CA"/>
<path d="M100.812 56.2119C99.7049 55.6024 98.4819 54.7874 98.4827 53.6465C98.4835 52.5021 99.8534 51.6303 101.167 51.6242C102.48 51.6187 103.699 52.2426 104.687 52.9973C108.864 56.1927 108.343 59.836 108.343 59.836C108.343 59.836 102.046 56.8906 100.812 56.2119Z" fill="#4A49CA"/>
<path d="M104.106 46.4653C103.134 46.1017 102.131 45.6627 101.561 44.8861C101.284 44.5081 101.127 44.0301 101.298 43.6068C101.584 42.8987 102.093 42.2632 104.141 42.5864C110.626 43.6116 112.038 47.4803 112.038 47.4803C112.038 47.4803 105.828 47.1098 104.106 46.4653Z" fill="#4A49CA"/>
<path d="M123.104 55.0237C125.706 54.8286 128.391 53.6993 130.031 51.929C130.65 51.2606 131.216 50.5237 131.423 49.6841C131.629 48.8445 131.41 47.8816 130.663 47.3207C129.752 46.6373 128.307 46.7468 127.305 47.3235C126.302 47.9001 125.658 48.8411 125.136 49.7841C124.44 51.0414 123.104 55.0237 123.104 55.0237Z" fill="#4A49CA"/>
<path d="M76.661 137.657C70.3627 132.82 64.0653 127.983 57.7671 123.146C54.4101 120.567 50.9839 117.914 48.8578 114.484C44.288 107.109 46.9226 97.5279 53.0943 91.1001C59.266 84.6722 68.3058 80.8762 77.3864 78.1143C86.4679 75.3516 95.9203 73.4136 104.577 69.7606C110.005 67.4692 115.464 64.056 116.953 58.9629C117.849 55.8989 117.096 52.5008 114.956 49.9477C112.815 47.3946 109.329 45.7367 105.707 45.5483" stroke="#0B43A4" stroke-miterlimit="10" stroke-linecap="round" stroke-linejoin="round"/>
<path d="M127.504 49.7635C125.784 54.3677 119.081 57.1687 116.021 61.1571" stroke="#0B43A4" stroke-miterlimit="10" stroke-linecap="round" stroke-linejoin="round"/>
<path d="M103.438 55.0586C104.757 56.2728 106.338 57.2768 107.49 58.6142C109.924 61.4412 110.126 66.0351 106.526 68.8847" stroke="#0B43A4" stroke-miterlimit="10" stroke-linecap="round" stroke-linejoin="round"/>
<path d="M69.5232 80.8337C75.0794 84.564 82.3837 87.0507 89.3925 87.2876" stroke="#0B43A4" stroke-miterlimit="10" stroke-linecap="round" stroke-linejoin="round"/>
<path d="M56.8034 87.6294C54.245 81.0564 57.0329 73.1821 63.3964 69.0067" stroke="#0B43A4" stroke-miterlimit="10" stroke-linecap="round" stroke-linejoin="round"/>
<path d="M259.917 59.8559C259.615 59.0423 259.631 58.0431 260.321 57.435C260.868 56.9529 261.786 56.7372 262.499 57.0097C268.024 59.1265 267.427 66.6371 267.427 66.6371C267.427 66.6371 262.185 65.9769 259.917 59.8559Z" fill="#4A49CA"/>
<path d="M259.783 73.923C256.209 79.551 268.912 79.1216 273.493 75.807C273.493 75.807 262.86 69.0785 259.783 73.923Z" fill="#4A49CA"/>
<path d="M275.845 60.2818C274.982 59.2518 274.677 57.7178 275.615 56.7398C276.315 56.0119 277.532 55.7872 278.603 55.9667C279.673 56.1461 281.276 57.009 281.96 57.7493C286.14 62.2808 284.175 66.7151 284.175 66.7151C284.175 66.7151 277.257 61.9692 275.845 60.2818Z" fill="#4A49CA"/>
<path d="M326.293 74.2182C325.983 73.3416 326.056 72.2719 326.839 71.6583C327.332 71.2707 328.034 71.1303 328.696 71.1741C329.36 71.2172 329.991 71.4275 330.596 71.6686C331.892 72.1849 332.901 73.0862 333.523 74.2024C335.094 77.0226 334.027 80.5125 334.027 80.5125C334.027 80.5125 327.063 76.4021 326.293 74.2182Z" fill="#4A49CA"/>
<path d="M310.424 84.5461C308.18 82.8272 304.739 82.3191 302.001 83.3648C301.305 83.6305 300.644 84.0065 300.199 84.5427C299.196 85.7521 299.547 87.5197 300.589 88.7045C301.629 89.8892 303.208 90.6097 304.768 91.2267C307.595 92.3444 311.982 92.5683 314.991 93.2374C314.991 93.2374 314.979 88.0313 310.424 84.5461Z" fill="#4A49CA"/>
<path d="M263.876 61.0632C265.745 66.3933 271.034 70.4153 276.924 72.591C282.813 74.7668 289.299 75.3407 295.682 75.7009C302.066 76.0604 308.525 76.2398 314.697 77.6999C320.713 79.123 326.704 82.0863 329.287 87.0301C332.429 93.047 329.646 100.243 325.236 105.621C320.824 110.999 314.882 115.334 310.614 120.799C308.654 123.309 307.017 126.247 307.414 129.263C307.943 133.284 311.829 136.244 315.443 138.788" stroke="#0B43A4" stroke-miterlimit="10" stroke-linecap="round" stroke-linejoin="round"/>
<path d="M278.59 59.108C282.82 63.1855 286.203 69.562 287.024 75.0113" stroke="#0B43A4" stroke-miterlimit="10" stroke-linecap="round" stroke-linejoin="round"/>
<path d="M264.366 74.8565C266.784 75.416 269.235 75.9789 271.738 75.9844C274.24 75.9899 277.139 74.7825 278.938 73.267" stroke="#0B43A4" stroke-miterlimit="10" stroke-linecap="round" stroke-linejoin="round"/>
<path d="M330.432 74.549C332.698 76.4555 334.076 79.1421 334.193 81.8849C334.311 84.6277 332.565 87.9518 330.469 90.0009" stroke="#0B43A4" stroke-miterlimit="10" stroke-linecap="round" stroke-linejoin="round"/>
<path d="M306.723 86.9972C311.248 90.6275 315.189 93.5627 320.221 96.6465C322.518 98.0538 327.078 99.8577 329.102 99.3934" stroke="#0B43A4" stroke-miterlimit="10" stroke-linecap="round" stroke-linejoin="round"/>
<path opacity="0.2" d="M359.348 169.477C358.153 170.072 356.896 170.592 355.631 171.06C350.709 172.86 345.421 173.88 340.091 174.059C332.326 174.313 324.34 172.818 316.888 174.751C313.468 175.635 310.318 177.245 307.732 179.373C307.472 179.483 307.213 179.606 306.953 179.737C306.333 175.155 319.445 169.184 323.428 167.627C330.62 164.819 338.639 163.573 346.499 164.121C349.941 164.362 353.471 164.951 356.307 166.654C357.525 167.387 358.594 168.366 359.348 169.477Z" fill="#5275A0"/>
<path d="M346.496 166.859C349.937 167.098 353.466 167.686 356.307 169.393C359.149 171.098 361.148 174.144 360.485 177.097C359.714 180.535 355.634 182.771 351.643 183.193C347.653 183.616 343.665 182.66 339.727 181.952C331.014 180.389 322.018 180.03 313.177 180.894C310.972 181.109 308.88 181.491 306.949 182.475C306.329 177.89 319.445 171.922 323.43 170.364C330.622 167.56 338.637 166.313 346.496 166.859Z" fill="#52D2BC"/>
<path d="M310.363 179.586C316.874 174.599 333.589 171.214 345.408 172.305C348.968 172.633 352.561 173.56 355.298 175.572" stroke="#00AD9F" stroke-miterlimit="10" stroke-linecap="round" stroke-linejoin="round"/>
<path d="M298.201 123.567L361.777 123.453C369.237 123.439 375.298 128.698 375.314 135.199C375.33 141.699 369.294 146.98 361.834 146.994L318.346 147.071" stroke="#0B43A4" stroke-miterlimit="10" stroke-linecap="round" stroke-linejoin="round" stroke-dasharray="4 4"/>
<path d="M105.832 164.24L61.3703 164.318C57.1597 164.327 53.7524 167.306 53.761 170.976C53.7696 174.646 57.1903 177.614 61.4017 177.606L74.3652 177.584" stroke="#0B43A4" stroke-miterlimit="10" stroke-linecap="round" stroke-linejoin="round" stroke-dasharray="4 4"/>
<path d="M34.8663 194.24C19.6352 194.267 19.3169 214.063 38.698 214.028C58.0792 213.993 312.326 213.536 324.316 213.515C336.305 213.493 337.57 197.195 322.749 197.222C293.254 197.275 292.275 185.019 308.65 184.989" stroke="#C8DBFB" stroke-miterlimit="10" stroke-linecap="round" stroke-linejoin="round" stroke-dasharray="4 4"/>
<path d="M34.72 197.52C36.7988 197.52 38.4841 196.052 38.4841 194.24C38.4841 192.429 36.7988 190.961 34.72 190.961C32.6411 190.961 30.9558 192.429 30.9558 194.24C30.9558 196.052 32.6411 197.52 34.72 197.52Z" fill="#5193F4"/>
<path d="M312.243 188.909C314.322 188.909 316.008 187.44 316.008 185.629C316.008 183.818 314.322 182.349 312.243 182.349C310.165 182.349 308.479 183.818 308.479 185.629C308.479 187.44 310.165 188.909 312.243 188.909Z" fill="#0B43A4"/>
<path opacity="0.2" d="M320.055 242.309L83.5559 242.735C80.4001 242.742 77.8378 240.517 77.8307 237.767L77.5068 101.257C77.5006 98.508 80.0527 96.2747 83.2085 96.2686L319.707 95.8433C322.862 95.8378 325.425 98.0614 325.432 100.811L325.754 237.321C325.762 240.071 323.209 242.304 320.055 242.309Z" fill="#5275A0"/>
<path d="M315.423 239.702L78.9238 240.127C75.768 240.132 73.2057 237.909 73.1986 235.159L72.8748 98.649C72.8685 95.9001 75.4206 93.6668 78.5764 93.6606L315.075 93.2354C318.232 93.2299 320.793 95.4535 320.8 98.2025L321.123 234.713C321.13 237.462 318.578 239.696 315.423 239.702Z" fill="white"/>
<path d="M314.691 93.2374L79.2028 93.6607C75.768 93.6668 72.9895 96.098 72.9966 99.0907L73.0076 103.802L320.933 103.357L320.921 98.6449C320.916 95.6522 318.126 93.2313 314.691 93.2374Z" fill="#3A5796"/>
<path d="M79.4874 240.127L115.068 240.062L114.745 103.728L72.9456 103.802L73.2552 234.726C73.2631 237.715 76.0534 240.134 79.4874 240.127Z" fill="#C8DBFB"/>
<path d="M315.146 94.6064C317.424 94.6064 319.283 96.2219 319.287 98.2072L319.611 234.717C319.613 235.68 319.185 236.587 318.404 237.271C317.624 237.955 316.584 238.332 315.478 238.333L78.9711 238.758C76.6925 238.758 74.8344 237.144 74.8297 235.158L74.5066 98.6476C74.5019 96.6581 76.3561 95.0358 78.6386 95.0316L315.134 94.6064H315.146ZM315.146 93.2367C315.142 93.2367 315.137 93.2367 315.133 93.2367L78.6347 93.662C75.4797 93.6675 72.9268 95.9014 72.9339 98.6503L73.2569 235.16C73.2632 237.907 75.8208 240.128 78.9703 240.128C78.9743 240.128 78.9782 240.128 78.9821 240.128L315.481 239.703C318.637 239.697 321.19 237.463 321.183 234.715L320.859 98.2052C320.852 95.4583 318.296 93.2367 315.146 93.2367Z" fill="#3A5796"/>
<path d="M109.067 229.706L81.6467 229.755C80.4371 229.756 79.4538 228.904 79.4522 227.851L79.4514 227.614C79.4491 226.56 80.4276 225.704 81.6373 225.701L109.058 225.651C110.267 225.65 111.25 226.502 111.252 227.556V227.793C111.256 228.847 110.278 229.703 109.067 229.706Z" fill="white"/>
<path d="M105.77 137.213L82.4255 137.255C80.209 137.259 78.4082 135.696 78.4035 133.765L78.354 113.425C78.3493 111.494 80.1429 109.925 82.3595 109.921L105.704 109.878C107.921 109.874 109.722 111.437 109.726 113.368L109.775 133.708C109.78 135.64 107.986 137.209 105.77 137.213Z" fill="white"/>
<path d="M205.71 198.143L124.376 198.29C122.796 198.293 121.512 197.179 121.509 195.802L121.509 195.494C121.505 194.117 122.783 192.999 124.363 192.995L205.697 192.849C207.278 192.847 208.562 193.961 208.564 195.337L208.564 195.646C208.568 197.022 207.29 198.14 205.71 198.143Z" fill="#C8DBFB"/>
<path d="M198.978 118.981L134.704 119.096C133.124 119.099 131.841 117.986 131.837 116.609L131.837 116.3C131.834 114.924 133.112 113.805 134.691 113.803L198.967 113.688C200.546 113.685 201.83 114.798 201.832 116.175L201.834 116.484C201.836 117.86 200.557 118.979 198.978 118.981Z" fill="#C8DBFB"/>
<path d="M302.615 174.039L216.918 174.193C215.338 174.196 214.055 173.083 214.052 171.705V171.396C214.048 170.02 215.326 168.901 216.907 168.899L302.602 168.745C304.184 168.742 305.467 169.855 305.469 171.233L305.47 171.541C305.474 172.918 304.195 174.036 302.615 174.039Z" fill="#C8DBFB"/>
<path d="M205.736 209.089L124.402 209.235C122.822 209.238 121.539 208.124 121.535 206.747L121.535 206.438C121.532 205.062 122.81 203.943 124.389 203.942L205.724 203.794C207.304 203.792 208.588 204.906 208.59 206.282L208.59 206.591C208.594 207.968 207.316 209.087 205.736 209.089Z" fill="#C8DBFB"/>
<path d="M205.761 220.035L124.427 220.181C122.847 220.184 121.563 219.071 121.561 217.694L121.56 217.385C121.557 216.008 122.835 214.889 124.415 214.887L205.749 214.741C207.33 214.739 208.613 215.851 208.616 217.23V217.538C208.62 218.914 207.342 220.032 205.761 220.035Z" fill="#C8DBFB"/>
<path d="M300.876 227.174L218.908 227.321C216.299 227.327 214.178 225.487 214.174 223.214L214.101 192.541C214.096 190.268 216.207 188.419 218.816 188.415L300.784 188.268C303.394 188.263 305.514 190.103 305.519 192.377L305.591 223.05C305.597 225.323 303.487 227.17 300.876 227.174Z" fill="#C8DBFB"/>
<path d="M84.5934 100.373C85.6999 100.373 86.5969 99.5918 86.5969 98.6277C86.5969 97.6636 85.6999 96.8821 84.5934 96.8821C83.4868 96.8821 82.5898 97.6636 82.5898 98.6277C82.5898 99.5918 83.4868 100.373 84.5934 100.373Z" fill="#C8DBFB"/>
<path d="M93.075 100.358C94.1816 100.358 95.0786 99.5761 95.0786 98.612C95.0786 97.6479 94.1816 96.8663 93.075 96.8663C91.9685 96.8663 91.0715 97.6479 91.0715 98.612C91.0715 99.5761 91.9685 100.358 93.075 100.358Z" fill="#C8DBFB"/>
<path d="M101.558 100.343C102.664 100.343 103.561 99.561 103.561 98.597C103.561 97.6329 102.664 96.8513 101.558 96.8513C100.451 96.8513 99.5542 97.6329 99.5542 98.597C99.5542 99.561 100.451 100.343 101.558 100.343Z" fill="#C8DBFB"/>
<path d="M124.96 119.94C128.16 119.94 130.753 117.68 130.753 114.892C130.753 112.104 128.16 109.844 124.96 109.844C121.76 109.844 119.166 112.104 119.166 114.892C119.166 117.68 121.76 119.94 124.96 119.94Z" fill="#C8DBFB"/>
<path d="M107.398 141.479L81.7371 141.525C81.1405 141.526 80.6563 141.106 80.6555 140.586V140.47C80.6547 139.951 81.1366 139.528 81.7331 139.527L107.394 139.482C107.991 139.48 108.475 139.901 108.476 140.42V140.537C108.477 141.056 107.994 141.478 107.398 141.479Z" fill="white"/>
<path d="M107.408 145.749L81.7466 145.794C81.15 145.794 80.6658 145.375 80.665 144.855V144.739C80.6635 144.219 81.1461 143.797 81.7427 143.797L107.403 143.751C108 143.75 108.484 144.17 108.485 144.69V144.806C108.486 145.325 108.004 145.746 107.408 145.749Z" fill="white"/>
<path d="M136.79 154.775L129.533 154.84L129.586 181.328L123.324 181.339C121.115 181.343 119.32 179.785 119.315 177.862L119.199 128.878C119.195 126.932 121.001 125.351 123.234 125.348L136.711 125.318L136.79 154.775Z" fill="#C8DBFB"/>
<path d="M183.864 125.238V125.923C186.031 125.923 187.798 127.459 187.802 129.347L187.915 177.106C187.92 178.999 186.157 180.541 183.985 180.544L124.037 180.651C121.871 180.651 120.105 179.115 120.1 177.227L119.987 129.469C119.985 128.552 120.393 127.689 121.135 127.039C121.876 126.39 122.865 126.031 123.918 126.029L183.856 125.922L183.864 125.238ZM183.864 125.238C183.861 125.238 183.857 125.238 183.853 125.238L123.916 125.345C121.307 125.35 119.195 127.197 119.201 129.471L119.314 177.229C119.32 179.498 121.433 181.337 124.037 181.337C124.041 181.337 124.045 181.337 124.049 181.337L183.986 181.23C186.596 181.224 188.707 179.377 188.701 177.105L188.588 129.347C188.584 127.075 186.469 125.238 183.864 125.238Z" fill="#C8DBFB"/>
<path d="M283.954 164.546L204.001 148.801C201.456 148.301 199.858 146.096 200.434 143.879L209.427 109.207C210.001 106.99 212.531 105.597 215.076 106.099L295.029 121.842C297.574 122.344 299.172 124.548 298.596 126.766L289.603 161.437C289.029 163.656 286.499 165.048 283.954 164.546Z" fill="#C8DBFB"/>
<path d="M129.218 258.847L118.031 258.867L115.293 246.449L131.896 246.42L129.218 258.847Z" fill="#3A5796"/>
<path d="M118.39 246.444C118.392 247.457 118.17 249.158 118.945 249.183C119.719 249.208 119.399 247.569 120.281 247.613C120.844 247.641 120.018 253.009 122.148 253.136C123.613 253.225 123.345 250.503 123.495 248.802C123.597 247.648 125.291 247.874 125.304 248.637C125.32 249.491 125.257 250.062 125.304 251.031C125.384 252.652 128.243 252.221 128.141 250.056C128.039 247.891 128.135 246.425 128.135 246.425L118.39 246.444Z" fill="#C8DBFB"/>
<path d="M115.712 253.944C115.483 253.945 115.263 253.928 115.051 253.885C114.227 253.727 113.649 253.349 113.331 252.763C112.191 250.656 115.194 246.707 115.311 246.532L115.467 247.242C115.44 247.284 112.83 250.677 113.855 252.57C114.099 253.02 114.533 253.299 115.181 253.424C115.36 253.459 115.548 253.474 115.742 253.474C119.771 253.467 126.659 246.925 126.735 246.849C127.016 246.553 127.543 246.832 127.356 247.081C127.041 247.396 120.043 253.936 115.712 253.944Z" fill="#0C2340"/>
<path opacity="0.2" d="M233.271 84.1209C217.371 83.5909 195.481 93.8367 203.247 118.887C203.077 121.005 204.535 122.515 206.081 122.102C207.628 121.688 206.265 117.674 206.265 117.674C208.912 99.0496 213.864 95.8275 222.269 95.8946L241.991 95.859C246.864 96.4849 255.724 99.4544 257.053 114.364L261.963 115.154C262.347 104.385 259.355 84.99 233.271 84.1209Z" fill="#5275A0"/>
<path d="M233.271 81.9391C217.371 81.409 195.481 91.6548 203.247 116.705L206.266 115.493C208.913 96.8678 213.865 93.6456 222.271 93.7127L241.992 93.6771C246.865 94.303 255.962 98.0717 257.292 112.981L261.964 112.972C262.347 102.203 259.355 82.8081 233.271 81.9391Z" fill="#EF832B"/>
<path d="M230.019 82.3472L227.658 86.8698C227.658 86.8698 227.939 89.4167 230.809 89.364C233.677 89.3112 234.061 88.1566 234.061 88.1566L234.436 82.9642L230.019 82.3472Z" fill="#FFB9A3"/>
<path d="M242.158 78.5751C239.465 82.7217 238.274 84.012 234.753 84.6352C230.194 85.4426 225.082 82.7642 227.459 76.1617C229.397 70.7782 232.329 71.6076 235.203 71.811C238.075 72.0143 245.066 74.0956 242.158 78.5751Z" fill="#FFB9A3"/>
<path d="M231.457 75.3037C230.743 74.979 229.822 75.255 229.267 75.7646C228.695 76.2884 228.42 77.0733 228.662 77.7636C227.56 77.778 226.593 78.7189 226.698 79.675C225.945 78.1443 226.354 76.5528 226.203 74.9866C226.054 73.4204 226.252 71.7179 227.417 70.5187C227.893 70.027 228.51 69.6483 229.163 69.3463C231.642 68.1985 234.757 68.1601 237.273 69.2463C237.793 69.4716 239.1 70.1879 240.922 69.8038C244.395 69.0724 246.427 71.118 244.341 73.0355C245.012 73.2464 245.745 73.5066 246.05 74.0682C246.128 74.2113 246.167 74.3915 246.065 74.5223C245.992 74.6133 245.867 74.6585 245.747 74.6942C245.163 74.866 244.528 74.9099 243.92 74.8208C244.154 74.9941 245.443 75.0619 245.832 75.7152C246.867 77.454 242.765 76.5761 242.14 76.4014C242.854 76.5185 244.727 77.8211 244.128 78.7148C244.01 78.8915 241.48 80.1756 238.821 77.4848C238.202 76.8589 237.429 76.2809 236.514 76.0686C235.796 75.9015 235.044 76.133 234.347 76.361C233.839 76.5275 232.542 77.215 232.17 76.8055C231.761 76.3556 232.287 75.6625 231.457 75.3037Z" fill="#0C2340"/>
<path d="M257.795 112.985C257.091 115.098 256.377 115.308 257.232 115.645C258.087 115.981 258.778 114.797 258.778 114.797L262.723 115.48C262.723 115.48 261.833 113.248 261.211 112.978C260.59 112.709 257.795 112.985 257.795 112.985Z" fill="#FFB9A3"/>
<path d="M206.266 115.493C206.78 116.608 206.923 116.616 207.641 117.956C209.013 120.517 205.799 124.568 203.804 120.145C203.257 118.933 203.247 116.705 203.247 116.705L206.266 115.493Z" fill="#FFB9A3"/>
<path d="M237.074 69.6073C239.77 69.7353 243.086 68.076 245.198 70.2058C245.393 70.403 245.784 70.1414 245.612 69.9271C243.592 67.3973 239.85 69.2806 237.074 69.2162C236.783 69.2101 236.787 69.5936 237.074 69.6073Z" fill="#0C2340"/>
<path d="M238.156 68.3109C236.391 68.578 234.719 67.8171 232.971 68.05C231.347 68.2657 229.952 68.8834 228.717 69.8203C228.424 70.0421 228.807 70.4715 229.129 70.2866C230.737 69.3648 232.225 68.6197 234.223 68.7156C235.67 68.7848 236.871 69.1806 238.31 68.8067C238.682 68.7101 238.524 68.2554 238.156 68.3109Z" fill="#0C2340"/>
<path d="M227.67 70.5023C226.407 71.1865 225.563 72.1535 225.472 73.4971C225.404 74.4874 225.297 76.6837 226.453 77.2452C226.725 77.3767 227.005 77.0658 226.785 76.8713C226.079 76.2467 226.084 74.6922 226.043 73.9128C225.974 72.6075 226.697 71.5371 227.858 70.779C228.042 70.6585 227.878 70.3907 227.67 70.5023Z" fill="#0C2340"/>
<path d="M247.613 74.3587C246.946 73.3513 245.239 72.4597 243.928 73.0993C243.721 73.2 243.818 73.4746 244.044 73.478C244.586 73.4869 245.081 73.4314 245.616 73.5485C246.288 73.6951 246.862 74.0512 247.258 74.5395C247.408 74.7258 247.747 74.5621 247.613 74.3587Z" fill="#0C2340"/>
<path d="M160.149 178.829C168.485 181.497 175.725 189.83 174.064 195.887C172.188 202.728 166.77 205.679 166.77 205.679L165.064 202.931C165.064 202.931 169.394 197.033 169.018 194.246C168.416 189.785 161.95 186.806 161.95 186.806L160.149 178.829Z" fill="#0B43A4"/>
<path d="M139.626 256.025C139.626 256.025 134.506 257.827 133.226 258.843L143.367 258.826L143.36 256.018L139.626 256.025Z" fill="#0C2340"/>
<path d="M162.034 255.854C162.034 255.854 163.487 257.322 163.755 258.791L156.835 258.804C156.954 257.788 157.452 256.814 158.125 255.861L162.034 255.854Z" fill="#0C2340"/>
<path d="M162.455 255.985L157.731 255.992C157.826 251.143 156.678 234.617 155.57 222.264C154.918 215.018 154.273 209.197 153.896 208.018L156.427 207.533L165.977 205.683C167.611 212.189 163.839 242.062 162.455 255.985Z" fill="#047F76"/>
<path d="M145.093 207.758C141.409 212.815 140.456 249.357 138.914 256.129L143.394 256.351C143.394 256.351 148.539 233.311 159.498 207.412L145.093 207.758Z" fill="#009790"/>
<path opacity="0.2" d="M161.386 207.41C159.225 212.525 157.283 217.531 155.57 222.262C154.918 215.017 154.273 209.196 153.896 208.017L156.427 207.531L161.386 207.41Z" fill="#5275A0"/>
<path d="M145.093 207.758C141.409 212.815 140.456 249.357 138.914 256.129L143.394 256.351C143.394 256.351 148.539 233.311 159.498 207.412L145.093 207.758Z" fill="#009790"/>
<path d="M147.909 166.963C147.909 166.963 145.041 176.487 152.205 176.475L151.78 178.909L157.221 179.427L156.045 176.036C156.045 176.036 157.121 170.05 157.192 168.969C157.328 166.947 150.835 163.389 147.909 166.963Z" fill="#FFB9A3"/>
<path d="M128.099 164.065L130.211 164.061L130.191 156.288L128.08 156.292L128.099 164.065Z" fill="#0C2340"/>
<path d="M135.196 156.28L123.074 156.3C122.226 156.302 121.537 155.705 121.535 154.965L121.535 154.688C121.533 153.95 122.219 153.349 123.067 153.348L135.188 153.327C136.036 153.325 136.726 153.923 136.727 154.663L136.728 154.938C136.73 155.678 136.044 156.278 135.196 156.28Z" fill="#3A5796"/>
<path d="M127.511 166.091C127.453 164.328 125.785 164.79 126.704 161.913C127.273 160.133 131.488 162.198 130.963 163.433C130.438 164.666 129.833 166.615 129.833 166.615L127.511 166.091Z" fill="#FFB9A3"/>
<path d="M152.257 178.347C141.544 178.965 140.839 182.111 136.044 181.619C128.948 180.89 130.19 169.408 131.066 165.291L126.828 165.298C126.828 165.298 119.188 191.454 143.319 186.617C142.392 191.2 148.392 198.681 142.574 207.763C151.734 209.93 160.281 210.462 167.6 207.719C166.319 206.217 170.227 191.018 162.574 180.079C161.081 177.943 153.041 178.301 152.257 178.347Z" fill="#0056EC"/>
<path d="M152.257 178.347C141.544 178.965 140.839 182.111 136.044 181.619C128.948 180.89 130.19 169.408 131.066 165.291L126.828 165.298C126.828 165.298 119.188 191.454 143.319 186.617C142.392 191.2 148.392 198.681 142.574 207.763C151.734 209.93 160.281 210.462 167.6 207.719C166.319 206.217 170.227 191.018 162.574 180.079C161.081 177.943 153.041 178.301 152.257 178.347Z" fill="#3A5796"/>
<path d="M150.781 168.789C151.48 168.944 152.292 169.06 152.666 169.578C152.908 169.914 152.891 170.331 152.867 170.722C152.996 170.312 153.515 170.018 154.018 170.068C154.521 170.118 154.942 170.509 154.951 170.932C154.955 171.13 154.88 171.324 154.796 171.51C154.587 171.971 154.319 172.415 153.999 172.832C154.875 173.111 155.607 175.343 156.046 176.036C157.518 175.715 160.791 174.613 161.077 170.072C161.21 167.956 160.47 165.424 157.836 164.014C155.976 163.02 152.889 163.004 150.759 163.48C149.032 163.865 146.277 165.366 147.561 167.124C148.21 168.009 149.627 168.532 150.781 168.789Z" fill="#EF832B"/>
<path d="M159.957 165.897C160.955 165.608 162.22 165.761 162.818 166.487C163.285 167.052 163.244 167.796 163.395 168.471C163.467 168.798 163.6 169.13 163.891 169.355C164.237 169.624 164.741 169.687 165.213 169.71C166.366 169.763 167.534 169.637 168.671 169.805C169.808 169.974 170.971 170.533 171.295 171.458C171.474 171.971 171.376 172.534 171.59 173.036C171.912 173.79 172.834 174.218 173.636 174.657C175.343 175.587 176.794 176.846 177.844 178.305C178.509 179.23 179.022 180.256 179.103 181.332C179.183 182.408 180.073 183.829 179.837 184.889C179.581 186.032 178.291 187.577 175.743 188.293C171.338 189.528 169.944 190.063 165.723 187.877C165.215 187.614 164.221 186.718 163.76 186.397C163.399 186.145 163.171 185.782 163.044 185.403C162.692 184.348 163.099 183.211 163.731 182.251C164.364 181.291 165.216 180.443 165.859 179.488C166.246 178.914 166.562 178.277 166.526 177.619C166.513 177.373 166.441 177.117 166.236 176.94C166.058 176.786 165.804 176.714 165.553 176.671C164.626 176.513 163.608 176.68 162.767 176.317C161.951 175.963 161.503 175.104 161.751 174.364C161.916 173.87 162.346 173.455 162.469 172.951C162.645 172.229 162.124 171.485 161.402 171.061C160.68 170.639 159.788 170.474 158.918 170.35C158.49 170.288 158.04 170.226 157.692 170.009C157.262 169.741 157.065 169.27 157.07 168.821C157.089 167.404 158.416 166.343 159.957 165.897Z" fill="#EF832B"/>
<path d="M159.168 169.724C162.929 170.432 160.461 173.402 159.895 175.189C159.651 175.962 159.978 176.645 160.579 177.194C161.211 177.77 162.422 177.733 163.246 177.716C164.387 177.586 165.15 178.186 165.537 179.509C165.365 179.955 165.165 180.391 164.936 180.817C164.723 181.236 164.697 181.502 164.632 181.946C164.595 182.199 165.074 182.248 165.139 182.005C165.48 180.715 166.444 179.636 166.062 178.278C165.768 177.236 164.181 177.214 163.247 177.229C162.752 177.26 162.26 177.237 161.769 177.159C159.12 176.784 160.82 174.271 161.302 173.436C161.69 172.762 161.838 172.136 161.733 171.385C161.583 170.301 160.35 169.647 159.244 169.487C159.066 169.461 158.988 169.691 159.168 169.724Z" fill="#EF832B"/>
<path d="M148.245 164.071C152.333 162.264 156.406 162.626 159.858 165.277C160.093 165.459 160.409 165.183 160.201 164.978C157.172 162.007 151.789 161.482 148.134 163.905C148.023 163.979 148.115 164.129 148.245 164.071Z" fill="#EF832B"/>
<path d="M285.53 175.243L283.759 178.346L288.088 179.888L288.55 176.315L285.53 175.243Z" fill="#FFB9A3"/>
<path d="M288.144 165.142C278.325 168.866 282.348 177.89 288.325 176.83C291.232 176.314 292.705 168.153 292.705 168.153L288.144 165.142Z" fill="#FFB9A3"/>
<path d="M291.405 163.858C291.082 163.333 290.775 162.776 290.243 162.404C289.711 162.03 288.868 161.913 288.368 162.318C287.708 162.853 288.094 163.855 288.764 164.383C288.188 164.443 287.504 164.097 287.079 164.442C286.758 164.703 286.869 165.166 287.054 165.512C287.487 166.331 288.195 167.038 289.066 167.523C288.568 167.769 287.991 168.246 288.29 168.673C288.372 168.79 288.512 168.872 288.594 168.99C288.784 169.266 288.6 169.618 288.409 169.894C288.099 170.338 287.766 170.77 287.41 171.189C287.747 170.786 288.57 170.952 288.817 171.402C289.063 171.853 288.848 172.41 288.467 172.78C288.254 172.988 287.985 173.159 287.674 173.222C287.403 173.277 286.216 176.482 287.142 177.11C288.289 177.886 292.192 177.212 292.757 176.335C293.321 176.868 294.148 177.272 294.965 177.13C295.782 176.99 296.405 176.112 295.964 175.496C296.847 175.779 297.92 175.529 298.524 174.901C299.126 174.27 299.214 173.305 298.735 172.599C299.216 172.473 299.313 171.906 299.19 171.48C298.943 170.622 298.138 169.902 297.158 169.662C297.656 169.67 298.051 169.234 298.074 168.8C298.098 168.368 297.839 167.96 297.526 167.623C296.603 166.633 295.512 166.368 294.151 166.218C292.772 166.064 292.014 164.843 291.405 163.858Z" fill="#4A49CA"/>
<path d="M282.204 255.431C282.204 255.431 276.458 257.835 275.688 258.584C275.688 258.584 286.991 259.028 287.876 258.563C288.761 258.097 286.066 255.425 286.066 255.425L282.204 255.431Z" fill="#0C2340"/>
<path d="M303.576 252.715C303.576 252.715 298.526 256.101 297.951 256.974C297.951 256.974 309.869 255.433 309.869 254.756C309.869 254.078 307.354 252.011 307.354 252.011L303.576 252.715Z" fill="#0C2340"/>
<path d="M287.759 209.026C287.546 210.043 279.682 237.098 302.186 253.318L308.705 252.016C308.705 252.016 301.118 245.816 297.543 234.658C294.161 224.108 296.846 223.072 298.874 217.262C301.117 210.829 299.448 206.16 299.448 206.16L287.759 209.026Z" fill="#D8742A"/>
<path d="M277.003 208.943C273.435 216.373 267.31 241.689 280.66 255.945L287.325 255.933C287.325 255.933 282.074 250.918 281.486 239.284C280.9 227.65 284.293 222.543 286.689 218.704C289.083 214.865 291.298 208.34 291.298 208.34L277.003 208.943Z" fill="#EF832B"/>
<path d="M272.299 162.888C270.528 168.329 269.946 178.379 278.816 182.428L284.755 181.168C284.755 181.168 274.052 176.278 276.344 163.92L272.299 162.888Z" fill="#0B43A4"/>
<path d="M255.942 160.103L260.55 159.607C260.55 159.607 259.996 176.47 282.346 177.888C299.408 178.973 300.749 206.869 300.749 206.869C295.248 210.097 286.015 211.073 274.186 210.335C274.186 210.335 274.943 190.432 273.064 184.984C273.065 184.985 254.495 179.895 255.942 160.103Z" fill="#3A5796"/>
<path d="M250.306 157.042C249.527 157.829 252.782 158.828 255.942 160.103L259.987 159.668C259.987 159.668 260.036 158.964 259.984 158.229C259.934 157.497 259.511 157.077 259.031 157.707C258.552 158.336 256.506 158.549 255.543 157.975C254.579 157.401 251.087 156.254 250.306 157.042Z" fill="#FFB9A3"/>
<path d="M272.299 162.888C270.817 161.618 271.21 161.696 271.21 161.696L275.731 162.586C275.731 162.586 276.725 160.663 277.567 160.61C278.408 160.557 276.932 161.935 277.27 162.446C277.609 162.957 276.343 163.921 276.343 163.921L272.299 162.888Z" fill="#FFB9A3"/>
<path d="M293.943 165.714C294.818 165.909 295.653 166.006 296.431 166.443C297.315 166.941 297.716 168.005 297.139 168.801C296.881 169.157 297.492 169.439 297.77 169.122C298.458 168.333 298.3 167.208 297.576 166.467C296.731 165.604 295.269 165.232 293.999 165.351C293.774 165.373 293.695 165.659 293.943 165.714Z" fill="#4A49CA"/>
<path d="M298.03 173.02C298.674 173.35 299.109 173.825 298.898 174.505C298.71 175.111 297.918 175.494 297.371 175.83C297.095 176 297.333 176.368 297.639 176.228C298.458 175.849 299.428 175.28 299.519 174.387C299.601 173.591 299.053 173.014 298.282 172.651C298 172.519 297.757 172.879 298.03 173.02Z" fill="#4A49CA"/>
<path d="M287.708 177.102C289.791 178.229 292.735 178.047 294.458 176.459C294.671 176.262 294.38 175.894 294.112 176.069C292.234 177.282 290.081 177.674 287.878 176.847C287.683 176.774 287.518 176.999 287.708 177.102Z" fill="#4A49CA"/>
<path d="M298.303 166.906C299.498 167.895 298.304 169.251 297.533 170.104C297.364 170.292 297.631 170.544 297.842 170.373C298.491 169.845 299.178 169.251 299.288 168.441C299.38 167.769 299.112 167.117 298.412 166.785C298.323 166.743 298.227 166.843 298.303 166.906Z" fill="#4A49CA"/>
<path d="M165.345 41.7975L163.501 37.8741L181.289 31.99L165.345 41.7975Z" fill="#0B43A4"/>
<path d="M166.241 39.3793L181.289 31.99L170.814 41.2592L166.241 39.3793Z" fill="#5193F4"/>
<path d="M159.431 36.2764L181.289 31.99L163.501 37.8741L159.431 36.2764Z" fill="#5193F4"/>
<path d="M166.241 39.3793L165.345 41.7974L168.06 40.1271L166.241 39.3793Z" fill="#0056EC"/>
<path d="M163.255 41.2729C158.613 40.5888 152.309 44.68 155.02 48.9424C155.943 50.3936 160.704 49.7635 160.35 48.1596C160.181 47.3919 159.101 47.0653 158.209 47.1543C153.019 47.6727 152.813 51.4633 153.042 52.4282C154.231 57.4131 162.999 55.727 165.948 55.0237" stroke="#C8DBFB" stroke-miterlimit="10" stroke-linecap="round" stroke-linejoin="round" stroke-dasharray="4 4"/>
</svg>