<svg width="127" height="106" viewBox="0 0 127 106" fill="none" xmlns="http://www.w3.org/2000/svg">
<path d="M25.1426 15.1429H4.46103C2.08458 15.1429 -0.291873 17.5657 0.0292694 21.5029L10.0489 97.1414C10.0489 97.1414 21.9312 41.4157 24.2434 28.0143C24.9499 24.0014 28.1613 22.7143 30.5378 22.7143H63.6796C63.6796 22.7143 59.1837 6.96571 58.7341 5.22429C57.9633 1.89286 56.5503 0 53.7242 0H32.4646C30.1524 0 27.9686 1.74143 27.3264 4.84572C26.7483 7.87429 25.1426 15.1429 25.1426 15.1429ZM56.4861 15.1429H30.7947C30.7947 15.1429 33.4923 7.57143 36.3826 7.57143H50.0632C53.1462 7.57143 56.4861 15.1429 56.4861 15.1429ZM16.6002 100.321C14.6091 103.88 11.7188 106 8.50742 106H109.539C113.007 106 115.448 103.653 116.154 99.7157C118.98 83.1343 126.945 35.8129 126.945 35.8129C127.394 32.0271 125.018 30.2857 122.962 30.2857H102.217V19.1557C102.217 17.9443 100.547 15.1429 97.9776 15.1429H73.8277C70.4879 15.1429 68.2399 19.5343 68.2399 19.5343L63.6796 30.2857H35.3549C33.2996 30.2857 31.3085 31.7243 30.9231 34.0714C30.9231 34.0714 20.7108 84.8 19.8759 89.57C19.4263 92.3714 18.4628 97.0657 16.6002 100.321ZM98.2346 30.2857H70.1025C70.1025 30.2857 73.8277 22.7143 77.3603 22.7143H92.0686C96.6288 22.7143 98.2346 30.2857 98.2346 30.2857Z" fill="#6092D0"/>
</svg>