<svg width="500" height="500" viewBox="0 0 500 500" fill="none" xmlns="http://www.w3.org/2000/svg">
<g clip-path="url(#clip0_1086_2337)">
<path d="M97.9275 378.659H62.7695V389.849H97.9275V378.659Z" fill="#EBEBEB"/>
<path d="M211.463 105.239H176.305V116.429H211.463V105.239Z" fill="#EBEBEB"/>
<path d="M78.3162 403.959L60.8582 404.252L52.0262 404.372L43.1582 404.415L42.7043 404.417L42.7022 403.959L42.6582 392.769L42.6562 392.268L43.1572 392.27L60.7362 392.338L69.5252 392.423L78.3143 392.532L78.5572 392.535L78.5522 392.769L78.3162 403.959ZM78.3162 403.959L78.0793 392.769L78.3162 393.006L69.5272 393.115L60.7382 393.2L43.1592 393.268L43.6582 392.769L43.6143 403.959L43.1582 403.503L51.8692 403.546L60.6162 403.666L78.3162 403.959Z" fill="#EBEBEB"/>
<path d="M452.112 230.95L434.655 231.243L425.823 231.363L416.955 231.406L416.501 231.408L416.499 230.95L416.455 219.76L416.453 219.259L416.954 219.261L434.533 219.329L443.322 219.414L452.111 219.523L452.354 219.526L452.349 219.76L452.112 230.95ZM452.112 230.95L451.875 219.76L452.112 219.997L443.323 220.106L434.534 220.191L416.955 220.259L417.454 219.76L417.41 230.95L416.954 230.494L425.665 230.537L434.412 230.657L452.112 230.95Z" fill="#EBEBEB"/>
<path d="M432.499 245.06L415.042 245.353L406.21 245.473L397.342 245.516L396.888 245.518L396.886 245.06L396.842 233.87L396.84 233.369L397.341 233.371L414.92 233.439L423.709 233.524L432.498 233.633L432.741 233.636L432.736 233.87L432.499 245.06ZM432.499 245.06L432.262 233.87L432.499 234.107L423.71 234.216L414.921 234.301L397.342 234.369L397.841 233.87L397.797 245.06L397.341 244.604L406.052 244.647L414.799 244.767L432.499 245.06Z" fill="#EBEBEB"/>
<path d="M412.967 219.76H377.809V230.95H412.967V219.76Z" fill="#EBEBEB"/>
<path d="M456.841 392.769H421.684V403.959H456.841V392.769Z" fill="#EBEBEB"/>
<path d="M437.228 47.2178H402.07V58.4078H437.228V47.2178Z" fill="#EBEBEB"/>
<path d="M456.839 72.5181L439.382 72.8111L430.55 72.9311L421.682 72.9741L421.228 72.9761L421.226 72.5181L421.182 61.3281L421.18 60.8271L421.682 60.8291L439.261 60.8971L448.05 60.9821L456.839 61.0911L457.081 61.0941L457.076 61.3291L456.839 72.5181ZM456.839 72.5181L456.602 61.3281L456.839 61.5651L448.05 61.6741L439.261 61.7591L421.682 61.8271L422.181 61.3281L422.137 72.5181L421.681 72.0621L430.391 72.1051L439.138 72.2251L456.839 72.5181Z" fill="#EBEBEB"/>
<path d="M97.9295 58.4078L80.4715 58.7008L71.6395 58.8208L62.7715 58.8638L62.3175 58.8658L62.3155 58.4078L62.2715 47.2178L62.2695 46.7168L62.7715 46.7188L80.3505 46.7868L89.1395 46.8718L97.9285 46.9808L98.1715 46.9838L98.1665 47.2178L97.9295 58.4078ZM97.9295 58.4078L97.6925 47.2178L97.9295 47.4548L89.1405 47.5638L80.3515 47.6488L62.7725 47.7168L63.2715 47.2178L63.2275 58.4078L62.7715 57.9518L71.4825 57.9948L80.2295 58.1148L97.9295 58.4078Z" fill="#EBEBEB"/>
<path d="M300.668 429.699L283.21 429.992L274.378 430.112L265.51 430.155L265.056 430.157L265.054 429.699L265.01 418.509L265.008 418.008L265.51 418.01L283.089 418.078L291.878 418.163L300.667 418.272L300.909 418.275L300.904 418.509L300.668 429.699ZM300.668 429.699L300.431 418.509L300.668 418.746L291.879 418.855L283.09 418.94L265.511 419.008L266.01 418.509L265.966 429.699L265.51 429.243L274.221 429.286L282.968 429.406L300.668 429.699Z" fill="#EBEBEB"/>
<path d="M426.74 329.289H334.969V456.287H426.74V329.289Z" fill="#EBEBEB"/>
<path d="M431.186 324.577H330.523V329.289H431.186V324.577Z" fill="#DBDBDB"/>
<path d="M462.845 324.577H431.188V329.289H462.845V324.577Z" fill="#EBEBEB"/>
<path d="M457.834 329.289H426.742V456.287H457.834V329.289Z" fill="#DBDBDB"/>
<path d="M416.746 347.484H344.965V387.954H416.746V347.484Z" stroke="#C7C7C7" stroke-width="0.25" stroke-miterlimit="10"/>
<path d="M384.824 359.266H370.805V367.323H384.824V359.266Z" fill="#C7C7C7"/>
<path d="M388.968 359.874H374.949V366.716H388.968V359.874Z" stroke="#C7C7C7" stroke-width="0.25" stroke-miterlimit="10"/>
<path d="M416.746 398.612H344.965V439.082H416.746V398.612Z" stroke="#C7C7C7" stroke-width="0.25" stroke-miterlimit="10"/>
<path d="M384.824 410.395H370.805V418.452H384.824V410.395Z" fill="#C7C7C7"/>
<path d="M388.968 411.002H374.949V417.844H388.968V411.002Z" stroke="#C7C7C7" stroke-width="0.25" stroke-miterlimit="10"/>
<path d="M66.2696 -0.601562H65.5586V97.1504H66.2696V-0.601562Z" fill="#C7C7C7"/>
<path d="M95.3617 125.533L92.9937 130.739H38.8337L36.4727 125.533L59.5307 109.573H72.3037L95.3617 125.533Z" fill="#EBEBEB"/>
<path d="M73.9037 94.1963L72.3027 109.573H59.5297L57.9297 94.1963H73.9037Z" fill="#DBDBDB"/>
<path d="M95.3577 125.535L92.9887 130.741H38.8298L36.4688 125.535H95.3577Z" fill="#DBDBDB"/>
<path d="M129.496 -0.601562H128.785V70.3544H129.496V-0.601562Z" fill="#C7C7C7"/>
<path d="M158.584 98.7373L156.215 103.943H102.056L99.6953 98.7373L122.752 82.7773H135.526L158.584 98.7373Z" fill="#EBEBEB"/>
<path d="M137.126 67.4004L135.526 82.7774H122.752L121.152 67.4004H137.126Z" fill="#DBDBDB"/>
<path d="M158.58 98.7393L156.212 103.945H102.052L99.6914 98.7393H158.58Z" fill="#DBDBDB"/>
<path d="M44.4531 465.041L95.8391 464.798L147.226 464.709L249.999 464.542L352.772 464.708L404.158 464.796L455.545 465.041L404.158 465.285L352.772 465.373L249.999 465.54L147.226 465.372L95.8391 465.284L44.4531 465.041Z" fill="#263238"/>
<path d="M113.805 452.647V71.3022C113.805 64.1812 119.577 58.4092 126.698 58.4092H373.299C380.42 58.4092 386.192 64.1812 386.192 71.3022V452.647C386.192 459.768 380.42 465.54 373.299 465.54H126.698C119.578 465.54 113.805 459.767 113.805 452.647Z" fill="#37474F"/>
<path d="M374.699 86.9043H125.613V437.292H374.699V86.9043Z" fill="white"/>
<path d="M220.359 75.8111V74.0771C220.359 73.3861 220.919 72.8271 221.609 72.8271H278.387C279.078 72.8271 279.637 73.3871 279.637 74.0771V75.8111C279.637 76.5011 279.077 77.0611 278.387 77.0611H221.609C220.919 77.0621 220.359 76.5021 220.359 75.8111Z" fill="#263238"/>
<path d="M257.423 452.901C258.443 448.792 255.939 444.634 251.83 443.613C247.721 442.593 243.563 445.097 242.543 449.206C241.522 453.315 244.026 457.473 248.135 458.493C252.244 459.513 256.402 457.01 257.423 452.901Z" fill="#263238"/>
<path d="M374.699 86.9043H125.613V437.292H374.699V86.9043Z" fill="white"/>
<path d="M374.699 86.9043H125.613V95.4623H374.699V86.9043Z" fill="#455A64"/>
<path d="M133.269 91.1837C133.269 92.1747 132.466 92.9787 131.475 92.9787C130.484 92.9787 129.68 92.1747 129.68 91.1837C129.68 90.1927 130.484 89.3887 131.475 89.3887C132.465 89.3897 133.269 90.1927 133.269 91.1837Z" fill="#C7C7C7"/>
<path d="M140.598 91.1837C140.598 92.1747 139.794 92.9787 138.803 92.9787C137.812 92.9787 137.008 92.1747 137.008 91.1837C137.008 90.1927 137.811 89.3887 138.803 89.3887C139.794 89.3897 140.598 90.1927 140.598 91.1837Z" fill="white"/>
<path d="M147.925 91.1837C147.925 92.1747 147.122 92.9787 146.13 92.9787C145.139 92.9787 144.336 92.1747 144.336 91.1837C144.336 90.1927 145.139 89.3887 146.13 89.3887C147.122 89.3897 147.925 90.1927 147.925 91.1837Z" fill="#FFC727"/>
<path d="M149.48 245.812L146.309 248.783L149.48 251.755" stroke="#C7C7C7" stroke-width="0.75" stroke-miterlimit="10"/>
<path d="M153.789 248.784C153.789 251.702 151.424 254.067 148.506 254.067C145.589 254.067 143.223 251.702 143.223 248.784C143.223 245.866 145.588 243.501 148.506 243.501C151.424 243.502 153.789 245.867 153.789 248.784Z" stroke="#C7C7C7" stroke-miterlimit="10"/>
<path d="M350.516 251.755L353.687 248.783L350.516 245.812" stroke="#C7C7C7" stroke-width="0.75" stroke-miterlimit="10"/>
<path d="M346.207 248.784C346.207 245.866 348.572 243.501 351.49 243.501C354.407 243.501 356.773 245.866 356.773 248.784C356.773 251.702 354.408 254.067 351.49 254.067C348.572 254.067 346.207 251.702 346.207 248.784Z" stroke="#C7C7C7" stroke-miterlimit="10"/>
<path d="M316.287 302.819H260.316L262.066 267.427H295.049L316.287 302.819ZM265.134 298.232H308.185L292.453 272.013H266.431L265.134 298.232Z" fill="#FFC727"/>
<path opacity="0.5" d="M316.287 302.819H260.316L262.066 267.427H295.049L316.287 302.819ZM265.134 298.232H308.185L292.453 272.013H266.431L265.134 298.232Z" fill="black"/>
<path d="M313.233 302.819H257.262L259.012 267.427H291.995L313.233 302.819ZM262.081 298.232H305.132L289.4 272.013H263.378L262.081 298.232Z" fill="#FFC727"/>
<path opacity="0.3" d="M313.233 302.819H257.262L259.012 267.427H291.995L313.233 302.819ZM262.081 298.232H305.132L289.4 272.013H263.378L262.081 298.232Z" fill="black"/>
<path d="M245.045 319.634H252.703V303.709H245.045V319.634Z" fill="#A6A6A6"/>
<path d="M241.951 357.943H255.801V319.634H241.951V357.943Z" fill="#C7C7C7"/>
<path d="M255.796 339.018H261.883V336.448H255.796V339.018Z" fill="#A6A6A6"/>
<path d="M261.885 340.375H274.266V335.092H261.885V340.375Z" fill="#C7C7C7"/>
<path d="M240.164 374.046H258.016V357.943H240.164V374.046Z" fill="#C7C7C7"/>
<path d="M247.064 388.063H250.786L252.87 364.994H244.98L247.064 388.063Z" fill="#A6A6A6"/>
<path d="M297.726 381.967L301.035 379.435L258.016 362.603V374.047L297.726 381.967Z" fill="#A6A6A6"/>
<path d="M200.453 381.967L197.145 379.435L240.163 362.603V374.047L200.453 381.967Z" fill="#A6A6A6"/>
<path d="M241.951 357.943H255.801V353.721H241.951V357.943Z" fill="#A6A6A6"/>
<path d="M297.871 396.615C302.865 396.615 306.914 392.567 306.914 387.572C306.914 382.578 302.865 378.529 297.871 378.529C292.877 378.529 288.828 382.578 288.828 387.572C288.828 392.567 292.877 396.615 297.871 396.615Z" fill="#263238"/>
<path d="M293.621 387.572C293.621 389.92 295.524 391.823 297.872 391.823C300.22 391.823 302.123 389.92 302.123 387.572C302.123 385.224 300.22 383.321 297.872 383.321C295.524 383.321 293.621 385.224 293.621 387.572Z" fill="white"/>
<path d="M200.262 396.615C205.256 396.615 209.305 392.567 209.305 387.572C209.305 382.578 205.256 378.529 200.262 378.529C195.267 378.529 191.219 382.578 191.219 387.572C191.219 392.567 195.267 396.615 200.262 396.615Z" fill="#263238"/>
<path d="M196.012 387.572C196.012 389.92 197.915 391.823 200.263 391.823C202.611 391.823 204.514 389.92 204.514 387.572C204.514 385.224 202.611 383.321 200.263 383.321C197.915 383.321 196.012 385.224 196.012 387.572Z" fill="white"/>
<path d="M246.192 400.126H251.867V385.245H246.192V400.126Z" fill="#263238"/>
<path d="M191.996 303.709H316.96V294.21H270.18L254.458 199.069H196.761L191.996 303.709Z" fill="#FFC727"/>
<path opacity="0.1" d="M270.179 294.208H200.512L204.675 199.066H254.457L270.179 294.208Z" fill="black"/>
<path opacity="0.3" d="M316.958 294.208H244.16V303.708H316.958V294.208Z" fill="white"/>
<path d="M249.405 302.819H193.434L195.184 267.427H228.167L249.405 302.819ZM198.253 298.232H241.304L225.572 272.013H199.55L198.253 298.232Z" fill="#FFC727"/>
<path opacity="0.5" d="M249.405 302.819H193.434L195.184 267.427H228.167L249.405 302.819ZM198.253 298.232H241.304L225.572 272.013H199.55L198.253 298.232Z" fill="black"/>
<path d="M246.35 302.819H190.379L192.129 267.427H225.112L246.35 302.819ZM195.197 298.232H238.248L222.516 272.013H196.494L195.197 298.232Z" fill="#FFC727"/>
<path opacity="0.3" d="M246.35 302.819H190.379L192.129 267.427H225.112L246.35 302.819ZM195.197 298.232H238.248L222.516 272.013H196.494L195.197 298.232Z" fill="black"/>
<path d="M264.614 223.565L188.66 238.104L193.695 264.406L269.648 249.868L264.614 223.565Z" fill="#455A64"/>
<path d="M205.076 253.463C205.041 253.439 205.008 253.43 204.958 253.409C204.955 253.394 204.94 253.397 204.935 253.367C204.899 253.343 204.864 253.319 204.844 253.292C204.844 253.292 204.829 253.295 204.826 253.28C204.806 253.253 204.764 253.2 204.729 253.176L199.437 245.21C199.182 244.843 199.281 244.317 199.68 244.071C200.047 243.817 200.559 243.919 200.815 244.3L205.023 250.613L206.6 243.192C206.699 242.743 207.151 242.456 207.586 242.557C208.032 242.641 208.319 243.093 208.232 243.525L206.227 252.889C206.218 252.921 206.214 252.984 206.19 253.019C206.193 253.034 206.193 253.034 206.178 253.037C206.169 253.07 206.13 253.108 206.121 253.14C206.112 253.173 206.112 253.173 206.1 253.19C206.076 253.225 206.049 253.246 206.025 253.281C206.025 253.281 206.025 253.281 205.998 253.302C205.971 253.322 205.935 253.375 205.893 253.398C205.878 253.401 205.878 253.401 205.866 253.419C205.822 253.427 205.795 253.448 205.753 253.471C205.753 253.471 205.738 253.474 205.723 253.477C205.667 253.503 205.622 253.512 205.578 253.52C205.533 253.528 205.474 253.54 205.427 253.534C205.427 253.534 205.412 253.537 205.398 253.54C205.366 253.531 205.303 253.527 205.274 253.533C205.271 253.518 205.256 253.521 205.256 253.521C205.256 253.521 205.256 253.521 205.241 253.524C205.209 253.515 205.141 253.482 205.091 253.46C205.091 253.46 205.091 253.46 205.076 253.463Z" fill="white"/>
<path d="M215.67 249.052L212.066 249.742L211.708 251.81C211.637 252.162 211.363 252.414 211.036 252.477C210.932 252.497 210.84 252.499 210.746 252.487C210.285 252.406 209.986 251.971 210.052 251.512L211.658 242.148C211.729 241.796 212.016 241.526 212.345 241.479C212.684 241.399 213.035 241.547 213.23 241.847L218.181 249.956C218.411 250.358 218.295 250.872 217.896 251.118C217.827 251.162 217.726 251.196 217.623 251.216C217.296 251.279 216.948 251.145 216.767 250.842L215.67 249.052ZM214.75 247.537L212.938 244.578L212.347 247.997L214.75 247.537Z" fill="white"/>
<path d="M218.352 245.541C217.805 242.601 219.809 239.742 222.774 239.159C224.079 238.909 225.348 239.112 226.422 239.66C226.835 239.888 226.993 240.396 226.797 240.818C226.572 241.246 226.034 241.41 225.642 241.209C224.887 240.8 224.017 240.674 223.098 240.85C222.074 241.046 221.205 241.643 220.633 242.43C220.096 243.24 219.851 244.209 220.044 245.218C220.237 246.226 220.829 247.066 221.621 247.591C222.443 248.11 223.472 248.344 224.495 248.148C225.414 247.972 226.162 247.537 226.727 246.875C227.019 246.557 227.58 246.512 227.944 246.811C228.282 247.131 228.325 247.676 228.023 248.026C227.228 248.931 226.124 249.589 224.818 249.839C221.851 250.407 218.932 248.49 218.352 245.541Z" fill="white"/>
<path d="M235.873 245.183L232.269 245.873L231.911 247.941C231.84 248.293 231.566 248.545 231.239 248.608C231.135 248.628 231.043 248.63 230.949 248.618C230.488 248.537 230.189 248.102 230.255 247.643L231.861 238.279C231.932 237.927 232.219 237.657 232.548 237.61C232.887 237.53 233.238 237.678 233.433 237.978L238.384 246.087C238.614 246.489 238.498 247.004 238.099 247.249C238.03 247.293 237.929 247.327 237.826 247.347C237.499 247.41 237.151 247.276 236.97 246.973L235.873 245.183ZM234.953 243.668L233.141 240.709L232.55 244.128L234.953 243.668Z" fill="white"/>
<path d="M242.105 245.682C242.19 246.127 241.891 246.569 241.46 246.651C241 246.739 240.573 246.436 240.488 245.991L238.838 237.374C238.838 237.374 238.838 237.374 238.835 237.359C238.772 237.11 238.84 236.82 239.031 236.614C239.354 236.291 239.872 236.268 240.192 236.576L246.252 242.289L245.082 236.178C245 235.748 245.285 235.309 245.73 235.223C246.175 235.138 246.616 235.438 246.699 235.868L248.349 244.485C248.434 244.93 248.134 245.372 247.69 245.457C247.453 245.503 247.208 245.426 247.025 245.277C246.99 245.253 246.955 245.229 246.934 245.202L240.927 239.525L242.105 245.682Z" fill="white"/>
<path d="M256.59 234.697L254.232 235.149L255.748 243.07C255.836 243.53 255.549 243.954 255.089 244.042C254.644 244.127 254.205 243.842 254.117 243.382L252.6 235.462L250.256 235.911C249.797 235.999 249.367 235.681 249.281 235.236C249.193 234.776 249.481 234.352 249.94 234.264L256.274 233.051C256.719 232.966 257.158 233.25 257.246 233.71C257.333 234.155 257.036 234.612 256.59 234.697Z" fill="white"/>
<path d="M264.614 223.543C260.328 221.769 256.086 219.907 251.886 217.958C247.677 216.028 243.507 214.017 239.345 211.991C235.196 209.939 231.055 207.87 226.953 205.721C222.842 203.591 218.775 201.373 214.75 199.066C219.036 200.839 223.28 202.699 227.479 204.649C231.688 206.579 235.857 208.59 240.019 210.618C244.167 212.671 248.309 214.74 252.41 216.89C256.521 219.02 260.589 221.238 264.614 223.543Z" fill="#263238"/>
<path d="M195.688 222.713C194.78 225.416 193.67 228.011 192.51 230.579C191.33 233.136 190.099 235.666 188.664 238.086C189.57 235.382 190.68 232.787 191.842 230.22C193.024 227.663 194.255 225.134 195.688 222.713Z" fill="#263238"/>
<path d="M157.852 396.615C216.886 395.965 283.117 395.959 342.15 396.615C283.116 397.272 216.886 397.266 157.852 396.615Z" fill="#263238"/>
<path d="M200.06 127.065L190.792 149.118C190.754 149.231 190.679 149.383 190.603 149.458L190.565 149.496C190.527 149.572 190.452 149.647 190.376 149.723C190.376 149.798 190.338 149.798 190.338 149.836C190.263 149.874 190.149 149.949 190.073 150.025H190.035C189.921 150.101 189.846 150.214 189.694 150.252H189.656C189.656 150.252 189.618 150.252 189.618 150.29C189.542 150.29 189.429 150.328 189.315 150.366C189.277 150.366 189.239 150.366 189.239 150.366C189.125 150.404 189.012 150.404 188.861 150.404C188.748 150.404 188.634 150.404 188.521 150.366C188.445 150.366 188.408 150.366 188.408 150.366C188.294 150.328 188.219 150.29 188.143 150.29C188.105 150.252 188.105 150.252 188.067 150.252C187.916 150.214 187.802 150.101 187.727 150.025C187.689 150.025 187.689 150.025 187.689 150.025C187.575 149.949 187.5 149.874 187.424 149.836C187.386 149.798 187.386 149.798 187.348 149.723C187.31 149.647 187.235 149.572 187.197 149.496C187.121 149.496 187.121 149.458 187.121 149.458C187.045 149.382 187.007 149.231 186.97 149.118L182.014 137.392L177.059 149.118C177.021 149.231 176.946 149.383 176.908 149.458C176.87 149.458 176.87 149.496 176.87 149.496C176.794 149.572 176.719 149.647 176.643 149.723C176.643 149.798 176.605 149.798 176.605 149.836C176.529 149.874 176.454 149.949 176.378 150.025C176.302 150.025 176.302 150.025 176.302 150.025C176.188 150.101 176.075 150.214 175.999 150.252C175.961 150.252 175.961 150.252 175.961 150.252C175.961 150.252 175.923 150.252 175.923 150.29C175.772 150.29 175.696 150.328 175.62 150.366C175.582 150.366 175.544 150.366 175.507 150.366C175.393 150.404 175.28 150.404 175.166 150.404C175.053 150.404 174.901 150.404 174.788 150.366C174.75 150.366 174.712 150.366 174.674 150.366C174.561 150.328 174.485 150.29 174.409 150.29C174.371 150.252 174.371 150.252 174.333 150.252C174.22 150.214 174.068 150.101 173.993 150.025C173.955 150.025 173.955 150.025 173.955 150.025C173.841 149.949 173.804 149.874 173.69 149.836C173.652 149.798 173.652 149.798 173.614 149.723C173.538 149.647 173.501 149.572 173.425 149.496V149.458C173.349 149.382 173.312 149.231 173.236 149.118L163.93 127.065C163.514 126.044 163.968 124.796 165.065 124.38C166.086 123.926 167.335 124.418 167.751 125.477L175.165 142.991L180.045 131.378C180.385 130.546 181.18 130.092 182.012 130.092C182.807 130.092 183.601 130.546 183.979 131.378L188.858 142.991L196.234 125.477C196.688 124.418 197.898 123.926 198.995 124.38C200.022 124.795 200.514 126.043 200.06 127.065Z" fill="#263238"/>
<path d="M202.664 140.947C202.702 135.802 206.711 131.491 211.894 131.491C216.811 131.491 220.707 135.16 221.01 140.266C221.01 140.304 221.01 140.38 221.01 140.455C221.01 140.531 221.01 140.72 220.972 140.795C220.859 141.703 220.064 142.308 219.005 142.308H206.976C207.165 143.178 207.581 144.162 208.262 144.805C209.056 145.713 210.569 146.393 211.893 146.507C213.254 146.62 214.881 146.28 215.827 145.561C216.621 144.729 218.172 144.842 218.664 145.448C219.156 145.977 219.534 147.112 218.664 147.907C216.81 149.609 214.579 150.404 211.894 150.404C206.712 150.366 202.702 146.092 202.664 140.947ZM206.787 139.094H217.492C217.114 137.581 215.184 135.349 211.894 135.084C208.679 135.235 207.09 137.543 206.787 139.094Z" fill="#263238"/>
<path d="M254.372 140.985V148.399C254.372 149.496 253.464 150.404 252.367 150.404C251.384 150.404 250.627 149.685 250.4 148.778C248.962 149.799 247.26 150.404 245.369 150.404C242.797 150.404 240.565 149.345 238.939 147.643C237.312 145.903 236.367 143.558 236.367 140.985C236.367 138.375 237.312 136.03 238.939 134.328C240.566 132.588 242.797 131.491 245.369 131.491C247.261 131.491 248.963 132.134 250.4 133.155C250.627 132.21 251.383 131.491 252.367 131.491C253.464 131.491 254.372 132.399 254.372 133.533V140.985ZM250.362 140.985C250.362 139.397 249.795 138.035 248.887 137.089C247.979 136.068 246.693 135.538 245.369 135.538C244.007 135.538 242.721 136.067 241.851 137.089C240.943 138.035 240.414 139.397 240.414 140.985C240.414 142.536 240.943 143.898 241.851 144.881C242.721 145.826 244.007 146.356 245.369 146.356C246.693 146.356 247.979 145.826 248.887 144.881C249.795 143.897 250.362 142.536 250.362 140.985Z" fill="#263238"/>
<path d="M273.432 133.495C273.432 134.555 272.563 135.5 271.428 135.5C270.558 135.5 269.801 135.727 269.158 136.219C268.439 136.673 267.872 137.316 267.418 138.035C266.51 139.245 266.056 140.683 265.867 141.212V148.399C265.867 149.496 264.921 150.404 263.786 150.404C262.689 150.404 261.781 149.496 261.781 148.399V133.495C261.781 132.398 262.689 131.528 263.786 131.528C264.921 131.528 265.867 132.398 265.867 133.495V133.76C266.094 133.495 266.396 133.193 266.661 133.003C267.909 132.171 269.536 131.49 271.428 131.528C272.563 131.528 273.432 132.398 273.432 133.495Z" fill="#263238"/>
<path d="M275.172 140.947C275.209 135.802 279.219 131.491 284.402 131.491C289.319 131.491 293.215 135.16 293.518 140.266C293.518 140.304 293.518 140.38 293.518 140.455C293.518 140.531 293.518 140.72 293.48 140.795C293.367 141.703 292.572 142.308 291.513 142.308H279.484C279.673 143.178 280.089 144.162 280.77 144.805C281.565 145.713 283.078 146.393 284.402 146.507C285.763 146.62 287.39 146.28 288.336 145.561C289.131 144.729 290.682 144.842 291.173 145.448C291.665 145.977 292.043 147.112 291.173 147.907C289.32 149.609 287.088 150.404 284.403 150.404C279.219 150.366 275.209 146.092 275.172 140.947ZM279.295 139.094H289.999C289.621 137.581 287.692 135.349 284.401 135.084C281.185 135.235 279.598 137.543 279.295 139.094Z" fill="#263238"/>
<path d="M200.89 180.105C200.89 181.278 199.944 182.186 198.771 182.186C197.826 182.186 197.031 181.505 196.767 180.635C196.729 180.484 196.691 180.295 196.691 180.105V157.788C196.691 156.615 197.636 155.707 198.771 155.707C199.944 155.707 200.89 156.615 200.89 157.788V164.37C202.101 163.727 203.462 163.273 204.937 163.273C209.514 163.273 213.183 167.018 213.183 171.557V180.106C213.183 181.279 212.275 182.187 211.102 182.187C209.93 182.187 209.021 181.279 209.021 180.106V171.557C209.021 169.326 207.206 167.51 204.936 167.472C202.704 167.51 200.926 169.326 200.889 171.557V180.105H200.89Z" fill="#FFC727"/>
<path d="M224 158.544C224 159.679 223.13 160.625 221.957 160.625C220.822 160.625 219.914 159.679 219.914 158.544V157.75C219.914 156.615 220.822 155.708 221.957 155.708C223.13 155.708 224 156.616 224 157.75V158.544ZM224 165.391V180.143C224 181.278 223.13 182.185 221.957 182.185C220.822 182.185 219.914 181.277 219.914 180.143V165.391C219.914 164.18 220.822 163.31 221.957 163.31C223.13 163.31 224 164.18 224 165.391Z" fill="#FFC727"/>
<path d="M242.155 165.277C242.155 166.337 241.285 167.282 240.15 167.282C239.28 167.282 238.524 167.509 237.88 168.001C237.161 168.455 236.594 169.098 236.14 169.817C235.232 171.027 234.779 172.465 234.589 172.994V180.181C234.589 181.278 233.644 182.186 232.508 182.186C231.411 182.186 230.504 181.278 230.504 180.181V165.277C230.504 164.18 231.412 163.31 232.508 163.31C233.643 163.31 234.589 164.18 234.589 165.277V165.542C234.816 165.277 235.119 164.975 235.383 164.785C236.632 163.953 238.258 163.272 240.149 163.31C241.285 163.31 242.155 164.18 242.155 165.277Z" fill="#FFC727"/>
<path d="M251.23 158.544C251.23 159.679 250.36 160.625 249.187 160.625C248.052 160.625 247.145 159.679 247.145 158.544V157.75C247.145 156.615 248.053 155.708 249.187 155.708C250.36 155.708 251.23 156.616 251.23 157.75V158.544ZM251.23 165.391V180.143C251.23 181.278 250.36 182.185 249.187 182.185C248.052 182.185 247.145 181.277 247.145 180.143V165.391C247.145 164.18 248.053 163.31 249.187 163.31C250.361 163.31 251.23 164.18 251.23 165.391Z" fill="#FFC727"/>
<path d="M273.513 171.141V180.181C273.513 181.278 272.643 182.186 271.545 182.186C270.486 182.186 269.54 181.278 269.54 180.181V171.141C269.54 169.023 267.763 167.321 265.606 167.321C263.488 167.321 261.824 169.023 261.824 171.141V180.181C261.824 180.295 261.824 180.408 261.748 180.559C261.558 181.467 260.726 182.185 259.743 182.185C258.608 182.185 257.738 181.277 257.738 180.18V171.14V165.277C257.738 164.18 258.608 163.273 259.743 163.273C260.538 163.273 261.257 163.727 261.596 164.445C262.731 163.726 264.13 163.273 265.606 163.273C269.994 163.273 273.513 166.866 273.513 171.141Z" fill="#FFC727"/>
<path d="M297.83 172.843V179.879C297.83 184.835 293.782 188.958 288.751 188.958C287.352 188.958 285.952 188.618 284.779 188.012C283.796 187.558 283.341 186.31 283.872 185.288C284.363 184.267 285.536 183.889 286.595 184.343C287.238 184.683 287.957 184.872 288.751 184.872C291.21 184.872 293.215 183.132 293.707 180.825C292.345 181.771 290.604 182.338 288.751 182.338C286.255 182.338 283.947 181.241 282.32 179.463C280.694 177.799 279.672 175.454 279.672 172.806C279.672 170.196 280.694 167.851 282.32 166.073C283.947 164.371 286.254 163.274 288.751 163.274C290.719 163.274 292.458 163.879 293.82 164.862C294.008 163.954 294.841 163.274 295.825 163.274C296.96 163.274 297.83 164.182 297.83 165.278V172.806V172.843ZM293.782 172.805C293.782 171.292 293.177 169.854 292.344 168.947C291.361 167.888 290.188 167.321 288.75 167.321C287.427 167.321 286.178 167.888 285.271 168.947C284.363 169.855 283.757 171.292 283.757 172.805C283.757 174.393 284.362 175.831 285.271 176.701C286.178 177.722 287.427 178.252 288.75 178.252C290.188 178.252 291.36 177.723 292.344 176.701C293.177 175.831 293.782 174.393 293.782 172.805Z" fill="#FFC727"/>
<path d="M308.328 166.703V136.786C308.328 134.564 310.18 132.713 312.401 132.713C314.622 132.713 316.399 134.564 316.399 136.786V166.703C316.399 168.998 314.622 170.776 312.401 170.776C310.18 170.776 308.328 168.998 308.328 166.703ZM312.401 184.549C310.179 184.549 308.328 182.772 308.328 180.476V178.995C308.328 176.773 310.18 174.922 312.401 174.922C314.622 174.922 316.399 176.773 316.399 178.995V180.476C316.399 182.772 314.622 184.549 312.401 184.549Z" fill="#FFC727"/>
<path d="M173.539 255.676H44.4531V351.307H173.539V255.676Z" fill="white"/>
<path d="M173.541 351.307C173.337 351.307 44.4386 351.51 44.2516 351.51C44.0886 351.482 44.3216 255.765 44.2046 255.676V255.426H44.4546C44.5466 255.378 173.597 255.556 173.695 255.522C173.821 255.615 173.451 351.188 173.541 351.307ZM173.541 351.307C173.552 351.362 173.196 255.016 173.54 255.83C173.541 255.831 44.4536 255.926 44.4536 255.926L44.7026 255.677C44.6946 255.603 44.9006 352.186 44.4546 351.105C44.4546 351.104 173.541 351.307 173.541 351.307Z" fill="#263238"/>
<path d="M173.54 255.676H44.4531V264.234H173.54V255.676Z" fill="#455A64"/>
<path d="M52.1095 259.955C52.1095 260.946 51.3055 261.75 50.3145 261.75C49.3235 261.75 48.5195 260.946 48.5195 259.955C48.5195 258.964 49.3235 258.16 50.3145 258.16C51.3055 258.16 52.1095 258.964 52.1095 259.955Z" fill="#C7C7C7"/>
<path d="M59.4377 259.955C59.4377 260.946 58.6337 261.75 57.6427 261.75C56.6517 261.75 55.8477 260.946 55.8477 259.955C55.8477 258.964 56.6517 258.16 57.6427 258.16C58.6347 258.16 59.4377 258.964 59.4377 259.955Z" fill="white"/>
<path d="M66.7648 259.955C66.7648 260.946 65.9618 261.75 64.9698 261.75C63.9788 261.75 63.1758 260.946 63.1758 259.955C63.1758 258.964 63.9788 258.16 64.9698 258.16C65.9608 258.16 66.7648 258.964 66.7648 259.955Z" fill="#FFC727"/>
<path d="M67.934 290.256C68.327 291.457 69.462 292.33 70.794 292.33C72.454 292.33 73.807 290.976 73.807 289.339V280.67C73.807 279.993 74.353 279.469 75.03 279.469C75.685 279.469 76.2311 279.993 76.2311 280.67V289.339C76.2311 292.33 73.785 294.754 70.794 294.754C68.392 294.754 66.339 293.182 65.641 290.998C65.423 290.343 65.794 289.666 66.406 289.491C67.061 289.273 67.737 289.623 67.934 290.256Z" fill="#263238"/>
<path d="M80.5148 293.16C79.5758 292.199 79.0078 290.846 79.0078 289.317C79.0078 287.832 79.5758 286.544 80.5148 285.496C81.4968 284.47 82.7638 283.836 84.2708 283.836C85.7118 283.836 87.0218 284.47 87.9168 285.496C88.8988 286.544 89.4448 287.832 89.4448 289.317C89.4448 290.845 88.8988 292.199 87.9168 293.16C87.0218 294.186 85.7108 294.819 84.2708 294.819C82.7638 294.819 81.4978 294.186 80.5148 293.16ZM81.3888 289.317C81.3888 290.255 81.6728 291.02 82.1748 291.631C82.7208 292.154 83.4408 292.439 84.2708 292.439C85.0348 292.439 85.7338 292.155 86.2798 291.631C86.8258 291.02 87.1318 290.255 87.1318 289.317C87.1318 288.421 86.8258 287.635 86.2798 287.045C85.7338 286.565 85.0348 286.215 84.2708 286.215C83.4408 286.215 82.7208 286.565 82.1748 287.045C81.6718 287.636 81.3888 288.422 81.3888 289.317Z" fill="#263238"/>
<path d="M95.5416 281.106C95.5416 281.761 95.0396 282.307 94.3626 282.307C93.7076 282.307 93.1836 281.761 93.1836 281.106V280.648C93.1836 279.993 93.7076 279.468 94.3626 279.468C95.0396 279.468 95.5416 279.992 95.5416 280.648V281.106ZM95.5416 285.059V293.576C95.5416 294.23 95.0396 294.755 94.3626 294.755C93.7076 294.755 93.1836 294.231 93.1836 293.576V285.059C93.1836 284.361 93.7076 283.859 94.3626 283.859C95.0396 283.858 95.5416 284.36 95.5416 285.059Z" fill="#263238"/>
<path d="M108.406 288.378V293.597C108.406 294.23 107.904 294.754 107.27 294.754C106.659 294.754 106.113 294.23 106.113 293.597V288.378C106.113 287.155 105.087 286.173 103.842 286.173C102.619 286.173 101.658 287.155 101.658 288.378V293.597C101.658 293.662 101.658 293.728 101.615 293.816C101.506 294.339 101.026 294.755 100.458 294.755C99.8028 294.755 99.3008 294.231 99.3008 293.598V288.379V284.994C99.3008 284.361 99.8028 283.837 100.458 283.837C100.917 283.837 101.332 284.1 101.528 284.514C102.183 284.1 102.991 283.837 103.842 283.837C106.375 283.836 108.406 285.91 108.406 288.378Z" fill="#263238"/>
<path d="M120.245 293.16C119.306 292.199 118.738 290.846 118.738 289.317C118.738 287.832 119.306 286.544 120.245 285.496C121.228 284.47 122.494 283.836 124.001 283.836C125.442 283.836 126.752 284.47 127.648 285.496C128.63 286.544 129.176 287.832 129.176 289.317C129.176 290.845 128.63 292.199 127.648 293.16C126.752 294.186 125.442 294.819 124.001 294.819C122.494 294.819 121.227 294.186 120.245 293.16ZM121.118 289.317C121.118 290.255 121.402 291.02 121.904 291.631C122.45 292.154 123.17 292.439 124 292.439C124.764 292.439 125.463 292.155 126.009 291.631C126.555 291.02 126.861 290.255 126.861 289.317C126.861 288.421 126.555 287.635 126.009 287.045C125.463 286.565 124.764 286.215 124 286.215C123.17 286.215 122.45 286.565 121.904 287.045C121.402 287.636 121.118 288.422 121.118 289.317Z" fill="#263238"/>
<path d="M136.866 294.754C134.377 294.754 132.324 292.701 132.324 290.212V284.993C132.324 284.382 132.848 283.836 133.481 283.836C134.136 283.836 134.638 284.382 134.638 284.993V290.212C134.638 291.457 135.62 292.44 136.865 292.44C138.132 292.44 139.136 291.457 139.158 290.212V284.993C139.158 284.382 139.638 283.836 140.293 283.836C140.904 283.836 141.472 284.382 141.472 284.993V290.212C141.473 292.701 139.377 294.754 136.866 294.754Z" fill="#263238"/>
<path d="M152.658 284.992C152.658 285.603 152.156 286.149 151.501 286.149C150.999 286.149 150.562 286.281 150.191 286.564C149.776 286.827 149.449 287.198 149.187 287.612C148.663 288.311 148.401 289.141 148.292 289.447V293.595C148.292 294.228 147.746 294.752 147.091 294.752C146.458 294.752 145.934 294.228 145.934 293.595V284.991C145.934 284.358 146.458 283.856 147.091 283.856C147.746 283.856 148.292 284.358 148.292 284.991V285.144C148.423 284.991 148.598 284.816 148.751 284.707C149.471 284.227 150.41 283.833 151.502 283.855C152.156 283.857 152.658 284.359 152.658 284.992Z" fill="#263238"/>
<path d="M88.2135 305.165C88.2135 305.82 87.6455 306.366 86.9905 306.366H86.4445V312.458C87.1215 312.458 87.6455 313.004 87.6455 313.681C87.6455 314.358 87.1215 314.882 86.4445 314.882C85.1125 314.882 84.0215 313.79 84.0215 312.458V306.366H83.3885C82.7115 306.366 82.1875 305.82 82.1875 305.165C82.1875 304.488 82.7115 303.964 83.3885 303.964H84.0215V300.798C84.0215 300.121 84.5675 299.597 85.2445 299.597C85.9215 299.597 86.4455 300.121 86.4455 300.798V303.964H86.9915C87.6455 303.964 88.2135 304.488 88.2135 305.165Z" fill="#FFC727"/>
<path d="M90.3984 309.423C90.4194 306.453 92.7354 303.964 95.7264 303.964C98.5644 303.964 100.814 306.082 100.988 309.03C100.988 309.052 100.988 309.095 100.988 309.138C100.988 309.182 100.988 309.291 100.967 309.335C100.901 309.858 100.443 310.208 99.8314 310.208H92.8884C92.9974 310.71 93.2374 311.278 93.6304 311.649C94.0884 312.172 94.9624 312.566 95.7264 312.631C96.5124 312.696 97.4514 312.5 97.9974 312.085C98.4564 311.605 99.3514 311.67 99.6354 312.02C99.9194 312.326 100.137 312.981 99.6354 313.439C98.5654 314.421 97.2774 314.88 95.7264 314.88C92.7354 314.86 90.4204 312.393 90.3984 309.423ZM92.7784 308.354H98.9574C98.7394 307.48 97.6264 306.192 95.7264 306.039C93.8704 306.126 92.9534 307.458 92.7784 308.354Z" fill="#FFC727"/>
<path d="M113.703 309.445V313.724C113.703 314.357 113.179 314.881 112.546 314.881C111.978 314.881 111.542 314.466 111.41 313.943C110.58 314.532 109.598 314.881 108.506 314.881C107.021 314.881 105.733 314.27 104.794 313.287C103.855 312.282 103.309 310.929 103.309 309.444C103.309 307.937 103.855 306.583 104.794 305.6C105.733 304.596 107.021 303.962 108.506 303.962C109.598 303.962 110.58 304.333 111.41 304.923C111.541 304.377 111.978 303.962 112.546 303.962C113.179 303.962 113.703 304.486 113.703 305.142V309.445ZM111.388 309.445C111.388 308.527 111.06 307.741 110.536 307.196C110.012 306.606 109.269 306.3 108.505 306.3C107.719 306.3 106.977 306.606 106.474 307.196C105.95 307.741 105.645 308.527 105.645 309.445C105.645 310.34 105.951 311.126 106.474 311.694C106.977 312.24 107.719 312.546 108.505 312.546C109.269 312.546 110.011 312.24 110.536 311.694C111.061 311.126 111.388 310.34 111.388 309.445Z" fill="#FFC727"/>
<path d="M127.114 308.484C127.114 308.506 127.114 308.527 127.114 308.549V313.724C127.114 314.357 126.59 314.881 125.957 314.881C125.346 314.881 124.778 314.357 124.778 313.724V308.549C124.778 308.527 124.778 308.505 124.778 308.484C124.757 307.283 123.752 306.3 122.529 306.3C121.328 306.3 120.324 307.304 120.324 308.549V313.724C120.324 313.768 120.302 313.833 120.302 313.876C120.302 313.898 120.302 313.942 120.302 313.942C120.28 313.985 120.28 314.029 120.237 314.073C120.237 314.094 120.237 314.138 120.237 314.181C120.04 314.575 119.604 314.88 119.145 314.88C119.058 314.88 118.992 314.859 118.927 314.859C118.403 314.727 117.988 314.291 117.988 313.723V308.548C117.988 308.526 117.988 308.526 117.988 308.526V305.142C117.988 304.465 118.512 303.962 119.145 303.962C119.603 303.962 120.018 304.202 120.193 304.617C120.892 304.202 121.7 303.962 122.529 303.962C123.905 303.962 125.128 304.53 125.957 305.469C126.765 304.531 128.01 303.962 129.385 303.962C131.896 303.962 133.927 306.015 133.927 308.548V313.723C133.927 314.356 133.403 314.88 132.769 314.88C132.136 314.88 131.59 314.356 131.59 313.723V308.548C131.59 307.303 130.586 306.299 129.384 306.299C128.141 306.301 127.158 307.283 127.114 308.484Z" fill="#FFC727"/>
<path d="M132.956 328.521H85.0391V340.936H132.956V328.521Z" fill="#FFC727"/>
<path d="M92.2902 335.743C92.4082 336.105 92.7512 336.369 93.1532 336.369C93.6542 336.369 94.0632 335.96 94.0632 335.466V332.849C94.0632 332.645 94.2272 332.487 94.4322 332.487C94.6302 332.487 94.7952 332.645 94.7952 332.849V335.466C94.7952 336.369 94.0572 337.101 93.1532 337.101C92.4282 337.101 91.8082 336.626 91.5972 335.967C91.5312 335.769 91.6432 335.565 91.8272 335.512C92.0262 335.446 92.2302 335.551 92.2902 335.743Z" fill="white"/>
<path d="M99.4924 333.059C99.9014 333.494 100.158 334.075 100.158 334.727C100.158 335.379 99.9014 335.966 99.4924 336.395C99.1034 336.823 98.5234 337.1 97.9164 337.1C97.2834 337.1 96.7034 336.823 96.3014 336.395C95.8924 335.966 95.6484 335.379 95.6484 334.727C95.6484 334.075 95.8924 333.494 96.3014 333.059C96.7034 332.624 97.2834 332.354 97.9164 332.354C98.5234 332.354 99.1034 332.625 99.4924 333.059ZM99.4074 334.727C99.4074 334.279 99.2294 333.864 98.9594 333.574C98.6824 333.277 98.3134 333.106 97.9174 333.106C97.4954 333.106 97.1264 333.277 96.8504 333.574C96.5734 333.864 96.4024 334.279 96.4024 334.727C96.4024 335.175 96.5734 335.59 96.8504 335.873C97.1264 336.17 97.4964 336.348 97.9174 336.348C98.3134 336.348 98.6824 336.17 98.9594 335.873C99.2294 335.59 99.4074 335.175 99.4074 334.727Z" fill="white"/>
<path d="M101.172 332.848C101.172 332.644 101.33 332.486 101.534 332.486C101.732 332.486 101.903 332.644 101.903 332.848V336.738C101.903 336.942 101.732 337.1 101.534 337.1C101.33 337.1 101.172 336.942 101.172 336.738V332.848Z" fill="white"/>
<path d="M103.859 336.738C103.859 336.935 103.694 337.1 103.503 337.1C103.299 337.1 103.141 336.935 103.141 336.738V332.908C103.141 332.908 103.141 332.908 103.141 332.901C103.134 332.79 103.187 332.671 103.286 332.598C103.451 332.486 103.675 332.519 103.787 332.677L105.916 335.623V332.907C105.916 332.716 106.074 332.551 106.272 332.551C106.47 332.551 106.634 332.716 106.634 332.907V336.737C106.634 336.934 106.469 337.099 106.272 337.099C106.167 337.099 106.068 337.046 106.001 336.967C105.988 336.954 105.975 336.941 105.968 336.927L103.859 334.001V336.738Z" fill="white"/>
<path d="M110.914 336.738C110.914 336.935 110.75 337.1 110.558 337.1C110.354 337.1 110.196 336.935 110.196 336.738V332.908C110.196 332.908 110.196 332.908 110.196 332.901C110.189 332.79 110.242 332.671 110.341 332.598C110.506 332.486 110.73 332.519 110.842 332.677L112.971 335.623V332.907C112.971 332.716 113.129 332.551 113.327 332.551C113.525 332.551 113.689 332.716 113.689 332.907V336.737C113.689 336.934 113.525 337.099 113.327 337.099C113.222 337.099 113.123 337.046 113.056 336.967C113.043 336.954 113.03 336.941 113.023 336.927L110.914 334.001V336.738Z" fill="white"/>
<path d="M118.578 333.059C118.987 333.494 119.244 334.075 119.244 334.727C119.244 335.379 118.987 335.966 118.578 336.395C118.189 336.823 117.609 337.1 117.002 337.1C116.369 337.1 115.789 336.823 115.387 336.395C114.978 335.966 114.734 335.379 114.734 334.727C114.734 334.075 114.978 333.494 115.387 333.059C115.789 332.624 116.369 332.354 117.002 332.354C117.609 332.354 118.189 332.625 118.578 333.059ZM118.493 334.727C118.493 334.279 118.315 333.864 118.045 333.574C117.768 333.277 117.399 333.106 117.003 333.106C116.581 333.106 116.212 333.277 115.936 333.574C115.659 333.864 115.488 334.279 115.488 334.727C115.488 335.175 115.659 335.59 115.936 335.873C116.212 336.17 116.582 336.348 117.003 336.348C117.399 336.348 117.768 336.17 118.045 335.873C118.315 335.59 118.493 335.175 118.493 334.727Z" fill="white"/>
<path d="M126.387 333.033L124.772 336.876C124.766 336.897 124.752 336.923 124.739 336.936L124.733 336.943C124.726 336.957 124.713 336.969 124.7 336.982C124.7 336.996 124.693 336.996 124.693 337.003C124.68 337.01 124.66 337.023 124.647 337.035H124.64C124.62 337.049 124.607 337.068 124.581 337.075H124.575C124.575 337.075 124.568 337.075 124.568 337.082C124.555 337.082 124.535 337.088 124.515 337.095C124.508 337.095 124.502 337.095 124.502 337.095C124.482 337.102 124.463 337.102 124.436 337.102C124.416 337.102 124.396 337.102 124.376 337.095C124.363 337.095 124.356 337.095 124.356 337.095C124.336 337.088 124.323 337.082 124.31 337.082C124.303 337.075 124.303 337.075 124.296 337.075C124.27 337.068 124.25 337.049 124.237 337.035C124.231 337.035 124.231 337.035 124.231 337.035C124.211 337.022 124.198 337.01 124.185 337.003C124.179 336.996 124.179 336.996 124.172 336.982C124.165 336.969 124.152 336.957 124.146 336.943C124.133 336.943 124.133 336.936 124.133 336.936C124.12 336.923 124.113 336.897 124.107 336.876L123.243 334.833L122.38 336.876C122.373 336.897 122.36 336.923 122.354 336.936C122.347 336.936 122.347 336.943 122.347 336.943C122.334 336.957 122.321 336.969 122.308 336.982C122.308 336.996 122.301 336.996 122.301 337.003C122.288 337.01 122.275 337.023 122.261 337.035C122.248 337.035 122.248 337.035 122.248 337.035C122.228 337.049 122.208 337.068 122.195 337.075C122.188 337.075 122.188 337.075 122.188 337.075C122.188 337.075 122.182 337.075 122.182 337.082C122.156 337.082 122.143 337.088 122.129 337.095C122.123 337.095 122.116 337.095 122.109 337.095C122.089 337.102 122.07 337.102 122.05 337.102C122.03 337.102 122.004 337.102 121.984 337.095C121.977 337.095 121.971 337.095 121.964 337.095C121.944 337.088 121.931 337.082 121.918 337.082C121.912 337.075 121.912 337.075 121.905 337.075C121.885 337.068 121.859 337.049 121.845 337.035C121.839 337.035 121.839 337.035 121.839 337.035C121.819 337.022 121.813 337.01 121.793 337.003C121.787 336.996 121.787 336.996 121.78 336.982C121.766 336.969 121.76 336.957 121.747 336.943V336.936C121.734 336.923 121.727 336.897 121.714 336.876L120.093 333.033C120.02 332.855 120.099 332.637 120.29 332.565C120.468 332.486 120.686 332.572 120.758 332.756L122.05 335.808L122.9 333.785C122.96 333.639 123.098 333.56 123.243 333.56C123.382 333.56 123.52 333.639 123.586 333.785L124.437 335.808L125.722 332.756C125.801 332.571 126.012 332.485 126.203 332.565C126.381 332.637 126.467 332.855 126.387 333.033Z" fill="white"/>
<path d="M455.543 37.6406H326.457V133.272H455.543V37.6406Z" fill="white"/>
<path d="M455.544 133.271C455.34 133.271 326.442 133.474 326.255 133.474C326.092 133.446 326.325 37.7291 326.208 37.6401V37.3901H326.458C326.55 37.3421 455.6 37.5201 455.698 37.4861C455.824 37.5801 455.453 133.153 455.544 133.271ZM455.544 133.271C455.555 133.326 455.199 36.9801 455.543 37.7931C455.544 37.7931 326.457 37.8891 326.457 37.8891L326.706 37.6401C326.698 37.5651 326.904 134.149 326.457 133.068C326.458 133.068 455.544 133.271 455.544 133.271Z" fill="#263238"/>
<path d="M455.544 37.6406H326.457V46.1986H455.544V37.6406Z" fill="#455A64"/>
<path d="M334.113 41.92C334.113 42.911 333.31 43.715 332.318 43.715C331.327 43.715 330.523 42.911 330.523 41.92C330.523 40.929 331.327 40.126 332.318 40.126C333.309 40.125 334.113 40.929 334.113 41.92Z" fill="#C7C7C7"/>
<path d="M341.442 41.92C341.442 42.911 340.638 43.715 339.647 43.715C338.656 43.715 337.852 42.911 337.852 41.92C337.852 40.929 338.655 40.126 339.647 40.126C340.639 40.125 341.442 40.929 341.442 41.92Z" fill="white"/>
<path d="M348.769 41.92C348.769 42.911 347.966 43.715 346.974 43.715C345.983 43.715 345.18 42.911 345.18 41.92C345.18 40.929 345.983 40.126 346.974 40.126C347.966 40.125 348.769 40.929 348.769 41.92Z" fill="#FFC727"/>
<path d="M346.061 86.4054C346.37 87.3474 347.26 88.0334 348.305 88.0334C349.608 88.0334 350.67 86.9704 350.67 85.6854V78.8825C350.67 78.3515 351.099 77.9395 351.63 77.9395C352.144 77.9395 352.572 78.3515 352.572 78.8825V85.6854C352.572 88.0334 350.652 89.9354 348.304 89.9354C346.419 89.9354 344.809 88.7014 344.26 86.9884C344.089 86.4744 344.38 85.9434 344.861 85.8055C345.376 85.6335 345.907 85.9084 346.061 86.4054Z" fill="#263238"/>
<path d="M364.791 79.4317C365.854 80.5627 366.521 82.0707 366.521 83.7667C366.521 85.4637 365.853 86.9887 364.791 88.1017C363.779 89.2157 362.271 89.9347 360.695 89.9347C359.05 89.9347 357.542 89.2147 356.497 88.1017C355.434 86.9877 354.801 85.4627 354.801 83.7667C354.801 82.0707 355.435 80.5627 356.497 79.4317C357.542 78.3007 359.051 77.5977 360.695 77.5977C362.271 77.5977 363.779 78.2997 364.791 79.4317ZM364.568 83.7667C364.568 82.6017 364.105 81.5217 363.402 80.7677C362.682 79.9967 361.723 79.5507 360.695 79.5507C359.598 79.5507 358.638 79.9967 357.919 80.7677C357.199 81.5217 356.754 82.6017 356.754 83.7667C356.754 84.9317 357.199 86.0117 357.919 86.7487C358.639 87.5197 359.599 87.9817 360.695 87.9817C361.723 87.9817 362.682 87.5197 363.402 86.7487C364.105 86.0117 364.568 84.9317 364.568 83.7667Z" fill="#263238"/>
<path d="M369.301 88.9924V78.8825C369.301 78.3515 369.73 77.9395 370.243 77.9395C370.261 77.9395 370.261 77.9395 370.295 77.9395C370.295 77.9395 370.295 77.9395 370.312 77.9395H372.677C374.476 77.9395 375.933 79.3964 375.933 81.1954C375.933 81.9324 375.693 82.6005 375.282 83.1495C376.31 83.8005 377.013 84.9484 377.013 86.2514C377.013 88.2904 375.367 89.9354 373.346 89.9354H370.313C370.296 89.9354 370.296 89.9184 370.296 89.9184C370.262 89.9184 370.262 89.9354 370.244 89.9354C369.729 89.9354 369.301 89.5064 369.301 88.9924ZM371.203 82.5844H372.677C373.431 82.5844 374.031 81.9504 374.031 81.1964C374.031 80.4424 373.431 79.8425 372.677 79.8425H371.203V82.5844ZM371.203 88.0334H373.345C374.322 88.0164 375.11 87.2444 375.11 86.2514C375.11 85.2744 374.322 84.5035 373.345 84.4865H371.203V88.0334Z" fill="#263238"/>
<path d="M394.08 79.4317C395.143 80.5627 395.81 82.0707 395.81 83.7667C395.81 85.4637 395.142 86.9887 394.08 88.1017C393.068 89.2157 391.56 89.9347 389.984 89.9347C388.339 89.9347 386.831 89.2147 385.786 88.1017C384.723 86.9877 384.09 85.4627 384.09 83.7667C384.09 82.0707 384.724 80.5627 385.786 79.4317C386.831 78.3007 388.34 77.5977 389.984 77.5977C391.561 77.5977 393.068 78.2997 394.08 79.4317ZM393.857 83.7667C393.857 82.6017 393.394 81.5217 392.691 80.7677C391.971 79.9967 391.012 79.5507 389.984 79.5507C388.887 79.5507 387.927 79.9967 387.208 80.7677C386.488 81.5217 386.043 82.6017 386.043 83.7667C386.043 84.9317 386.488 86.0117 387.208 86.7487C387.928 87.5197 388.888 87.9817 389.984 87.9817C391.012 87.9817 391.971 87.5197 392.691 86.7487C393.394 86.0117 393.857 84.9317 393.857 83.7667Z" fill="#263238"/>
<path d="M399.188 88.9924V78.8825C399.188 78.3685 399.598 77.9395 400.129 77.9395H400.146C400.146 77.9395 400.146 77.9395 400.181 77.9395H405.733C406.23 77.9395 406.676 78.3685 406.676 78.8825C406.676 79.4135 406.23 79.8415 405.733 79.8415H401.09V82.9774H405.082C405.596 82.9774 406.023 83.4224 406.023 83.9194C406.023 84.4504 405.595 84.8794 405.082 84.8794H401.09V88.9924C401.09 89.5064 400.66 89.9344 400.129 89.9344C399.599 89.9354 399.188 89.5064 399.188 88.9924Z" fill="#263238"/>
<path d="M409.559 88.9924V78.8825C409.559 78.3685 409.97 77.9395 410.501 77.9395H410.519C410.519 77.9395 410.519 77.9395 410.553 77.9395H416.105C416.602 77.9395 417.047 78.3685 417.047 78.8825C417.047 79.4135 416.602 79.8415 416.105 79.8415H411.461V82.9774H415.453C415.967 82.9774 416.395 83.4224 416.395 83.9194C416.395 84.4504 415.966 84.8794 415.453 84.8794H411.461V88.9924C411.461 89.5064 411.032 89.9344 410.501 89.9344C409.97 89.9354 409.559 89.5064 409.559 88.9924Z" fill="#263238"/>
<path d="M419.926 88.9924V78.8825C419.926 78.3515 420.337 77.9395 420.868 77.9395H420.886C420.886 77.9395 420.886 77.9395 420.92 77.9395H426.472C426.969 77.9395 427.414 78.3515 427.414 78.8825C427.414 79.4135 426.969 79.8415 426.472 79.8415H421.829V82.9774H425.821C426.335 82.9774 426.763 83.4224 426.763 83.9194C426.763 84.4504 426.334 84.8794 425.821 84.8794H421.829V88.0324H426.472C426.969 88.0324 427.414 88.4604 427.414 88.9924C427.414 89.5064 426.969 89.9344 426.472 89.9344H420.92C420.886 89.9344 420.886 89.9174 420.886 89.9174L420.868 89.9344C420.337 89.9354 419.926 89.5064 419.926 88.9924Z" fill="#263238"/>
<path d="M438.364 88.5125C438.536 89.0095 438.261 89.5404 437.764 89.7124C437.696 89.7294 437.558 89.7635 437.387 89.7635C437.387 89.7635 437.387 89.7635 437.37 89.7635C437.199 89.7635 436.942 89.7294 436.702 89.5754C436.479 89.4384 436.291 89.2154 436.154 88.9754C435.914 88.4784 435.794 87.8614 435.794 86.9194C435.776 86.5934 435.708 86.3704 435.588 86.1824C435.485 85.9944 435.28 85.8234 435.074 85.6854C434.715 85.4454 434.268 85.3085 434.114 85.2735H432.093V88.9924C432.093 89.5064 431.664 89.9344 431.133 89.9344C430.602 89.9344 430.191 89.5064 430.191 88.9924V78.8825C430.191 78.3515 430.602 77.9395 431.133 77.9395C431.133 77.9395 431.133 77.9395 431.15 77.9395H434.2C436.239 77.9395 437.867 79.5845 437.867 81.6245C437.867 82.7555 437.353 83.7484 436.531 84.4344C436.754 84.6054 436.959 84.8115 437.131 85.0685C437.474 85.5655 437.696 86.1994 437.696 86.9194C437.679 87.4334 437.73 87.7585 437.764 87.9305C438.039 88.0165 438.262 88.2215 438.364 88.5125ZM435.966 81.6245C435.966 80.6305 435.177 79.8425 434.2 79.8425H432.093V83.3725H434.2C435.177 83.3725 435.966 82.5845 435.966 81.6245Z" fill="#263238"/>
<path d="M414.96 107.778H367.043V120.193H414.96V107.778Z" fill="#455A64"/>
<path d="M394.097 115.991C394.097 116.188 393.933 116.353 393.742 116.353C393.538 116.353 393.38 116.188 393.38 115.991V112.161C393.38 112.161 393.38 112.161 393.38 112.154C393.373 112.043 393.426 111.924 393.525 111.851C393.69 111.739 393.914 111.772 394.026 111.93L396.155 114.876V112.16C396.155 111.969 396.313 111.804 396.512 111.804C396.709 111.804 396.874 111.969 396.874 112.16V115.99C396.874 116.187 396.709 116.352 396.512 116.352C396.407 116.352 396.308 116.299 396.241 116.22C396.228 116.207 396.215 116.194 396.208 116.18L394.099 113.254V115.991H394.097Z" fill="white"/>
<path d="M401.76 112.312C402.169 112.748 402.426 113.328 402.426 113.98C402.426 114.632 402.169 115.219 401.76 115.648C401.371 116.076 400.791 116.353 400.185 116.353C399.552 116.353 398.972 116.076 398.57 115.648C398.162 115.219 397.918 114.632 397.918 113.98C397.918 113.328 398.162 112.748 398.57 112.312C398.972 111.877 399.552 111.607 400.185 111.607C400.791 111.607 401.371 111.878 401.76 112.312ZM401.675 113.98C401.675 113.532 401.496 113.117 401.227 112.827C400.95 112.53 400.581 112.359 400.185 112.359C399.763 112.359 399.394 112.53 399.118 112.827C398.841 113.117 398.67 113.532 398.67 113.98C398.67 114.428 398.841 114.843 399.118 115.126C399.394 115.423 399.763 115.601 400.185 115.601C400.58 115.601 400.95 115.423 401.227 115.126C401.496 114.844 401.675 114.429 401.675 113.98Z" fill="white"/>
<path d="M409.569 112.286L407.954 116.129C407.947 116.15 407.935 116.176 407.921 116.189L407.915 116.196C407.908 116.21 407.894 116.222 407.882 116.235C407.882 116.249 407.875 116.249 407.875 116.256C407.862 116.263 407.842 116.276 407.829 116.288H407.822C407.802 116.302 407.789 116.321 407.762 116.328H407.756C407.756 116.328 407.749 116.328 407.749 116.335C407.735 116.335 407.716 116.341 407.696 116.348C407.689 116.348 407.682 116.348 407.682 116.348C407.662 116.355 407.643 116.355 407.617 116.355C407.597 116.355 407.577 116.355 407.557 116.348C407.544 116.348 407.537 116.348 407.537 116.348C407.517 116.341 407.504 116.335 407.491 116.335C407.484 116.328 407.484 116.328 407.477 116.328C407.451 116.321 407.431 116.302 407.417 116.288C407.411 116.288 407.411 116.288 407.411 116.288C407.39 116.275 407.378 116.263 407.364 116.256C407.358 116.249 407.358 116.249 407.351 116.235C407.344 116.222 407.331 116.21 407.325 116.196C407.311 116.196 407.311 116.189 407.311 116.189C407.298 116.176 407.291 116.15 407.285 116.129L406.422 114.086L405.559 116.129C405.552 116.15 405.539 116.176 405.533 116.189C405.526 116.189 405.526 116.196 405.526 116.196C405.513 116.21 405.5 116.222 405.487 116.235C405.487 116.249 405.48 116.249 405.48 116.256C405.466 116.263 405.454 116.276 405.44 116.288C405.427 116.288 405.427 116.288 405.427 116.288C405.407 116.302 405.387 116.321 405.374 116.328C405.367 116.328 405.367 116.328 405.367 116.328C405.367 116.328 405.36 116.328 405.36 116.335C405.334 116.335 405.321 116.341 405.307 116.348C405.301 116.348 405.294 116.348 405.287 116.348C405.267 116.355 405.248 116.355 405.227 116.355C405.207 116.355 405.181 116.355 405.162 116.348C405.155 116.348 405.148 116.348 405.142 116.348C405.121 116.341 405.109 116.335 405.095 116.335C405.089 116.328 405.089 116.328 405.082 116.328C405.062 116.321 405.036 116.302 405.022 116.288C405.015 116.288 405.015 116.288 405.015 116.288C404.995 116.275 404.989 116.263 404.969 116.256C404.962 116.249 404.962 116.249 404.956 116.235C404.942 116.222 404.935 116.21 404.923 116.196V116.189C404.909 116.176 404.903 116.15 404.89 116.129L403.269 112.286C403.196 112.108 403.275 111.89 403.466 111.818C403.644 111.739 403.862 111.825 403.934 112.009L405.226 115.061L406.076 113.038C406.136 112.892 406.274 112.813 406.419 112.813C406.558 112.813 406.696 112.892 406.762 113.038L407.613 115.061L408.898 112.009C408.977 111.824 409.188 111.738 409.38 111.818C409.562 111.891 409.648 112.108 409.569 112.286Z" fill="white"/>
<path d="M375.017 115.283H373.426L373.105 116.134C373.045 116.278 372.908 116.363 372.764 116.363C372.718 116.363 372.679 116.356 372.639 116.343C372.449 116.271 372.358 116.061 372.423 115.872L373.871 112.014C373.929 111.87 374.074 111.779 374.218 111.785C374.369 111.779 374.506 111.87 374.565 112.014L376.013 115.872C376.078 116.062 375.986 116.272 375.796 116.343C375.763 116.356 375.717 116.363 375.672 116.363C375.527 116.363 375.39 116.278 375.337 116.134L375.017 115.283ZM374.749 114.563L374.218 113.154L373.688 114.563H374.749Z" fill="white"/>
<path d="M378.443 114.582H377.637V116.003C377.637 116.2 377.473 116.363 377.271 116.363C377.074 116.363 376.91 116.2 376.91 116.003V112.138C376.91 111.935 377.074 111.778 377.271 111.778H377.278H378.443C379.222 111.778 379.851 112.407 379.851 113.186C379.851 113.953 379.222 114.582 378.443 114.582ZM377.637 113.855H378.443C378.823 113.855 379.117 113.553 379.124 113.187C379.117 112.807 378.823 112.505 378.443 112.505H377.637V113.855Z" fill="white"/>
<path d="M382.26 114.582H381.454V116.003C381.454 116.2 381.29 116.363 381.088 116.363C380.891 116.363 380.727 116.2 380.727 116.003V112.138C380.727 111.935 380.891 111.778 381.088 111.778H381.095H382.26C383.039 111.778 383.668 112.407 383.668 113.186C383.668 113.953 383.038 114.582 382.26 114.582ZM381.454 113.855H382.26C382.64 113.855 382.934 113.553 382.941 113.187C382.934 112.807 382.64 112.505 382.26 112.505H381.454V113.855Z" fill="white"/>
<path d="M384.543 116.003V112.138C384.543 111.941 384.7 111.778 384.904 111.778C385.106 111.778 385.27 111.942 385.27 112.138V115.636H387.045C387.235 115.636 387.406 115.8 387.406 116.003C387.406 116.2 387.235 116.363 387.045 116.363H384.923C384.911 116.363 384.911 116.363 384.911 116.363C384.904 116.363 384.904 116.363 384.904 116.363C384.701 116.364 384.543 116.2 384.543 116.003Z" fill="white"/>
<path d="M390.567 112.395L389.225 114.236V116.005C389.225 116.208 389.068 116.365 388.864 116.365C388.674 116.365 388.504 116.208 388.504 116.005V114.236L387.173 112.395C387.049 112.238 387.082 112.015 387.246 111.897C387.409 111.779 387.632 111.812 387.744 111.976L388.863 113.509L389.984 111.976C390.108 111.812 390.331 111.78 390.488 111.897C390.645 112.015 390.678 112.238 390.567 112.395Z" fill="white"/>
<path d="M310.875 341.129C310.875 341.129 279.756 365.942 279.732 365.961C273.312 371.278 267.779 376.054 265.147 378.792C265.131 378.804 265.115 378.817 265.105 378.837C264.111 379.869 263.539 380.603 263.514 380.953C263.51 380.982 263.5 381.002 263.505 381.024C263.793 384.007 304.788 436.547 306.834 437.898C308.879 439.263 312.892 433.523 312.928 430.214C312.951 426.89 306.259 399.762 306.259 399.762L336.204 373.681L310.875 341.129Z" fill="#EB9481"/>
<path d="M306.834 437.899C304.786 436.552 263.79 384.007 263.503 381.018C263.494 381.001 263.507 380.984 263.51 380.95C263.535 380.605 264.106 379.869 265.103 378.838C265.111 378.812 265.128 378.803 265.145 378.795C267.771 376.052 273.305 371.275 279.728 365.961C279.736 365.957 281.258 364.739 283.633 362.854L310.205 396.313L306.255 399.758C306.255 399.758 312.947 426.888 312.924 430.209C312.897 433.522 308.879 439.259 306.834 437.899Z" fill="#DBDBDB"/>
<path d="M306.832 437.898C304.782 436.546 263.79 384.01 263.502 381.019C263.373 379.884 270.68 373.465 279.731 365.963C279.827 365.885 279.922 365.808 280.017 365.731L306.841 399.329L306.256 399.765C306.256 399.765 312.952 426.892 312.923 430.216C312.888 433.517 308.875 439.258 306.832 437.898Z" fill="#FFC727"/>
<path opacity="0.3" d="M306.832 437.898C304.782 436.546 263.79 384.01 263.502 381.019C263.373 379.884 270.68 373.465 279.731 365.963C279.827 365.885 279.922 365.808 280.017 365.731L306.841 399.329L306.256 399.765C306.256 399.765 312.952 426.892 312.923 430.216C312.888 433.517 308.875 439.258 306.832 437.898Z" fill="#2B5A9E"/>
<path d="M308.405 435.714C301.712 426.689 273.868 390.917 266.566 382.504C266.506 382.435 266.458 382.473 266.51 382.547C272.948 391.638 301.082 427.182 308.26 435.828C308.411 436.01 308.546 435.905 308.405 435.714Z" fill="#263238"/>
<path d="M308.376 402.692C306.307 398.7 302.447 394.855 297.886 394.129C297.709 394.101 297.672 394.352 297.796 394.438C301.563 397.031 304.763 399.698 307.925 403.022C308.148 403.256 308.524 402.978 308.376 402.692Z" fill="#263238"/>
<path d="M308.825 406.391C306.756 402.398 302.896 398.554 298.335 397.828C298.158 397.8 298.121 398.052 298.245 398.136C302.012 400.729 305.212 403.397 308.374 406.72C308.596 406.954 308.973 406.676 308.825 406.391Z" fill="#263238"/>
<path d="M309.27 410.089C307.201 406.096 303.341 402.251 298.78 401.526C298.603 401.498 298.566 401.749 298.69 401.834C302.457 404.427 305.657 407.094 308.819 410.418C309.041 410.653 309.418 410.375 309.27 410.089Z" fill="#263238"/>
<path d="M281.715 364.258L311.371 399.652C311.371 399.652 378.561 338.886 380.9 329.558C383.56 318.953 400.163 242.87 400.196 238.688C400.236 233.617 398.004 213.213 398.004 213.213H354.969C354.969 213.213 339.847 304.553 338.546 307.897C337.147 311.497 281.715 364.258 281.715 364.258Z" fill="#263238"/>
<path d="M315.101 389.234C311.166 383.285 295.074 363.421 292.928 361.609C292.881 361.569 292.785 361.645 292.814 361.7C294.115 364.191 307.707 381.54 314.939 389.364C315.014 389.448 315.163 389.329 315.101 389.234Z" fill="#37474F"/>
<path d="M385.229 213.213L385.463 309.533C383.304 318.489 381.595 326.782 380.902 329.556C379.691 334.381 361.163 352.938 343.544 369.757L337 309.925C337.879 308.919 338.416 308.216 338.543 307.903C339.852 304.553 354.971 213.213 354.971 213.213H385.229Z" fill="#37474F"/>
<path d="M343.333 402.396C343.333 402.396 343.324 442.197 343.324 442.227C343.477 450.561 343.76 457.865 344.259 461.63C344.259 461.65 344.258 461.67 344.268 461.691C344.455 463.112 344.671 464.017 344.93 464.254C344.95 464.275 344.96 464.295 344.98 464.306C347.491 465.941 414.129 466.658 416.461 465.901C418.803 465.154 416.819 458.437 414.255 456.346C411.671 454.255 386.291 442.569 386.291 442.569L384.576 402.896L343.333 402.396Z" fill="#EB9481"/>
<path d="M416.463 465.901C414.132 466.662 347.492 465.943 344.976 464.303C344.957 464.299 344.952 464.279 344.927 464.255C344.673 464.021 344.454 463.115 344.27 461.693C344.255 461.671 344.259 461.652 344.262 461.633C343.755 457.87 343.471 450.565 343.324 442.23C343.326 442.221 343.323 440.272 343.33 437.24L386.057 437.333L386.286 442.569C386.286 442.569 411.667 454.256 414.25 456.345C416.823 458.432 418.801 465.151 416.463 465.901Z" fill="#DBDBDB"/>
<path d="M416.462 465.903C414.126 466.662 347.494 465.946 344.977 464.305C344.009 463.699 343.548 453.983 343.327 442.229C343.326 442.106 343.325 441.983 343.324 441.861L386.317 441.843L386.292 442.572C386.292 442.572 411.674 454.254 414.254 456.349C416.813 458.436 418.799 465.154 416.462 465.903Z" fill="#FFC727"/>
<path opacity="0.3" d="M416.462 465.903C414.126 466.662 347.494 465.946 344.977 464.305C344.009 463.699 343.548 453.983 343.327 442.229C343.326 442.106 343.325 441.983 343.324 441.861L386.317 441.843L386.292 442.572C386.292 442.572 411.674 454.254 414.254 456.349C416.813 458.436 418.799 465.154 416.462 465.903Z" fill="black"/>
<path d="M415.736 463.311C404.507 462.914 359.179 462.374 348.049 462.835C347.958 462.839 347.958 462.9 348.048 462.906C359.169 463.542 404.501 463.715 415.735 463.495C415.972 463.49 415.973 463.32 415.736 463.311Z" fill="#263238"/>
<path d="M389.903 442.741C385.492 441.869 380.079 442.489 376.668 445.602C376.536 445.722 376.709 445.908 376.853 445.865C381.229 444.537 385.31 443.699 389.88 443.299C390.201 443.271 390.219 442.803 389.903 442.741Z" fill="#263238"/>
<path d="M393.071 444.699C388.66 443.826 383.247 444.447 379.836 447.559C379.704 447.679 379.877 447.866 380.021 447.822C384.397 446.494 388.478 445.656 393.048 445.256C393.37 445.229 393.387 444.761 393.071 444.699Z" fill="#263238"/>
<path d="M396.244 446.655C391.833 445.782 386.419 446.402 383.008 449.516C382.876 449.637 383.049 449.822 383.193 449.779C387.569 448.451 391.65 447.613 396.22 447.214C396.543 447.185 396.56 446.717 396.244 446.655Z" fill="#263238"/>
<path d="M394.879 213.215C394.879 213.215 393.926 232.084 387.074 243.136C387.074 243.136 379.634 246.038 378.817 246.564C378.817 246.564 383.363 312.755 384.366 334.847C385.48 359.4 387.108 440.043 387.108 440.043L341.867 439.852C341.867 439.852 345.078 343.355 344.828 337.174C344.433 327.24 335.205 249 335.302 244.254C335.505 234.331 342.96 213.216 342.96 213.216H394.879V213.215Z" fill="#263238"/>
<path d="M382.517 430.142C371.034 429.512 348.802 429.631 345.957 430.174C345.894 430.186 345.894 430.308 345.957 430.32C348.803 430.862 375.812 431.068 382.517 430.352C382.633 430.339 382.634 430.148 382.517 430.142Z" fill="#37474F"/>
<path d="M352.51 228.092C353.349 227.966 354.226 228.084 355.073 228.034C355.964 227.981 356.85 227.893 357.726 227.721C359.379 227.397 361.039 226.882 362.55 226.13C364.109 225.354 365.209 224.143 366.209 222.747C366.742 222.003 369.225 217.981 369.248 217.952C369.32 217.86 369.512 217.944 369.483 218.047C369.319 218.626 367.633 222.156 367.13 223.029C366.185 224.67 365.015 226.109 363.324 227.017C361.671 227.904 359.833 228.424 357.978 228.66C357.023 228.782 356.052 228.838 355.09 228.788C354.22 228.743 353.249 228.716 352.444 228.354C352.302 228.29 352.391 228.11 352.51 228.092Z" fill="#37474F"/>
<path d="M387.012 243.198C383.187 244.284 379.463 245.92 375.894 247.653C375.754 247.721 375.832 247.937 375.983 247.882C379.721 246.514 383.528 245.217 387.186 243.644C387.472 243.521 387.305 243.114 387.012 243.198Z" fill="#37474F"/>
<path d="M389.544 218.199C389.541 218.072 389.321 218.032 389.314 218.168C389.106 222.506 388.621 226.305 388.033 230.338C387.761 232.21 385.677 242.524 382.457 241.587C381.918 241.43 381.668 240.877 381.628 240.049C381.58 239.054 382.019 237.86 382.236 236.884C382.717 234.727 383.128 232.56 383.435 230.371C384.009 226.286 384.251 222.183 383.976 218.065C383.967 217.93 383.772 217.929 383.765 218.065C383.459 223.746 382.999 229.409 381.842 234.989C381.285 237.671 379.7 241.668 382.506 242.239C385.364 242.821 387.601 236.103 388.054 234.257C389.32 229.106 389.667 223.488 389.544 218.199Z" fill="#37474F"/>
<path d="M382.53 241.871C382.197 242.553 381.92 243.267 381.678 243.986C381.49 244.544 381.244 245.146 381.276 245.741C381.282 245.856 381.434 245.876 381.499 245.801C381.908 245.337 382.106 244.682 382.351 244.119C382.636 243.466 382.934 242.818 383.2 242.158C383.377 241.72 382.735 241.451 382.53 241.871Z" fill="#37474F"/>
<path d="M398.403 228.148C398.131 227.909 397.854 227.872 397.581 227.697C397.295 227.513 397.009 227.299 396.724 227.016C396.186 226.482 395.641 225.784 395.137 224.91C394.617 224.007 394.232 222.807 393.874 221.466C393.683 220.751 392.903 216.996 392.895 216.969C392.869 216.88 392.7 216.985 392.699 217.079C392.698 217.956 393.255 220.849 393.44 221.668C393.787 223.209 394.347 224.507 394.913 225.542C395.466 226.554 396.068 227.283 396.668 227.774C396.977 228.027 397.289 228.227 397.596 228.336C397.873 228.434 398.183 228.564 398.431 228.383C398.475 228.348 398.442 228.182 398.403 228.148Z" fill="#37474F"/>
<path d="M376.311 155.684C387.427 178.397 399.871 199.538 408.341 200.198C409.808 200.312 417.922 199.307 420.476 193.861C424.782 184.679 429.111 166.243 429.898 157.437C430.247 153.533 404.085 148.874 403.174 152.965C401.898 158.694 401.791 163.196 401.174 163.11C400.144 162.967 394.473 156.139 384.305 147.426C370.331 135.452 372.625 148.153 376.311 155.684Z" fill="#EB9481"/>
<path d="M434.006 147.006C433.189 152.489 427.133 163.048 424.692 165.033C422.251 167.018 403.957 157.319 403.408 154.137C402.859 150.956 407.039 132.709 411.187 128.863C415.334 125.018 434.853 141.326 434.006 147.006Z" fill="#EB9481"/>
<path d="M403.57 150.904C403.57 150.904 401.996 143.868 398.619 138.487C395.78 133.963 391.052 127.566 393.428 125.948C398.305 122.626 410.089 138.584 410.089 138.584C410.089 138.584 414.157 146.459 409.617 150.178C406.769 152.511 403.57 150.904 403.57 150.904Z" fill="#EB9481"/>
<path d="M414.836 139.636L420.081 136.08L409.782 120.892L403.145 125.392L414.836 139.636Z" fill="#FFC727"/>
<path d="M403.145 125.392L407.603 130.826L414.838 139.637L420.083 136.081L409.783 120.891L403.145 125.392Z" fill="#FFC727"/>
<path opacity="0.1" d="M403.145 125.392L407.603 130.826L413.711 126.685L409.783 120.891L403.145 125.392Z" fill="black"/>
<path d="M404.035 128.04L412.293 122.44L408.04 116.167L399.782 121.766L404.035 128.04Z" fill="#FFC727"/>
<path d="M392.709 123.238L399.558 119.529L392.675 109.379L386.695 114.369L392.709 123.238Z" fill="#FFC727"/>
<path d="M394.613 105.131L404.77 120.11L416.407 114.101L447.674 106.339L423.281 70.3652L404.501 96.5432L394.613 105.131Z" fill="#FFC727"/>
<path d="M448.328 106.046C451.537 103.871 448.651 94.0134 441.881 84.0298C435.112 74.0461 427.023 67.7166 423.814 69.8924C420.605 72.0682 423.491 81.9254 430.261 91.909C437.03 101.893 445.119 108.222 448.328 106.046Z" fill="#FFC727"/>
<path opacity="0.2" d="M431.395 90.6693C437.404 99.5323 444.406 105.272 447.033 103.491C449.66 101.709 446.918 93.0813 440.909 84.2183C434.899 75.3553 427.898 69.6153 425.271 71.3963C422.643 73.1773 425.385 81.8063 431.395 90.6693Z" fill="black"/>
<path d="M432.17 90.1451C432.97 91.3251 433.788 92.4481 434.613 93.5051C435.573 93.5911 436.564 93.3561 437.422 92.7741C439.402 91.4311 439.92 88.7341 438.574 86.7501L437.423 85.0531C436.078 83.0691 433.38 82.5511 431.4 83.8941C430.558 84.4651 429.977 85.2901 429.695 86.1951C430.439 87.4931 431.269 88.8171 432.17 90.1451Z" fill="#FFC727"/>
<path d="M399.525 124.877L412.769 117.705L399.459 98.0752L387.895 107.726L399.525 124.877Z" fill="#FFC727"/>
<path opacity="0.2" d="M399.525 124.877L412.769 117.705L399.459 98.0752L387.895 107.726L399.525 124.877Z" fill="black"/>
<path opacity="0.2" d="M423.267 73.9717C423.067 75.6027 423.395 77.2477 423.785 78.8307C424.213 80.4127 424.764 81.9647 425.438 83.4587C425.752 84.2167 426.135 84.9417 426.49 85.6807C426.886 86.3977 427.259 87.1277 427.672 87.8347C428.096 88.5347 428.497 89.2517 428.942 89.9387C429.39 90.6237 429.821 91.3197 430.283 91.9957C432.142 94.6877 434.16 97.2887 436.485 99.6057C437.654 100.754 438.888 101.847 440.243 102.775C441.604 103.671 443.075 104.504 444.701 104.761C443.102 104.399 441.681 103.537 440.375 102.587C439.062 101.632 437.869 100.52 436.743 99.3517C434.493 97.0057 432.49 94.4297 430.671 91.7307C428.832 89.0487 427.132 86.2597 425.765 83.3097C425.057 81.8457 424.476 80.3237 424.006 78.7687C423.546 77.2177 423.173 75.6057 423.267 73.9717Z" fill="black"/>
<path d="M435.998 64.1934C435.473 65.1994 435 66.2274 434.535 67.2584C434.065 68.2864 433.631 69.3304 433.199 70.3744C432.777 71.4234 432.357 72.4714 431.973 73.5354L431.399 75.1314C431.225 75.6704 431.034 76.2034 430.875 76.7484C431.142 76.2474 431.379 75.7334 431.632 75.2264L432.339 73.6834C432.809 72.6544 433.242 71.6114 433.675 70.5674C434.096 69.5184 434.517 68.4694 434.901 67.4064C435.287 66.3444 435.669 65.2804 435.998 64.1934Z" fill="#263238"/>
<path d="M443.773 96.9557C445.034 96.7437 446.281 96.4767 447.526 96.2017C448.773 95.9327 450.009 95.6237 451.246 95.3157C452.479 94.9957 453.713 94.6737 454.936 94.3137L456.771 93.7727C457.378 93.5737 457.989 93.3927 458.592 93.1787C457.96 93.2797 457.337 93.4127 456.709 93.5287L454.839 93.9317C453.593 94.2017 452.356 94.5097 451.12 94.8187C449.887 95.1397 448.653 95.4607 447.43 95.8207C446.204 96.1767 444.982 96.5387 443.773 96.9557Z" fill="#263238"/>
<path d="M463.378 83.2988C461.611 83.9298 459.865 84.6118 458.123 85.3018C456.378 85.9868 454.65 86.7088 452.921 87.4308C451.197 88.1638 449.473 88.8988 447.765 89.6698L445.204 90.8278C444.357 91.2308 443.504 91.6178 442.664 92.0358C443.55 91.7258 444.422 91.3848 445.302 91.0598L447.919 90.0338C449.663 89.3488 451.392 88.6268 453.121 87.9038C454.845 87.1698 456.568 86.4358 458.276 85.6648C459.986 84.8978 461.693 84.1238 463.378 83.2988Z" fill="#263238"/>
<path d="M445.698 60.2549C444.657 61.8479 443.665 63.4689 442.681 65.0949C441.691 66.7179 440.737 68.3599 439.782 70.0029C438.838 71.6519 437.895 73.3009 436.986 74.9699L435.624 77.4749C435.186 78.3189 434.733 79.1549 434.309 80.0069C434.834 79.2129 435.33 78.4019 435.842 77.6009L437.328 75.1679C438.317 73.5449 439.272 71.9029 440.226 70.2589C441.169 68.6099 442.113 66.9599 443.021 65.2909C443.935 63.6239 444.841 61.9529 445.698 60.2549Z" fill="#263238"/>
<path d="M439.023 85.7491C440.886 84.5861 442.718 83.3771 444.544 82.1601C446.371 80.9451 448.172 79.6911 449.987 78.4591C451.779 77.1921 453.583 75.9441 455.363 74.6601L458.027 72.7261C458.904 72.0661 459.792 71.4201 460.66 70.7471C459.725 71.3241 458.81 71.9291 457.884 72.5191L455.139 74.3351C453.313 75.5511 451.511 76.8031 449.696 78.0371C447.905 79.3051 446.1 80.5521 444.321 81.8361C442.54 83.1221 440.765 84.4121 439.023 85.7491Z" fill="#263238"/>
<path d="M405.995 136.061C407.128 138.771 409.673 135.885 409.673 135.885C409.673 135.885 407.011 140.922 409.259 143.264C411.432 145.515 414.383 141.92 414.598 141.666C414.46 141.934 412.134 146.626 414.636 148.747C417.238 150.949 419.581 146.831 419.731 146.565C419.68 146.859 419.065 150.755 421.332 151.934C425.229 153.958 427.074 144.038 430.087 142.151C430.087 142.151 433.867 146.892 434.006 147.007C434.006 147.007 435.954 137.605 433.183 133.683C431.722 131.616 429.506 132.57 429.506 132.57C429.506 132.57 430.469 129.608 428.552 127.876C427.566 126.99 425.27 127.779 425.27 127.779C425.27 127.779 425.942 125.375 424.141 123.941C422.707 122.792 420.628 123.762 420.628 123.762C420.628 123.762 420.203 121.154 418.357 120.456C414.637 119.039 403.575 130.257 405.995 136.061Z" fill="#EB9481"/>
<path d="M420.274 123.864C420.314 123.83 420.274 123.767 420.227 123.796C415.689 126.597 411.561 131.066 409.516 136.026C409.449 136.189 409.684 136.368 409.792 136.204C412.878 131.493 415.992 127.56 420.274 123.864Z" fill="#263238"/>
<path d="M425.302 127.699C425.349 127.659 425.283 127.581 425.227 127.616C420.566 130.528 416.055 135.689 414.372 141.683C414.314 141.889 414.469 142.131 414.553 141.9C415.975 137.999 421.43 131.006 425.302 127.699Z" fill="#263238"/>
<path d="M419.757 147.022C421.594 141.336 425.068 136.811 429.305 132.676C429.36 132.622 429.278 132.55 429.22 132.582C426.596 134.04 424.171 136.957 422.475 139.387C420.851 141.714 419.853 144.14 419.559 146.958C419.547 147.067 419.718 147.143 419.757 147.022Z" fill="#263238"/>
<path d="M409.576 135.906C409.496 136.102 409.87 136.004 409.795 136.202C409.483 137.034 408.037 142.204 409.646 143.244C410.937 144.074 412.948 142.915 413.545 142.167L415.048 140.286L414.29 142.576C413.959 143.575 413.75 144.677 413.763 145.724C413.773 146.768 414.061 147.806 414.784 148.418C415.527 149.072 416.493 149.203 417.306 148.662C418.13 148.161 418.819 147.253 419.303 146.354L420.656 143.842L420.202 146.646C420.079 147.406 420.043 148.234 420.121 149.007C420.204 149.779 420.415 150.547 420.87 151.077C421.313 151.599 422.048 151.882 422.677 151.7C423.342 151.518 423.943 150.939 424.458 150.335C425.495 149.089 426.277 147.604 427.126 146.17C427.546 145.448 427.967 144.723 428.423 144.017C428.886 143.327 429.368 142.594 430.089 142.148C429.423 142.662 429.035 143.424 428.621 144.136C428.225 144.866 427.863 145.616 427.499 146.368C426.772 147.872 426.023 149.378 424.995 150.765C424.463 151.433 423.862 152.139 422.912 152.47C421.929 152.803 420.844 152.387 420.211 151.653C419.562 150.906 419.325 149.979 419.213 149.11C419.114 148.224 419.135 147.369 419.264 146.479L420.162 146.771C419.598 147.838 418.914 148.815 417.831 149.52C417.296 149.864 416.595 150.068 415.91 149.977C415.221 149.888 414.633 149.569 414.147 149.141C413.142 148.247 412.846 146.896 412.854 145.73C412.864 144.531 413.098 143.399 413.487 142.277L414.232 142.686C413.44 143.611 411.333 145.151 409.169 144.116C406.548 142.344 409.048 136.874 409.576 135.906Z" fill="#263238"/>
<path d="M409.672 135.884C409.154 136.261 408.615 136.579 408.091 136.749C407.568 136.923 407.065 136.834 406.726 136.532C406.378 136.235 406.178 135.681 406.036 135.114C405.909 134.536 405.805 133.923 405.723 133.284C405.487 133.887 405.37 134.535 405.399 135.2C405.432 135.853 405.587 136.591 406.183 137.151C406.498 137.406 406.869 137.566 407.264 137.596C407.659 137.613 408.034 137.512 408.342 137.339C408.967 137 409.393 136.464 409.672 135.884Z" fill="#263238"/>
<path d="M433.974 164.644L403.136 151.985C403.136 151.985 401.311 162.295 400.942 162.35C400.573 162.405 391.698 151.842 381.228 144.578C370.447 137.099 371.736 147.067 375.201 155.373C378.992 164.461 397.309 197.966 405.889 200.673C413.157 202.966 419.968 197.094 421.671 194.091C424.017 189.953 433.974 164.644 433.974 164.644Z" fill="#2B5A9E"/>
<path d="M429.843 168.311C428.826 167.741 419.189 163.956 417.079 163.179C414.967 162.401 412.853 161.628 410.739 160.856C408.555 160.059 406.368 159.141 404.126 158.52C404.026 158.492 403.97 158.624 404.065 158.671C406.15 159.698 408.393 160.465 410.553 161.32C412.685 162.165 414.815 163.01 416.95 163.846C419.085 164.682 428.697 168.215 429.804 168.458C429.898 168.48 429.912 168.35 429.843 168.311Z" fill="#263238"/>
<path d="M401.007 162.402C400.752 164.077 400.599 165.762 400.473 167.448C400.34 169.134 400.276 170.824 400.24 172.516C400.223 174.207 400.22 175.9 400.317 177.592C400.409 179.282 400.543 180.974 400.831 182.644C400.843 181.796 400.81 180.954 400.833 180.109C400.82 179.267 400.834 178.423 400.844 177.581L400.924 172.528L400.997 167.471L401.023 164.939C401.011 164.093 401.027 163.249 401.007 162.402Z" fill="#263238"/>
<path opacity="0.1" d="M414.816 199.884C412.197 201.11 409.092 201.684 405.893 200.674C397.307 197.965 378.99 164.459 375.199 155.376C372.507 148.919 371.135 141.468 375.701 141.961C383.358 153.223 403.155 182.585 414.816 199.884Z" fill="black"/>
<path d="M336.852 223.727L399.313 220.102C400.184 219.071 384.81 152.7 377.426 143.466C375.845 141.492 366.976 138.587 360.617 143.688C348.631 153.301 336.261 223.08 336.852 223.727Z" fill="#EBEBEB"/>
<path d="M361.503 141.916C361.503 141.916 367.449 164.884 368.608 172.949C369.767 181.014 369.196 246.768 369.196 246.768L333.629 253.331C333.629 253.331 339.163 204.134 339.239 202.335C339.239 202.335 345.559 166.654 352.939 152.498C358.37 142.082 361.503 141.916 361.503 141.916Z" fill="#FFC727"/>
<path d="M376.652 142.353C376.652 142.353 382.612 166.867 383.17 169.467C383.729 172.067 393.032 245.201 393.032 245.201L406.082 247.299L397.502 198.786C397.502 198.786 383.379 146.237 376.652 142.353Z" fill="#2B5A9E"/>
<path d="M352.31 149.783C341.255 163.152 328.492 184.244 326.509 193.264C325.121 199.576 334.92 227.726 338.526 234.783C340.082 237.829 363.839 228.634 363.117 225.049C362.251 220.747 350.059 194.118 350.809 193.24C351.633 192.275 357.013 168.436 360.095 154.118C363.474 138.42 356.645 144.54 352.31 149.783Z" fill="#EB9481"/>
<path d="M336.021 233.944L364.31 219.54C364.31 219.54 352.414 196.869 352.372 195.052C352.303 192.117 358.725 166.832 360.982 156.023C363.231 145.254 362.929 134.598 349.968 150.876C337.007 167.154 325.552 188.418 324.342 194.785C323.489 199.273 336.021 233.944 336.021 233.944Z" fill="#FFC727"/>
<path d="M334.763 225.916C335.711 225.246 339.701 223.212 340.632 222.725C342.663 221.663 344.688 220.586 346.724 219.535C348.755 218.486 350.779 217.424 352.819 216.395C354.848 215.371 356.854 214.272 358.936 213.361C359.016 213.326 359.075 213.448 359.005 213.496C357.134 214.803 343.149 222.317 341.085 223.296C340.09 223.767 335.927 225.703 334.814 226.018C334.755 226.035 334.707 225.956 334.763 225.916Z" fill="#37474F"/>
<path d="M360.976 221.238L364.252 219.425L364.196 219.6C359.895 211.695 355.425 203.831 351.965 195.512C351.735 194.699 352.073 193.785 352.168 193.033C354.117 183.464 356.483 174.03 359.059 164.62C358.121 169.402 357.112 174.166 356.098 178.928C355.056 184.258 353.639 189.58 352.874 194.934C354.134 198.867 356.301 202.58 358.041 206.344C358.121 206.481 364.388 219.423 364.485 219.602L364.37 219.656L360.976 221.238Z" fill="#37474F"/>
<path d="M357.758 170.306C358.534 168.938 358.936 167.586 359.505 166.123C359.641 167.661 359.068 169.408 357.758 170.306Z" fill="#37474F"/>
<path d="M337.668 235.626C342.969 235.866 347.999 233.515 352.789 231.497C356.925 229.541 361.271 227.645 364.565 224.396C365.001 223.913 365.435 223.396 365.637 222.76C365.541 223.428 365.167 224.028 364.77 224.565C360.187 230.355 344.994 237.261 337.668 235.626Z" fill="#37474F"/>
<path d="M374.852 150.994C371.646 152.031 364.525 148.729 361.818 144.247C361.634 143.939 361.976 140.602 362.199 136.527C362.325 134.054 362.406 131.298 362.299 128.777C362.274 128.26 378.272 131.946 378.272 131.946C378.272 131.946 376.942 137.296 377.156 141.69C377.178 142.057 377.229 142.397 377.309 142.72C377.316 142.767 377.333 142.824 377.339 142.89C377.743 144.841 378.282 149.884 374.852 150.994Z" fill="#EB9481"/>
<path d="M377.314 142.718C377.318 142.768 377.333 142.828 377.337 142.889C376.846 142.977 376.311 143.028 375.723 143.042C366.409 143.232 363.458 131.688 362.859 128.756C365.685 129.039 378.273 131.944 378.273 131.944C378.273 131.944 376.942 137.299 377.154 141.693C377.183 142.058 377.229 142.4 377.314 142.718Z" fill="#263238"/>
<path d="M379.031 99.917C379.031 99.917 382.899 102.597 384.456 105.718C386.013 108.839 385.043 115.693 385.043 115.693L379.031 99.917Z" fill="#263238"/>
<path d="M358.529 109.275C357.237 114.997 361.393 130.942 365.641 134.25C371.799 139.046 381.282 138.844 385.206 131.578C389.01 124.536 383.226 103.852 378.537 100.907C371.63 96.5705 360.437 100.822 358.529 109.275Z" fill="#EB9481"/>
<path d="M373.158 118.261C373.139 118.222 373.087 118.334 373.1 118.377C373.409 119.444 373.583 120.717 372.701 121.322C372.674 121.341 372.691 121.394 372.725 121.38C373.869 120.91 373.621 119.222 373.158 118.261Z" fill="#263238"/>
<path d="M371.912 117.383C370.149 117.694 370.899 121.197 372.533 120.909C374.14 120.626 373.39 117.123 371.912 117.383Z" fill="#263238"/>
<path d="M379.547 116.845C379.546 116.802 379.643 116.878 379.651 116.923C379.849 118.016 380.26 119.233 381.319 119.384C381.352 119.389 381.361 119.444 381.323 119.447C380.089 119.534 379.56 117.912 379.547 116.845Z" fill="#263238"/>
<path d="M380.274 115.504C381.991 114.997 382.878 118.469 381.287 118.938C379.721 119.4 378.834 115.928 380.274 115.504Z" fill="#263238"/>
<path d="M370.186 116.078C370.637 115.856 371.017 115.575 371.44 115.31C371.918 115.01 372.33 114.82 372.57 114.282C372.699 113.994 372.527 113.562 372.259 113.411C371.634 113.058 370.957 113.28 370.367 113.618C369.726 113.985 369.327 114.431 369.062 115.118C368.805 115.785 369.591 116.372 370.186 116.078Z" fill="#263238"/>
<path d="M381.248 113.449C380.745 113.474 380.278 113.413 379.778 113.386C379.214 113.356 378.762 113.39 378.291 113.036C378.038 112.846 377.979 112.386 378.14 112.123C378.515 111.511 379.215 111.377 379.895 111.386C380.633 111.395 381.199 111.592 381.764 112.064C382.313 112.522 381.911 113.416 381.248 113.449Z" fill="#263238"/>
<path d="M374.444 128.223C374.758 128.421 375.093 128.716 375.493 128.664C375.878 128.615 376.284 128.35 376.601 128.141C376.632 128.121 376.675 128.149 376.66 128.187C376.467 128.664 375.93 129.052 375.409 129.071C374.899 129.09 374.565 128.718 374.35 128.294C374.32 128.235 374.399 128.194 374.444 128.223Z" fill="#263238"/>
<path d="M374.889 124.729C375.698 125.541 376.702 125.864 377.708 125.845C378.158 125.839 378.615 125.757 379.05 125.621C379.137 125.6 379.222 125.572 379.298 125.537C379.375 125.511 379.445 125.486 379.528 125.45C379.651 125.404 379.698 125.285 379.693 125.16L379.691 125.152C379.682 125.112 379.674 125.08 379.657 125.043C379.657 125.043 379.657 125.043 379.655 125.035L379.633 124.94C379.477 124.1 379.124 122.846 379.124 122.846C379.462 122.934 381.169 123.3 381.05 122.869C380.06 119.301 378.959 115.334 377.22 111.993C377.168 111.88 376.992 111.946 377.028 112.063C377.844 115.529 379.264 118.829 380.139 122.298C379.602 122.216 378.717 122.04 378.281 122.142C378.17 122.202 379.007 124.552 379.047 124.935C379.047 124.935 379.051 124.951 379.048 124.976C377.683 125.456 376.534 125.259 374.969 124.608C374.876 124.566 374.805 124.657 374.889 124.729Z" fill="#263238"/>
<path d="M378.467 125.303C378.467 125.303 377.94 126.461 377.003 127.039C376.658 127.253 376.267 127.392 375.821 127.37C374.906 127.328 374.714 126.537 374.727 125.823C374.736 125.236 374.892 124.698 374.892 124.698C374.892 124.698 376.411 125.612 378.467 125.303Z" fill="#263238"/>
<path d="M377.003 127.04C376.658 127.254 376.267 127.393 375.821 127.371C374.906 127.329 374.714 126.538 374.727 125.824C375.676 125.72 376.731 126.154 377.003 127.04Z" fill="#FF9BBC"/>
<path d="M360.681 123.006C363.699 122.47 362.548 117.254 362.548 117.254C362.548 117.254 368.396 115.184 367.529 107.288C367.529 107.288 376.813 108.645 380.452 103.281C384.091 97.9169 369.994 89.0669 358.096 102.256C358.096 102.256 351.719 104.657 351.746 110.239C351.773 115.822 357.033 123.654 360.681 123.006Z" fill="#263238"/>
<path d="M367.155 106.438C367.105 106.368 366.986 106.426 367.019 106.509C368.988 111.471 366.578 116.801 361.004 117.498C360.817 117.521 360.84 117.794 361.027 117.789C366.641 117.65 370.636 111.248 367.155 106.438Z" fill="#263238"/>
<path d="M370.087 95.393C370.075 95.395 370.077 95.412 370.088 95.411C371.985 95.315 373.933 95.271 375.787 95.749C378.573 96.468 382.507 98.958 381.307 102.392C379.66 107.104 373.037 107.173 368.931 106.907C368.66 106.89 368.58 107.265 368.854 107.329C373.127 108.332 381.417 107.26 382.095 101.749C382.847 95.647 374.186 94.718 370.087 95.393Z" fill="#263238"/>
<path d="M363.612 122.329C363.612 122.329 359.47 117.456 357.225 118.981C354.98 120.506 358.439 127.811 361.317 128.583C364.195 129.355 364.961 126.705 364.961 126.705L363.612 122.329Z" fill="#EB9481"/>
<path d="M358.27 121.05C358.225 121.05 358.222 121.114 358.262 121.126C360.286 121.731 361.483 123.441 362.379 125.248C361.731 124.581 360.904 124.261 360.003 125.042C359.956 125.083 360.012 125.158 360.066 125.141C360.848 124.895 361.437 124.978 362.037 125.567C362.462 125.984 362.777 126.531 363.1 127.028C363.208 127.194 363.514 127.071 363.428 126.876C363.422 126.862 363.415 126.847 363.408 126.832C363.222 124.343 360.961 121.048 358.27 121.05Z" fill="#263238"/>
<path d="M377.185 141.501L373.419 150.691L362.048 138.951L358.777 142.67C358.777 142.67 369.85 161.274 369.927 160.437L373.78 152.52L379.224 158.085L378.875 144.207L377.185 141.501Z" fill="#EBEBEB"/>
<path d="M379.441 151.215C379.307 148.926 379.235 146.616 378.995 144.336C378.986 144.255 378.86 144.218 378.84 144.313C378.366 146.52 378.926 155.272 378.902 157.369C378.895 157.361 378.885 157.353 378.878 157.345C378.651 157.105 373.83 152.447 373.781 152.52C372.949 153.775 370.121 159.541 369.927 160.066C368.176 157.111 360.738 145.458 358.66 142.66C358.6 142.58 358.476 142.645 358.522 142.739C360.065 145.857 369.673 161.234 369.811 161.195C369.905 161.268 373.418 154.167 373.841 152.824C374.655 153.837 379.518 159.089 379.536 158.749C379.666 156.453 379.575 153.508 379.441 151.215Z" fill="#263238"/>
<path d="M371.688 157.133L373.889 152.675L377.526 156.146L376.529 159.359L373.152 159.644L371.688 157.133Z" fill="#263238"/>
<path d="M373.154 159.643L372.125 197.939L379.432 211.245L384.159 197.654L376.531 159.358L373.154 159.643Z" fill="#263238"/>
</g>
<defs>
<clipPath id="clip0_1086_2337">
<rect width="500" height="500" fill="white"/>
</clipPath>
</defs>
</svg>