<svg width="258" height="24" viewBox="0 0 258 24" fill="none" xmlns="http://www.w3.org/2000/svg">
<path d="M6 6.2C6 5.08 6 4.52 6.218 4.092C6.40974 3.71569 6.71569 3.40974 7.092 3.218C7.52 3 8.08 3 9.2 3H14.8C15.92 3 16.48 3 16.908 3.218C17.2843 3.40974 17.5903 3.71569 17.782 4.092C18 4.52 18 5.08 18 6.2V19.505C18 19.991 18 20.234 17.899 20.367C17.8554 20.4248 17.7997 20.4725 17.7358 20.5067C17.6719 20.5409 17.6013 20.5608 17.529 20.565C17.362 20.575 17.16 20.44 16.756 20.171L12 17L7.244 20.17C6.84 20.44 6.638 20.575 6.47 20.565C6.39784 20.5606 6.32748 20.5407 6.26377 20.5065C6.20007 20.4723 6.14453 20.4247 6.101 20.367C6 20.234 6 19.991 6 19.505V6.2Z" fill="#3D3D3D"/>
<path d="M6 6.2C6 5.08 6 4.52 6.218 4.092C6.40974 3.71569 6.71569 3.40974 7.092 3.218C7.52 3 8.08 3 9.2 3H14.8C15.92 3 16.48 3 16.908 3.218C17.2843 3.40974 17.5903 3.71569 17.782 4.092C18 4.52 18 5.08 18 6.2V19.505C18 19.991 18 20.234 17.899 20.367C17.8554 20.4248 17.7997 20.4725 17.7358 20.5067C17.6719 20.5409 17.6013 20.5608 17.529 20.565C17.362 20.575 17.16 20.44 16.756 20.171L12 17L7.244 20.17C6.84 20.44 6.638 20.575 6.47 20.565C6.39784 20.5606 6.32748 20.5407 6.26377 20.5065C6.20007 20.4723 6.14453 20.4247 6.101 20.367C6 20.234 6 19.991 6 19.505V6.2Z" fill="black" fill-opacity="0.2"/>
<path d="M6 6.2C6 5.08 6 4.52 6.218 4.092C6.40974 3.71569 6.71569 3.40974 7.092 3.218C7.52 3 8.08 3 9.2 3H14.8C15.92 3 16.48 3 16.908 3.218C17.2843 3.40974 17.5903 3.71569 17.782 4.092C18 4.52 18 5.08 18 6.2V19.505C18 19.991 18 20.234 17.899 20.367C17.8554 20.4248 17.7997 20.4725 17.7358 20.5067C17.6719 20.5409 17.6013 20.5608 17.529 20.565C17.362 20.575 17.16 20.44 16.756 20.171L12 17L7.244 20.17C6.84 20.44 6.638 20.575 6.47 20.565C6.39784 20.5606 6.32748 20.5407 6.26377 20.5065C6.20007 20.4723 6.14453 20.4247 6.101 20.367C6 20.234 6 19.991 6 19.505V6.2Z" stroke="white" stroke-width="1.5" stroke-linecap="round" stroke-linejoin="round"/>
<path d="M27.648 16.084C27.088 16.084 26.584 15.988 26.136 15.796C25.688 15.596 25.336 15.316 25.08 14.956C24.824 14.596 24.696 14.176 24.696 13.696H26.16C26.192 14.056 26.332 14.352 26.58 14.584C26.836 14.816 27.192 14.932 27.648 14.932C28.12 14.932 28.488 14.82 28.752 14.596C29.016 14.364 29.148 14.068 29.148 13.708C29.148 13.428 29.064 13.2 28.896 13.024C28.736 12.848 28.532 12.712 28.284 12.616C28.044 12.52 27.708 12.416 27.276 12.304C26.732 12.16 26.288 12.016 25.944 11.872C25.608 11.72 25.32 11.488 25.08 11.176C24.84 10.864 24.72 10.448 24.72 9.928C24.72 9.448 24.84 9.028 25.08 8.668C25.32 8.308 25.656 8.032 26.088 7.84C26.52 7.648 27.02 7.552 27.588 7.552C28.396 7.552 29.056 7.756 29.568 8.164C30.088 8.564 30.376 9.116 30.432 9.82H28.92C28.896 9.516 28.752 9.256 28.488 9.04C28.224 8.824 27.876 8.716 27.444 8.716C27.052 8.716 26.732 8.816 26.484 9.016C26.236 9.216 26.112 9.504 26.112 9.88C26.112 10.136 26.188 10.348 26.34 10.516C26.5 10.676 26.7 10.804 26.94 10.9C27.18 10.996 27.508 11.1 27.924 11.212C28.476 11.364 28.924 11.516 29.268 11.668C29.62 11.82 29.916 12.056 30.156 12.376C30.404 12.688 30.528 13.108 30.528 13.636C30.528 14.06 30.412 14.46 30.18 14.836C29.956 15.212 29.624 15.516 29.184 15.748C28.752 15.972 28.24 16.084 27.648 16.084ZM31.6862 12.664C31.6862 12 31.8222 11.412 32.0942 10.9C32.3742 10.388 32.7502 9.992 33.2222 9.712C33.7022 9.424 34.2302 9.28 34.8062 9.28C35.3262 9.28 35.7782 9.384 36.1622 9.592C36.5542 9.792 36.8662 10.044 37.0982 10.348V9.388H38.4782V16H37.0982V15.016C36.8662 15.328 36.5502 15.588 36.1502 15.796C35.7502 16.004 35.2942 16.108 34.7822 16.108C34.2142 16.108 33.6942 15.964 33.2222 15.676C32.7502 15.38 32.3742 14.972 32.0942 14.452C31.8222 13.924 31.6862 13.328 31.6862 12.664ZM37.0982 12.688C37.0982 12.232 37.0022 11.836 36.8102 11.5C36.6262 11.164 36.3822 10.908 36.0782 10.732C35.7742 10.556 35.4462 10.468 35.0942 10.468C34.7422 10.468 34.4142 10.556 34.1102 10.732C33.8062 10.9 33.5582 11.152 33.3662 11.488C33.1822 11.816 33.0902 12.208 33.0902 12.664C33.0902 13.12 33.1822 13.52 33.3662 13.864C33.5582 14.208 33.8062 14.472 34.1102 14.656C34.4222 14.832 34.7502 14.92 35.0942 14.92C35.4462 14.92 35.7742 14.832 36.0782 14.656C36.3822 14.48 36.6262 14.224 36.8102 13.888C37.0022 13.544 37.0982 13.144 37.0982 12.688ZM42.831 14.776L44.703 9.388H46.155L43.635 16H42.003L39.495 9.388H40.959L42.831 14.776ZM53.2491 12.532C53.2491 12.78 53.2331 13.004 53.2011 13.204H48.1491C48.1891 13.732 48.3851 14.156 48.7371 14.476C49.0891 14.796 49.5211 14.956 50.0331 14.956C50.7691 14.956 51.2891 14.648 51.5931 14.032H53.0691C52.8691 14.64 52.5051 15.14 51.9771 15.532C51.4571 15.916 50.8091 16.108 50.0331 16.108C49.4011 16.108 48.8331 15.968 48.3291 15.688C47.8331 15.4 47.4411 15 47.1531 14.488C46.8731 13.968 46.7331 13.368 46.7331 12.688C46.7331 12.008 46.8691 11.412 47.1411 10.9C47.4211 10.38 47.8091 9.98 48.3051 9.7C48.8091 9.42 49.3851 9.28 50.0331 9.28C50.6571 9.28 51.2131 9.416 51.7011 9.688C52.1891 9.96 52.5691 10.344 52.8411 10.84C53.1131 11.328 53.2491 11.892 53.2491 12.532ZM51.8211 12.1C51.8131 11.596 51.6331 11.192 51.2811 10.888C50.9291 10.584 50.4931 10.432 49.9731 10.432C49.5011 10.432 49.0971 10.584 48.7611 10.888C48.4251 11.184 48.2251 11.588 48.1611 12.1H51.8211Z" fill="#3D3D3D"/>
<path d="M27.648 16.084C27.088 16.084 26.584 15.988 26.136 15.796C25.688 15.596 25.336 15.316 25.08 14.956C24.824 14.596 24.696 14.176 24.696 13.696H26.16C26.192 14.056 26.332 14.352 26.58 14.584C26.836 14.816 27.192 14.932 27.648 14.932C28.12 14.932 28.488 14.82 28.752 14.596C29.016 14.364 29.148 14.068 29.148 13.708C29.148 13.428 29.064 13.2 28.896 13.024C28.736 12.848 28.532 12.712 28.284 12.616C28.044 12.52 27.708 12.416 27.276 12.304C26.732 12.16 26.288 12.016 25.944 11.872C25.608 11.72 25.32 11.488 25.08 11.176C24.84 10.864 24.72 10.448 24.72 9.928C24.72 9.448 24.84 9.028 25.08 8.668C25.32 8.308 25.656 8.032 26.088 7.84C26.52 7.648 27.02 7.552 27.588 7.552C28.396 7.552 29.056 7.756 29.568 8.164C30.088 8.564 30.376 9.116 30.432 9.82H28.92C28.896 9.516 28.752 9.256 28.488 9.04C28.224 8.824 27.876 8.716 27.444 8.716C27.052 8.716 26.732 8.816 26.484 9.016C26.236 9.216 26.112 9.504 26.112 9.88C26.112 10.136 26.188 10.348 26.34 10.516C26.5 10.676 26.7 10.804 26.94 10.9C27.18 10.996 27.508 11.1 27.924 11.212C28.476 11.364 28.924 11.516 29.268 11.668C29.62 11.82 29.916 12.056 30.156 12.376C30.404 12.688 30.528 13.108 30.528 13.636C30.528 14.06 30.412 14.46 30.18 14.836C29.956 15.212 29.624 15.516 29.184 15.748C28.752 15.972 28.24 16.084 27.648 16.084ZM31.6862 12.664C31.6862 12 31.8222 11.412 32.0942 10.9C32.3742 10.388 32.7502 9.992 33.2222 9.712C33.7022 9.424 34.2302 9.28 34.8062 9.28C35.3262 9.28 35.7782 9.384 36.1622 9.592C36.5542 9.792 36.8662 10.044 37.0982 10.348V9.388H38.4782V16H37.0982V15.016C36.8662 15.328 36.5502 15.588 36.1502 15.796C35.7502 16.004 35.2942 16.108 34.7822 16.108C34.2142 16.108 33.6942 15.964 33.2222 15.676C32.7502 15.38 32.3742 14.972 32.0942 14.452C31.8222 13.924 31.6862 13.328 31.6862 12.664ZM37.0982 12.688C37.0982 12.232 37.0022 11.836 36.8102 11.5C36.6262 11.164 36.3822 10.908 36.0782 10.732C35.7742 10.556 35.4462 10.468 35.0942 10.468C34.7422 10.468 34.4142 10.556 34.1102 10.732C33.8062 10.9 33.5582 11.152 33.3662 11.488C33.1822 11.816 33.0902 12.208 33.0902 12.664C33.0902 13.12 33.1822 13.52 33.3662 13.864C33.5582 14.208 33.8062 14.472 34.1102 14.656C34.4222 14.832 34.7502 14.92 35.0942 14.92C35.4462 14.92 35.7742 14.832 36.0782 14.656C36.3822 14.48 36.6262 14.224 36.8102 13.888C37.0022 13.544 37.0982 13.144 37.0982 12.688ZM42.831 14.776L44.703 9.388H46.155L43.635 16H42.003L39.495 9.388H40.959L42.831 14.776ZM53.2491 12.532C53.2491 12.78 53.2331 13.004 53.2011 13.204H48.1491C48.1891 13.732 48.3851 14.156 48.7371 14.476C49.0891 14.796 49.5211 14.956 50.0331 14.956C50.7691 14.956 51.2891 14.648 51.5931 14.032H53.0691C52.8691 14.64 52.5051 15.14 51.9771 15.532C51.4571 15.916 50.8091 16.108 50.0331 16.108C49.4011 16.108 48.8331 15.968 48.3291 15.688C47.8331 15.4 47.4411 15 47.1531 14.488C46.8731 13.968 46.7331 13.368 46.7331 12.688C46.7331 12.008 46.8691 11.412 47.1411 10.9C47.4211 10.38 47.8091 9.98 48.3051 9.7C48.8091 9.42 49.3851 9.28 50.0331 9.28C50.6571 9.28 51.2131 9.416 51.7011 9.688C52.1891 9.96 52.5691 10.344 52.8411 10.84C53.1131 11.328 53.2491 11.892 53.2491 12.532ZM51.8211 12.1C51.8131 11.596 51.6331 11.192 51.2811 10.888C50.9291 10.584 50.4931 10.432 49.9731 10.432C49.5011 10.432 49.0971 10.584 48.7611 10.888C48.4251 11.184 48.2251 11.588 48.1611 12.1H51.8211Z" fill="black" fill-opacity="0.2"/>
<rect x="141.5" y="0.5" width="75" height="23" rx="11.5" fill="#E6ECF8"/>
<rect x="141.5" y="0.5" width="75" height="23" rx="11.5" stroke="#D1D1D1"/>
<path d="M162 12.998H157V17.998C157 18.2633 156.895 18.5176 156.707 18.7052C156.52 18.8927 156.265 18.998 156 18.998C155.735 18.998 155.48 18.8927 155.293 18.7052C155.105 18.5176 155 18.2633 155 17.998V12.998H150C149.735 12.998 149.48 12.8927 149.293 12.7052C149.105 12.5176 149 12.2633 149 11.998C149 11.7328 149.105 11.4785 149.293 11.2909C149.48 11.1034 149.735 10.998 150 10.998H155V5.99805C155 5.73283 155.105 5.47848 155.293 5.29094C155.48 5.1034 155.735 4.99805 156 4.99805C156.265 4.99805 156.52 5.1034 156.707 5.29094C156.895 5.47848 157 5.73283 157 5.99805V10.998H162C162.265 10.998 162.52 11.1034 162.707 11.2909C162.895 11.4785 163 11.7328 163 11.998C163 12.2633 162.895 12.5176 162.707 12.7052C162.52 12.8927 162.265 12.998 162 12.998Z" fill="#3D3D3D"/>
<path d="M162 12.998H157V17.998C157 18.2633 156.895 18.5176 156.707 18.7052C156.52 18.8927 156.265 18.998 156 18.998C155.735 18.998 155.48 18.8927 155.293 18.7052C155.105 18.5176 155 18.2633 155 17.998V12.998H150C149.735 12.998 149.48 12.8927 149.293 12.7052C149.105 12.5176 149 12.2633 149 11.998C149 11.7328 149.105 11.4785 149.293 11.2909C149.48 11.1034 149.735 10.998 150 10.998H155V5.99805C155 5.73283 155.105 5.47848 155.293 5.29094C155.48 5.1034 155.735 4.99805 156 4.99805C156.265 4.99805 156.52 5.1034 156.707 5.29094C156.895 5.47848 157 5.73283 157 5.99805V10.998H162C162.265 10.998 162.52 11.1034 162.707 11.2909C162.895 11.4785 163 11.7328 163 11.998C163 12.2633 162.895 12.5176 162.707 12.7052C162.52 12.8927 162.265 12.998 162 12.998Z" fill="black" fill-opacity="0.2"/>
<path d="M173.808 7.66V8.776H170.268V11.236H173.028V12.352H170.268V16H168.9V7.66H173.808ZM177.944 16.108C177.32 16.108 176.756 15.968 176.252 15.688C175.748 15.4 175.352 15 175.064 14.488C174.776 13.968 174.632 13.368 174.632 12.688C174.632 12.016 174.78 11.42 175.076 10.9C175.372 10.38 175.776 9.98 176.288 9.7C176.8 9.42 177.372 9.28 178.004 9.28C178.636 9.28 179.208 9.42 179.72 9.7C180.232 9.98 180.636 10.38 180.932 10.9C181.228 11.42 181.376 12.016 181.376 12.688C181.376 13.36 181.224 13.956 180.92 14.476C180.616 14.996 180.2 15.4 179.672 15.688C179.152 15.968 178.576 16.108 177.944 16.108ZM177.944 14.92C178.296 14.92 178.624 14.836 178.928 14.668C179.24 14.5 179.492 14.248 179.684 13.912C179.876 13.576 179.972 13.168 179.972 12.688C179.972 12.208 179.88 11.804 179.696 11.476C179.512 11.14 179.268 10.888 178.964 10.72C178.66 10.552 178.332 10.468 177.98 10.468C177.628 10.468 177.3 10.552 176.996 10.72C176.7 10.888 176.464 11.14 176.288 11.476C176.112 11.804 176.024 12.208 176.024 12.688C176.024 13.4 176.204 13.952 176.564 14.344C176.932 14.728 177.392 14.92 177.944 14.92ZM184.096 7.12V16H182.728V7.12H184.096ZM187.26 7.12V16H185.892V7.12H187.26ZM191.924 16.108C191.3 16.108 190.736 15.968 190.232 15.688C189.728 15.4 189.332 15 189.044 14.488C188.756 13.968 188.612 13.368 188.612 12.688C188.612 12.016 188.76 11.42 189.056 10.9C189.352 10.38 189.756 9.98 190.268 9.7C190.78 9.42 191.352 9.28 191.984 9.28C192.616 9.28 193.188 9.42 193.7 9.7C194.212 9.98 194.616 10.38 194.912 10.9C195.208 11.42 195.356 12.016 195.356 12.688C195.356 13.36 195.204 13.956 194.9 14.476C194.596 14.996 194.18 15.4 193.652 15.688C193.132 15.968 192.556 16.108 191.924 16.108ZM191.924 14.92C192.276 14.92 192.604 14.836 192.908 14.668C193.22 14.5 193.472 14.248 193.664 13.912C193.856 13.576 193.952 13.168 193.952 12.688C193.952 12.208 193.86 11.804 193.676 11.476C193.492 11.14 193.248 10.888 192.944 10.72C192.64 10.552 192.312 10.468 191.96 10.468C191.608 10.468 191.28 10.552 190.976 10.72C190.68 10.888 190.444 11.14 190.268 11.476C190.092 11.804 190.004 12.208 190.004 12.688C190.004 13.4 190.184 13.952 190.544 14.344C190.912 14.728 191.372 14.92 191.924 14.92ZM205.589 9.388L203.537 16H202.097L200.765 11.116L199.433 16H197.993L195.929 9.388H197.321L198.701 14.704L200.105 9.388H201.533L202.877 14.68L204.245 9.388H205.589Z" fill="#3D3D3D"/>
<path d="M173.808 7.66V8.776H170.268V11.236H173.028V12.352H170.268V16H168.9V7.66H173.808ZM177.944 16.108C177.32 16.108 176.756 15.968 176.252 15.688C175.748 15.4 175.352 15 175.064 14.488C174.776 13.968 174.632 13.368 174.632 12.688C174.632 12.016 174.78 11.42 175.076 10.9C175.372 10.38 175.776 9.98 176.288 9.7C176.8 9.42 177.372 9.28 178.004 9.28C178.636 9.28 179.208 9.42 179.72 9.7C180.232 9.98 180.636 10.38 180.932 10.9C181.228 11.42 181.376 12.016 181.376 12.688C181.376 13.36 181.224 13.956 180.92 14.476C180.616 14.996 180.2 15.4 179.672 15.688C179.152 15.968 178.576 16.108 177.944 16.108ZM177.944 14.92C178.296 14.92 178.624 14.836 178.928 14.668C179.24 14.5 179.492 14.248 179.684 13.912C179.876 13.576 179.972 13.168 179.972 12.688C179.972 12.208 179.88 11.804 179.696 11.476C179.512 11.14 179.268 10.888 178.964 10.72C178.66 10.552 178.332 10.468 177.98 10.468C177.628 10.468 177.3 10.552 176.996 10.72C176.7 10.888 176.464 11.14 176.288 11.476C176.112 11.804 176.024 12.208 176.024 12.688C176.024 13.4 176.204 13.952 176.564 14.344C176.932 14.728 177.392 14.92 177.944 14.92ZM184.096 7.12V16H182.728V7.12H184.096ZM187.26 7.12V16H185.892V7.12H187.26ZM191.924 16.108C191.3 16.108 190.736 15.968 190.232 15.688C189.728 15.4 189.332 15 189.044 14.488C188.756 13.968 188.612 13.368 188.612 12.688C188.612 12.016 188.76 11.42 189.056 10.9C189.352 10.38 189.756 9.98 190.268 9.7C190.78 9.42 191.352 9.28 191.984 9.28C192.616 9.28 193.188 9.42 193.7 9.7C194.212 9.98 194.616 10.38 194.912 10.9C195.208 11.42 195.356 12.016 195.356 12.688C195.356 13.36 195.204 13.956 194.9 14.476C194.596 14.996 194.18 15.4 193.652 15.688C193.132 15.968 192.556 16.108 191.924 16.108ZM191.924 14.92C192.276 14.92 192.604 14.836 192.908 14.668C193.22 14.5 193.472 14.248 193.664 13.912C193.856 13.576 193.952 13.168 193.952 12.688C193.952 12.208 193.86 11.804 193.676 11.476C193.492 11.14 193.248 10.888 192.944 10.72C192.64 10.552 192.312 10.468 191.96 10.468C191.608 10.468 191.28 10.552 190.976 10.72C190.68 10.888 190.444 11.14 190.268 11.476C190.092 11.804 190.004 12.208 190.004 12.688C190.004 13.4 190.184 13.952 190.544 14.344C190.912 14.728 191.372 14.92 191.924 14.92ZM205.589 9.388L203.537 16H202.097L200.765 11.116L199.433 16H197.993L195.929 9.388H197.321L198.701 14.704L200.105 9.388H201.533L202.877 14.68L204.245 9.388H205.589Z" fill="black" fill-opacity="0.2"/>
<path d="M229.766 4.41772C229.863 4.27276 230.013 4.17197 230.183 4.13751C230.354 4.10305 230.531 4.13775 230.676 4.23397L232.645 5.54778C232.784 5.64653 232.879 5.79565 232.91 5.96351C232.942 6.13136 232.906 6.30474 232.811 6.44684C232.717 6.58893 232.571 6.68857 232.404 6.72459C232.237 6.76061 232.062 6.73019 231.918 6.63978L229.949 5.32728C229.804 5.23081 229.704 5.08082 229.669 4.91026C229.635 4.73971 229.67 4.56255 229.766 4.41772ZM239.5 4.12503C237.934 4.12503 236.431 4.7473 235.324 5.85493C234.216 6.96257 233.594 8.46485 233.594 10.0313V13.1826L232.329 16.3497C232.289 16.4492 232.274 16.5571 232.285 16.6637C232.297 16.7704 232.334 16.8726 232.394 16.9615C232.454 17.0503 232.535 17.1231 232.63 17.1734C232.725 17.2237 232.83 17.25 232.938 17.25H246.062C246.17 17.2499 246.275 17.2236 246.37 17.1734C246.464 17.1231 246.545 17.0505 246.605 16.9618C246.665 16.8731 246.703 16.7711 246.714 16.6646C246.726 16.5582 246.711 16.4505 246.671 16.351L245.406 13.1813V10.0313C245.406 8.46485 244.784 6.96257 243.676 5.85493C242.569 4.7473 241.066 4.12503 239.5 4.12503ZM239.5 20.5313C238.918 20.5314 238.352 20.3381 237.892 19.9817C237.432 19.6253 237.103 19.1261 236.958 18.5625H242.042C241.897 19.1261 241.568 19.6253 241.108 19.9817C240.648 20.3381 240.082 20.5314 239.5 20.5313ZM248.324 4.23528C248.469 4.14487 248.643 4.11445 248.81 4.15048C248.977 4.1865 249.123 4.28613 249.218 4.42823C249.312 4.57033 249.348 4.7437 249.317 4.91156C249.286 5.07941 249.19 5.22854 249.051 5.32728L247.082 6.63978C246.938 6.73019 246.763 6.76061 246.596 6.72459C246.429 6.68857 246.283 6.58893 246.189 6.44684C246.094 6.30474 246.058 6.13136 246.09 5.96351C246.121 5.79565 246.216 5.64653 246.355 5.54778L248.324 4.23528ZM229 10.0313C229 9.85723 229.069 9.69032 229.192 9.56724C229.315 9.44417 229.482 9.37503 229.656 9.37503H231.625C231.799 9.37503 231.966 9.44417 232.089 9.56724C232.212 9.69032 232.281 9.85723 232.281 10.0313C232.281 10.2053 232.212 10.3723 232.089 10.4953C231.966 10.6184 231.799 10.6875 231.625 10.6875H229.656C229.482 10.6875 229.315 10.6184 229.192 10.4953C229.069 10.3723 229 10.2053 229 10.0313ZM249.344 9.37503C249.518 9.37503 249.685 9.44417 249.808 9.56724C249.931 9.69032 250 9.85723 250 10.0313C250 10.2053 249.931 10.3723 249.808 10.4953C249.685 10.6184 249.518 10.6875 249.344 10.6875H247.375C247.201 10.6875 247.034 10.6184 246.911 10.4953C246.788 10.3723 246.719 10.2053 246.719 10.0313C246.719 9.85723 246.788 9.69032 246.911 9.56724C247.034 9.44417 247.201 9.37503 247.375 9.37503H249.344Z" fill="#3D3D3D"/>
<path d="M229.766 4.41772C229.863 4.27276 230.013 4.17197 230.183 4.13751C230.354 4.10305 230.531 4.13775 230.676 4.23397L232.645 5.54778C232.784 5.64653 232.879 5.79565 232.91 5.96351C232.942 6.13136 232.906 6.30474 232.811 6.44684C232.717 6.58893 232.571 6.68857 232.404 6.72459C232.237 6.76061 232.062 6.73019 231.918 6.63978L229.949 5.32728C229.804 5.23081 229.704 5.08082 229.669 4.91026C229.635 4.73971 229.67 4.56255 229.766 4.41772ZM239.5 4.12503C237.934 4.12503 236.431 4.7473 235.324 5.85493C234.216 6.96257 233.594 8.46485 233.594 10.0313V13.1826L232.329 16.3497C232.289 16.4492 232.274 16.5571 232.285 16.6637C232.297 16.7704 232.334 16.8726 232.394 16.9615C232.454 17.0503 232.535 17.1231 232.63 17.1734C232.725 17.2237 232.83 17.25 232.938 17.25H246.062C246.17 17.2499 246.275 17.2236 246.37 17.1734C246.464 17.1231 246.545 17.0505 246.605 16.9618C246.665 16.8731 246.703 16.7711 246.714 16.6646C246.726 16.5582 246.711 16.4505 246.671 16.351L245.406 13.1813V10.0313C245.406 8.46485 244.784 6.96257 243.676 5.85493C242.569 4.7473 241.066 4.12503 239.5 4.12503ZM239.5 20.5313C238.918 20.5314 238.352 20.3381 237.892 19.9817C237.432 19.6253 237.103 19.1261 236.958 18.5625H242.042C241.897 19.1261 241.568 19.6253 241.108 19.9817C240.648 20.3381 240.082 20.5314 239.5 20.5313ZM248.324 4.23528C248.469 4.14487 248.643 4.11445 248.81 4.15048C248.977 4.1865 249.123 4.28613 249.218 4.42823C249.312 4.57033 249.348 4.7437 249.317 4.91156C249.286 5.07941 249.19 5.22854 249.051 5.32728L247.082 6.63978C246.938 6.73019 246.763 6.76061 246.596 6.72459C246.429 6.68857 246.283 6.58893 246.189 6.44684C246.094 6.30474 246.058 6.13136 246.09 5.96351C246.121 5.79565 246.216 5.64653 246.355 5.54778L248.324 4.23528ZM229 10.0313C229 9.85723 229.069 9.69032 229.192 9.56724C229.315 9.44417 229.482 9.37503 229.656 9.37503H231.625C231.799 9.37503 231.966 9.44417 232.089 9.56724C232.212 9.69032 232.281 9.85723 232.281 10.0313C232.281 10.2053 232.212 10.3723 232.089 10.4953C231.966 10.6184 231.799 10.6875 231.625 10.6875H229.656C229.482 10.6875 229.315 10.6184 229.192 10.4953C229.069 10.3723 229 10.2053 229 10.0313ZM249.344 9.37503C249.518 9.37503 249.685 9.44417 249.808 9.56724C249.931 9.69032 250 9.85723 250 10.0313C250 10.2053 249.931 10.3723 249.808 10.4953C249.685 10.6184 249.518 10.6875 249.344 10.6875H247.375C247.201 10.6875 247.034 10.6184 246.911 10.4953C246.788 10.3723 246.719 10.2053 246.719 10.0313C246.719 9.85723 246.788 9.69032 246.911 9.56724C247.034 9.44417 247.201 9.37503 247.375 9.37503H249.344Z" fill="black" fill-opacity="0.2"/>
</svg>