<svg width="95" height="34" viewBox="0 0 95 34" fill="none" xmlns="http://www.w3.org/2000/svg">
<path d="M6.16016 27.229C5.61426 26.2007 5.05566 24.8994 4.48438 23.3252C3.91309 21.7383 3.36719 20.0371 2.84668 18.2217C2.32617 16.4062 1.86279 14.6162 1.45654 12.8516C1.05029 11.0742 0.726562 9.46191 0.485352 8.01465C0.256836 6.56738 0.142578 5.4375 0.142578 4.625C0.142578 4.29492 0.212402 4.03467 0.352051 3.84424C0.644043 3.43799 0.999512 3.01904 1.41846 2.5874C1.8501 2.14307 2.35791 1.67969 2.94189 1.19727C3.13232 1.04492 3.31006 0.96875 3.4751 0.96875C3.64014 0.96875 3.80518 1.04492 3.97021 1.19727C4.56689 1.67969 5.07471 2.14307 5.49365 2.5874C5.9126 3.01904 6.26807 3.43799 6.56006 3.84424C6.69971 4.03467 6.76953 4.31396 6.76953 4.68213V4.60596C6.76953 5.44385 6.87744 6.58008 7.09326 8.01465C7.32178 9.43652 7.61377 10.998 7.96924 12.6992C8.3374 14.3877 8.73096 16.0571 9.1499 17.7075C9.58154 19.3452 10.0068 20.8052 10.4258 22.0874H10.54C11.2256 20.3862 11.8667 18.5391 12.4634 16.5459C13.0601 14.5527 13.6187 12.5151 14.1392 10.4331C14.6597 8.35107 15.1484 6.32617 15.6055 4.3584C15.7451 3.78711 15.98 3.39355 16.3101 3.17773C16.6528 2.94922 17.186 2.83496 17.9097 2.83496H20.1948C20.8423 2.83496 21.3247 2.93018 21.6421 3.12061C21.9595 3.31104 22.188 3.72363 22.3276 4.3584C22.6577 5.83105 23.0322 7.38623 23.4512 9.02393C23.8701 10.6616 24.3018 12.293 24.7461 13.918C25.2031 15.5303 25.6602 17.041 26.1172 18.4502C26.5869 19.8594 27.0312 21.0718 27.4502 22.0874H27.5645C28.0977 20.8813 28.5737 19.4595 28.9927 17.8218C29.4243 16.1841 29.7861 14.5146 30.0781 12.8135C30.3828 11.0996 30.6113 9.5127 30.7637 8.05273C30.9287 6.59277 31.0112 5.44385 31.0112 4.60596V4.68213C31.0112 4.31396 31.0747 4.03467 31.2017 3.84424C31.811 3.00635 32.6489 2.12402 33.7153 1.19727C33.9185 1.04492 34.0962 0.96875 34.2485 0.96875C34.3882 0.96875 34.5532 1.04492 34.7437 1.19727C35.3149 1.67969 35.8037 2.14307 36.21 2.5874C36.6162 3.01904 36.9653 3.43799 37.2573 3.84424C37.3843 4.04736 37.4478 4.32031 37.4478 4.66309C37.4478 5.72949 37.3271 7.01172 37.0859 8.50977C36.8447 10.0078 36.5146 11.6074 36.0957 13.3086C35.6895 14.9971 35.2261 16.6855 34.7056 18.374C34.1978 20.0625 33.6582 21.6431 33.0869 23.1157C32.5283 24.5757 31.9761 25.8135 31.4302 26.8291C30.9731 27.6797 30.5605 28.2573 30.1924 28.562C29.8369 28.854 29.3228 29 28.6499 29H26.3076C25.7363 29 25.2539 28.873 24.8604 28.6191C24.4795 28.3652 24.0796 27.8892 23.6606 27.1909C23.3433 26.6577 22.9751 25.9087 22.5562 24.9438C22.1499 23.979 21.7373 22.9316 21.3184 21.8018C20.9121 20.6592 20.5439 19.5547 20.2139 18.4883C19.8838 17.4219 19.6426 16.5205 19.4902 15.7842C19.3125 14.9463 19.1602 14.1401 19.0332 13.3657C18.9189 12.5786 18.8491 11.9629 18.8237 11.5186H18.6714C18.646 11.9629 18.5635 12.5786 18.4238 13.3657C18.2969 14.1401 18.1382 14.9463 17.9478 15.7842C17.7573 16.6221 17.5034 17.5806 17.186 18.6597C16.8687 19.7388 16.5195 20.8242 16.1387 21.916C15.7578 23.0078 15.377 24.0171 14.9961 24.9438C14.6152 25.8706 14.2598 26.6069 13.9297 27.1528C13.5615 27.7749 13.1553 28.2383 12.7109 28.543C12.2793 28.8477 11.6763 29 10.9019 29H8.75C8.07715 29 7.56934 28.8794 7.22656 28.6382C6.88379 28.397 6.52832 27.9272 6.16016 27.229ZM37.4478 4.60596V4.68213V4.66309C37.4478 4.6377 37.4478 4.61865 37.4478 4.60596ZM0.142578 4.60596V4.625V4.68213V4.60596Z" fill="#2B5A9E"/>
<path d="M44.7227 29.2441C43.082 29.2441 41.7832 28.8079 40.8262 27.9355C39.8691 27.0632 39.3906 25.7643 39.3906 24.0391C39.3906 22.2682 39.8854 20.9466 40.875 20.0742C41.8711 19.1953 43.1992 18.7559 44.8594 18.7559C46.4609 18.7559 47.7435 19.1888 48.707 20.0547C49.6706 20.9141 50.1523 22.1836 50.1523 23.8633C50.1523 25.6146 49.6706 26.9492 48.707 27.8672C47.7435 28.7852 46.4154 29.2441 44.7227 29.2441ZM44.8203 26.8809C45.5365 26.8809 46.0768 26.6595 46.4414 26.2168C46.806 25.7676 46.9883 25.0026 46.9883 23.9219C46.9883 22.8932 46.8027 22.1706 46.4316 21.7539C46.0671 21.3307 45.5234 21.1191 44.8008 21.1191C44.1042 21.1191 43.554 21.347 43.1504 21.8027C42.7533 22.252 42.5547 22.9844 42.5547 24C42.5547 25.0612 42.7435 25.8066 43.1211 26.2363C43.5052 26.666 44.0716 26.8809 44.8203 26.8809ZM55.3379 20.8555H55.377C55.8652 19.5013 56.7441 18.8242 58.0137 18.8242C58.1764 18.8242 58.3099 18.834 58.4141 18.8535C58.5182 18.8665 58.5898 18.8796 58.6289 18.8926C58.7266 18.9251 58.7754 19 58.7754 19.1172V21.4707C58.7754 21.6725 58.6582 21.7279 58.4238 21.6367C58.3457 21.6042 58.2318 21.5716 58.082 21.5391C57.9388 21.5 57.737 21.4805 57.4766 21.4805C56.806 21.4805 56.2819 21.7279 55.9043 22.2227C55.5267 22.7109 55.3379 23.3783 55.3379 24.2246V28.4824C55.3379 28.6777 55.2956 28.8145 55.2109 28.8926C55.1328 28.9642 54.9961 29 54.8008 29H52.7891C52.5938 29 52.4538 28.9642 52.3691 28.8926C52.291 28.8145 52.252 28.6777 52.252 28.4824V20.2988C52.252 20.1426 52.2845 20.0221 52.3496 19.9375C52.4863 19.7552 52.6491 19.5697 52.8379 19.3809C53.0332 19.1921 53.2708 18.9902 53.5508 18.7754C53.6029 18.7363 53.6549 18.7103 53.707 18.6973C53.7591 18.6842 53.8047 18.6777 53.8438 18.6777C53.9349 18.6777 54.026 18.7103 54.1172 18.7754C54.6576 19.1986 55.0352 19.5599 55.25 19.8594C55.3086 19.9375 55.3379 20.0286 55.3379 20.1328V20.8555ZM63.3262 28.4824C63.3262 28.6777 63.2839 28.8145 63.1992 28.8926C63.1211 28.9642 62.9844 29 62.7891 29H60.7773C60.582 29 60.4421 28.9642 60.3574 28.8926C60.2793 28.8145 60.2402 28.6777 60.2402 28.4824V15.2695C60.2402 15.1133 60.2728 14.9928 60.3379 14.9082C60.6113 14.5501 61.0117 14.1628 61.5391 13.7461C61.6302 13.681 61.7116 13.6484 61.7832 13.6484C61.8678 13.6484 61.9492 13.681 62.0273 13.7461C62.3073 13.9609 62.5417 14.1628 62.7305 14.3516C62.9258 14.5404 63.0918 14.7259 63.2285 14.9082C63.2936 14.9928 63.3262 15.1133 63.3262 15.2695V22.9355H63.4434C64.4329 22.9355 65.1035 22.7598 65.4551 22.4082C65.8132 22.0501 65.9922 21.5553 65.9922 20.9238V20.3965C65.9922 20.2402 66.0247 20.1198 66.0898 20.0352C66.3633 19.6771 66.7637 19.2897 67.291 18.873C67.3822 18.8079 67.4635 18.7754 67.5352 18.7754C67.6198 18.7754 67.7012 18.8079 67.7793 18.873C68.0592 19.0879 68.2936 19.2897 68.4824 19.4785C68.6777 19.6673 68.8438 19.8529 68.9805 20.0352C69.0456 20.1198 69.0781 20.2402 69.0781 20.3965V20.9238C69.0781 21.2949 69.0033 21.7051 68.8535 22.1543C68.7103 22.6035 68.4466 23.0007 68.0625 23.3457C67.6784 23.6908 67.1315 23.8926 66.4219 23.9512V24C66.9688 24.2409 67.4408 24.5599 67.8379 24.957C68.235 25.3542 68.5671 25.7806 68.834 26.2363C69.1009 26.6855 69.306 27.1185 69.4492 27.5352C69.599 27.9453 69.6966 28.2936 69.7422 28.5801C69.7878 28.86 69.6934 29 69.459 29H66.8906C66.6693 29 66.5423 28.8665 66.5098 28.5996C66.4642 28.2936 66.3633 27.9355 66.207 27.5254C66.0573 27.1087 65.8522 26.7018 65.5918 26.3047C65.3379 25.9076 65.0286 25.5788 64.6641 25.3184C64.306 25.0514 63.8991 24.918 63.4434 24.918H63.3262V28.4824ZM71.1191 15.7188C71.1191 15.6341 71.1452 15.5592 71.1973 15.4941C71.2493 15.429 71.3177 15.3444 71.4023 15.2402C71.5846 15.0319 71.7962 14.8138 72.0371 14.5859C72.278 14.3516 72.5221 14.127 72.7695 13.9121C72.9258 13.7884 73.043 13.7266 73.1211 13.7266C73.1992 13.7266 73.3197 13.7884 73.4824 13.9121C74.0098 14.3678 74.459 14.8105 74.8301 15.2402C74.9147 15.3379 74.9831 15.4225 75.0352 15.4941C75.0938 15.5592 75.123 15.6341 75.123 15.7188C75.123 15.8034 75.0938 15.8783 75.0352 15.9434C74.9831 16.0085 74.9115 16.0964 74.8203 16.207C74.6445 16.4089 74.4395 16.627 74.2051 16.8613C73.9707 17.0892 73.7298 17.3073 73.4824 17.5156C73.3913 17.5938 73.3197 17.6458 73.2676 17.6719C73.2155 17.6914 73.1667 17.7012 73.1211 17.7012C73.0755 17.7012 73.0267 17.6914 72.9746 17.6719C72.929 17.6458 72.8542 17.5938 72.75 17.5156C72.4896 17.3073 72.2454 17.0892 72.0176 16.8613C71.7897 16.627 71.5846 16.4023 71.4023 16.1875C71.3177 16.0833 71.2493 16.002 71.1973 15.9434C71.1452 15.8783 71.1191 15.8034 71.1191 15.7188ZM74.6543 28.4824C74.6543 28.6777 74.612 28.8145 74.5273 28.8926C74.4492 28.9642 74.3125 29 74.1172 29H72.1055C71.9102 29 71.7702 28.9642 71.6855 28.8926C71.6074 28.8145 71.5684 28.6777 71.5684 28.4824V19.5176C71.5684 19.3223 71.6074 19.1888 71.6855 19.1172C71.7702 19.0391 71.9102 19 72.1055 19H74.1172C74.3125 19 74.4492 19.0391 74.5273 19.1172C74.612 19.1888 74.6543 19.3223 74.6543 19.5176V28.4824ZM81.1875 28.4824C81.1875 28.6777 81.1452 28.8145 81.0605 28.8926C80.9824 28.9642 80.8457 29 80.6504 29H78.6387C78.4434 29 78.3034 28.9642 78.2188 28.8926C78.1406 28.8145 78.1016 28.6777 78.1016 28.4824V21.2754H76.9492C76.7539 21.2754 76.6172 21.2363 76.5391 21.1582C76.4674 21.0736 76.4316 20.9336 76.4316 20.7383V19.5371C76.4316 19.3418 76.4674 19.2051 76.5391 19.127C76.6172 19.0423 76.7539 19 76.9492 19H78.1016V17.7598C78.1016 16.972 78.2578 16.2949 78.5703 15.7285C78.8893 15.1621 79.3158 14.7259 79.8496 14.4199C80.39 14.1139 80.9889 13.9609 81.6465 13.9609C81.9525 13.9609 82.1836 13.974 82.3398 14C82.5026 14.026 82.623 14.0651 82.7012 14.1172C82.9551 14.2604 83.3066 14.5534 83.7559 14.9961C83.8275 15.0742 83.8633 15.1523 83.8633 15.2305C83.8633 15.3151 83.8079 15.4128 83.6973 15.5234C83.502 15.7253 83.3164 15.8978 83.1406 16.041C82.9648 16.1777 82.8216 16.2819 82.7109 16.3535C82.6133 16.4121 82.5254 16.4479 82.4473 16.4609C82.3757 16.4674 82.2747 16.4707 82.1445 16.4707C81.5065 16.4707 81.1875 16.959 81.1875 17.9355V19H82.9551C83.1504 19 83.2839 19.0423 83.3555 19.127C83.4336 19.2051 83.4727 19.3418 83.4727 19.5371V20.7383C83.4727 20.9336 83.4336 21.0736 83.3555 21.1582C83.2839 21.2363 83.1504 21.2754 82.9551 21.2754H81.1875V28.4824ZM85.6504 33.6973C85.4095 33.6973 85.2272 33.6712 85.1035 33.6191C84.9798 33.5736 84.8757 33.515 84.791 33.4434C84.6217 33.2806 84.4395 33.0527 84.2441 32.7598C84.1986 32.6882 84.1497 32.6035 84.0977 32.5059C84.0456 32.4147 84.0195 32.3366 84.0195 32.2715C84.0195 32.1999 84.0358 32.1348 84.0684 32.0762C84.1009 32.0176 84.14 31.9622 84.1855 31.9102C84.2897 31.7734 84.4167 31.6302 84.5664 31.4805C84.7161 31.3372 84.8431 31.2233 84.9473 31.1387C85.0189 31.0801 85.0775 31.041 85.123 31.0215C85.1686 31.0085 85.2077 31.002 85.2402 31.002C85.2728 31.002 85.3216 31.0085 85.3867 31.0215C85.4518 31.0345 85.5495 31.041 85.6797 31.041C86.1289 31.041 86.5977 30.8945 87.0859 30.6016C87.5742 30.3086 88.056 29.7585 88.5312 28.9512C88.0365 28.4954 87.5482 27.9258 87.0664 27.2422C86.5911 26.5521 86.1615 25.8066 85.7773 25.0059C85.3932 24.1986 85.084 23.3945 84.8496 22.5938C84.6217 21.793 84.5078 21.054 84.5078 20.377C84.5078 20.2337 84.5436 20.1198 84.6152 20.0352C84.9147 19.6641 85.3411 19.2767 85.8945 18.873C85.9922 18.8079 86.0801 18.7754 86.1582 18.7754C86.2428 18.7754 86.3307 18.8079 86.4219 18.873C86.7214 19.0879 86.972 19.2897 87.1738 19.4785C87.3822 19.6673 87.5579 19.8529 87.7012 20.0352C87.7728 20.1198 87.8086 20.2402 87.8086 20.3965V20.3574C87.8086 20.8717 87.8704 21.4154 87.9941 21.9883C88.1178 22.5612 88.2871 23.1211 88.502 23.668C88.7168 24.2083 88.9577 24.6999 89.2246 25.1426C89.4915 25.5788 89.7682 25.9271 90.0547 26.1875H90.1035C90.2337 25.9401 90.377 25.5853 90.5332 25.123C90.696 24.6543 90.849 24.1367 90.9922 23.5703C91.1354 22.9974 91.2526 22.431 91.3438 21.8711C91.4349 21.3047 91.4805 20.8034 91.4805 20.3672V20.3965C91.4805 20.2402 91.513 20.1198 91.5781 20.0352C91.7279 19.8529 91.9036 19.6673 92.1055 19.4785C92.3073 19.2897 92.5514 19.0879 92.8379 18.873C92.929 18.8079 93.0137 18.7754 93.0918 18.7754C93.1829 18.7754 93.2676 18.8079 93.3457 18.873C93.6387 19.0879 93.8861 19.2897 94.0879 19.4785C94.2897 19.6673 94.4622 19.8529 94.6055 20.0352C94.6706 20.1198 94.7031 20.237 94.7031 20.3867C94.6966 20.9792 94.5827 21.7539 94.3613 22.7109C94.14 23.6615 93.8177 24.6934 93.3945 25.8066C92.9714 26.9199 92.457 28.0104 91.8516 29.0781C90.9466 30.6862 89.9701 31.8581 88.9219 32.5938C87.8737 33.3294 86.7832 33.6973 85.6504 33.6973ZM94.7031 20.3672V20.3965V20.3867C94.7031 20.3802 94.7031 20.3737 94.7031 20.3672ZM84.5078 20.3672V20.377V20.3965V20.3672Z" fill="#16233B"/>
</svg>