<svg width="38" height="29" viewBox="0 0 38 29" fill="none" xmlns="http://www.w3.org/2000/svg">
<path d="M6.16016 27.229C5.61426 26.2007 5.05566 24.8994 4.48438 23.3252C3.91309 21.7383 3.36719 20.0371 2.84668 18.2217C2.32617 16.4062 1.86279 14.6162 1.45654 12.8516C1.05029 11.0742 0.726562 9.46191 0.485352 8.01465C0.256836 6.56738 0.142578 5.4375 0.142578 4.625C0.142578 4.29492 0.212402 4.03467 0.352051 3.84424C0.644043 3.43799 0.999512 3.01904 1.41846 2.5874C1.8501 2.14307 2.35791 1.67969 2.94189 1.19727C3.13232 1.04492 3.31006 0.96875 3.4751 0.96875C3.64014 0.96875 3.80518 1.04492 3.97021 1.19727C4.56689 1.67969 5.07471 2.14307 5.49365 2.5874C5.9126 3.01904 6.26807 3.43799 6.56006 3.84424C6.69971 4.03467 6.76953 4.31396 6.76953 4.68213V4.60596C6.76953 5.44385 6.87744 6.58008 7.09326 8.01465C7.32178 9.43652 7.61377 10.998 7.96924 12.6992C8.3374 14.3877 8.73096 16.0571 9.1499 17.7075C9.58154 19.3452 10.0068 20.8052 10.4258 22.0874H10.54C11.2256 20.3862 11.8667 18.5391 12.4634 16.5459C13.0601 14.5527 13.6187 12.5151 14.1392 10.4331C14.6597 8.35107 15.1484 6.32617 15.6055 4.3584C15.7451 3.78711 15.98 3.39355 16.3101 3.17773C16.6528 2.94922 17.186 2.83496 17.9097 2.83496H20.1948C20.8423 2.83496 21.3247 2.93018 21.6421 3.12061C21.9595 3.31104 22.188 3.72363 22.3276 4.3584C22.6577 5.83105 23.0322 7.38623 23.4512 9.02393C23.8701 10.6616 24.3018 12.293 24.7461 13.918C25.2031 15.5303 25.6602 17.041 26.1172 18.4502C26.5869 19.8594 27.0312 21.0718 27.4502 22.0874H27.5645C28.0977 20.8813 28.5737 19.4595 28.9927 17.8218C29.4243 16.1841 29.7861 14.5146 30.0781 12.8135C30.3828 11.0996 30.6113 9.5127 30.7637 8.05273C30.9287 6.59277 31.0112 5.44385 31.0112 4.60596V4.68213C31.0112 4.31396 31.0747 4.03467 31.2017 3.84424C31.811 3.00635 32.6489 2.12402 33.7153 1.19727C33.9185 1.04492 34.0962 0.96875 34.2485 0.96875C34.3882 0.96875 34.5532 1.04492 34.7437 1.19727C35.3149 1.67969 35.8037 2.14307 36.21 2.5874C36.6162 3.01904 36.9653 3.43799 37.2573 3.84424C37.3843 4.04736 37.4478 4.32031 37.4478 4.66309C37.4478 5.72949 37.3271 7.01172 37.0859 8.50977C36.8447 10.0078 36.5146 11.6074 36.0957 13.3086C35.6895 14.9971 35.2261 16.6855 34.7056 18.374C34.1978 20.0625 33.6582 21.6431 33.0869 23.1157C32.5283 24.5757 31.9761 25.8135 31.4302 26.8291C30.9731 27.6797 30.5605 28.2573 30.1924 28.562C29.8369 28.854 29.3228 29 28.6499 29H26.3076C25.7363 29 25.2539 28.873 24.8604 28.6191C24.4795 28.3652 24.0796 27.8892 23.6606 27.1909C23.3433 26.6577 22.9751 25.9087 22.5562 24.9438C22.1499 23.979 21.7373 22.9316 21.3184 21.8018C20.9121 20.6592 20.5439 19.5547 20.2139 18.4883C19.8838 17.4219 19.6426 16.5205 19.4902 15.7842C19.3125 14.9463 19.1602 14.1401 19.0332 13.3657C18.9189 12.5786 18.8491 11.9629 18.8237 11.5186H18.6714C18.646 11.9629 18.5635 12.5786 18.4238 13.3657C18.2969 14.1401 18.1382 14.9463 17.9478 15.7842C17.7573 16.6221 17.5034 17.5806 17.186 18.6597C16.8687 19.7388 16.5195 20.8242 16.1387 21.916C15.7578 23.0078 15.377 24.0171 14.9961 24.9438C14.6152 25.8706 14.2598 26.6069 13.9297 27.1528C13.5615 27.7749 13.1553 28.2383 12.7109 28.543C12.2793 28.8477 11.6763 29 10.9019 29H8.75C8.07715 29 7.56934 28.8794 7.22656 28.6382C6.88379 28.397 6.52832 27.9272 6.16016 27.229ZM37.4478 4.60596V4.68213V4.66309C37.4478 4.6377 37.4478 4.61865 37.4478 4.60596ZM0.142578 4.60596V4.625V4.68213V4.60596Z" fill="#2B5A9E"/>
</svg>