<svg width="25" height="25" viewBox="0 0 25 25" fill="none" xmlns="http://www.w3.org/2000/svg">
<path d="M17.68 6.51138C17.4409 6.37845 17.1778 6.29394 16.906 6.26267C16.6341 6.2314 16.3588 6.25399 16.0957 6.32915C15.8326 6.40431 15.5869 6.53057 15.3726 6.70071C15.1583 6.87085 14.9796 7.08154 14.8467 7.32075L10.979 14.2812L8.76544 12.0676C8.57326 11.8686 8.34338 11.7099 8.0892 11.6008C7.83503 11.4916 7.56165 11.4341 7.28503 11.4317C7.00841 11.4293 6.73407 11.482 6.47804 11.5868C6.22201 11.6915 5.9894 11.8462 5.79379 12.0418C5.59818 12.2374 5.44348 12.47 5.33873 12.7261C5.23398 12.9821 5.18127 13.2564 5.18367 13.533C5.18608 13.8097 5.24355 14.083 5.35273 14.3372C5.46192 14.5914 5.62063 14.8213 5.81961 15.0135L9.98628 19.1801C10.38 19.5749 10.9113 19.7916 11.4592 19.7916L11.7477 19.7708C12.0671 19.7261 12.3717 19.6079 12.6375 19.4255C12.9034 19.2431 13.1234 19.0015 13.28 18.7197L18.4884 9.34471C18.6213 9.1056 18.7059 8.84264 18.7372 8.57084C18.7686 8.29904 18.7461 8.02373 18.671 7.76063C18.596 7.49752 18.4698 7.25178 18.2998 7.03744C18.1297 6.82309 17.9191 6.64434 17.68 6.51138Z" fill="black"/>
</svg>