<svg width="39" height="42" viewBox="0 0 39 42" fill="none" xmlns="http://www.w3.org/2000/svg">
<g id="Icon" filter="url(#filter0_d_824_929)">
<g id="Group">
<path id="Vector" d="M14.1258 17.1435C14.1154 16.6093 14.2117 16.0785 14.409 15.582C14.6063 15.0855 14.9006 14.6333 15.2747 14.2519C15.6488 13.8705 16.0952 13.5676 16.5878 13.3607C17.0804 13.1539 17.6092 13.0474 18.1435 13.0474C18.6778 13.0474 19.2066 13.1539 19.6992 13.3607C20.1918 13.5676 20.6382 13.8705 21.0123 14.2519C21.3864 14.6333 21.6807 15.0855 21.878 15.582C22.0753 16.0785 22.1716 16.6093 22.1613 17.1435C22.1409 18.1956 21.7087 19.1978 20.9574 19.9347C20.2062 20.6716 19.1958 21.0844 18.1435 21.0844C17.0912 21.0844 16.0808 20.6716 15.3296 19.9347C14.5783 19.1978 14.1461 18.1956 14.1258 17.1435Z" fill="#2B5A9E"/>
<path id="Vector_2" d="M4.375 18.375C4.375 10.0904 11.0904 3.375 19.375 3.375C27.6596 3.375 34.375 10.0904 34.375 18.375C34.375 26.6596 27.6596 33.375 19.375 33.375C11.0904 33.375 4.375 26.6596 4.375 18.375ZM18.4965 11.0673C17.488 11.0673 16.4936 11.3045 15.5937 11.7599C14.6938 12.2152 13.9137 12.8758 13.3163 13.6884C12.719 14.501 12.3211 15.4427 12.155 16.4374C11.9889 17.4322 12.0591 18.4521 12.36 19.4147C12.6609 20.3773 13.184 21.2556 13.8871 21.9786C14.5902 22.7017 15.4535 23.2492 16.4073 23.5769C17.3611 23.9046 18.3786 24.0033 19.3776 23.8651C20.3766 23.7269 21.3291 23.3555 22.1581 22.7812L24.7119 25.3427C24.8182 25.453 24.9454 25.5411 25.0861 25.6018C25.2268 25.6624 25.3781 25.6945 25.5313 25.696C25.6845 25.6976 25.8365 25.6686 25.9784 25.6108C26.1203 25.5529 26.2492 25.4675 26.3577 25.3593C26.4662 25.2511 26.552 25.1224 26.6103 24.9807C26.6685 24.839 26.6979 24.6871 26.6968 24.5339C26.6957 24.3807 26.6641 24.2292 26.6038 24.0884C26.5435 23.9475 26.4558 23.8201 26.3458 23.7135L23.7873 21.1473C24.453 20.1823 24.8422 19.0536 24.9127 17.8834C24.9833 16.7131 24.7325 15.5459 24.1875 14.5079C23.6425 13.4699 22.8241 12.6007 21.8208 11.9942C20.8174 11.3878 19.6689 11.0673 18.4965 11.0673Z" fill="#2B5A9E"/>
</g>
</g>
<defs>
<filter id="filter0_d_824_929" x="-3" y="0" width="44" height="44" filterUnits="userSpaceOnUse" color-interpolation-filters="sRGB">
<feFlood flood-opacity="0" result="BackgroundImageFix"/>
<feColorMatrix in="SourceAlpha" type="matrix" values="0 0 0 0 0 0 0 0 0 0 0 0 0 0 0 0 0 0 127 0" result="hardAlpha"/>
<feOffset dy="4"/>
<feGaussianBlur stdDeviation="2"/>
<feComposite in2="hardAlpha" operator="out"/>
<feColorMatrix type="matrix" values="0 0 0 0 0 0 0 0 0 0 0 0 0 0 0 0 0 0 0.25 0"/>
<feBlend mode="normal" in2="BackgroundImageFix" result="effect1_dropShadow_824_929"/>
<feBlend mode="normal" in="SourceGraphic" in2="effect1_dropShadow_824_929" result="shape"/>
</filter>
</defs>
</svg>