<svg width="642" height="152" viewBox="0 0 642 152" fill="none" xmlns="http://www.w3.org/2000/svg">
<path d="M276.664 22C276.664 19.0826 277.832 16.2847 279.91 14.2218C281.989 12.1589 284.808 11 287.748 11H332.084C333.554 11.0003 334.963 11.58 336.002 12.6115L363.712 40.1115C364.751 41.1427 365.336 42.5414 365.336 44V110C365.336 112.917 364.168 115.715 362.089 117.778C360.011 119.841 357.191 121 354.252 121H287.748C284.808 121 281.989 119.841 279.91 117.778C277.832 115.715 276.664 112.917 276.664 110V22ZM351.957 44L332.084 24.277V44H351.957ZM321 22H287.748V110H354.252V55H326.542C325.072 55 323.662 54.4205 322.623 53.3891C321.584 52.3576 321 50.9587 321 49.5V22ZM298.832 71.5C298.832 70.0413 299.416 68.6424 300.455 67.6109C301.495 66.5795 302.904 66 304.374 66H337.626C339.096 66 340.505 66.5795 341.545 67.6109C342.584 68.6424 343.168 70.0413 343.168 71.5C343.168 72.9587 342.584 74.3576 341.545 75.3891C340.505 76.4205 339.096 77 337.626 77H304.374C302.904 77 301.495 76.4205 300.455 75.3891C299.416 74.3576 298.832 72.9587 298.832 71.5ZM298.832 93.5C298.832 92.0413 299.416 90.6424 300.455 89.6109C301.495 88.5795 302.904 88 304.374 88H337.626C339.096 88 340.505 88.5795 341.545 89.6109C342.584 90.6424 343.168 92.0413 343.168 93.5C343.168 94.9587 342.584 96.3576 341.545 97.3891C340.505 98.4205 339.096 99 337.626 99H304.374C302.904 99 301.495 98.4205 300.455 97.3891C299.416 96.3576 298.832 94.9587 298.832 93.5Z" fill="#6092D0"/>
<path d="M6.688 148.128C5.83467 148.128 5.04533 147.989 4.32 147.712C3.60533 147.424 2.98133 147.024 2.448 146.512C1.92533 145.989 1.51467 145.381 1.216 144.688C0.917333 143.995 0.768 143.232 0.768 142.4C0.768 141.568 0.917333 140.805 1.216 140.112C1.51467 139.419 1.93067 138.816 2.464 138.304C2.99733 137.781 3.62133 137.381 4.336 137.104C5.06133 136.816 5.85067 136.672 6.704 136.672C7.568 136.672 8.36267 136.821 9.088 137.12C9.824 137.408 10.448 137.84 10.96 138.416L9.92 139.424C9.49333 138.976 9.01333 138.645 8.48 138.432C7.94667 138.208 7.376 138.096 6.768 138.096C6.13867 138.096 5.552 138.203 5.008 138.416C4.47467 138.629 4.01067 138.928 3.616 139.312C3.22133 139.696 2.912 140.155 2.688 140.688C2.47467 141.211 2.368 141.781 2.368 142.4C2.368 143.019 2.47467 143.595 2.688 144.128C2.912 144.651 3.22133 145.104 3.616 145.488C4.01067 145.872 4.47467 146.171 5.008 146.384C5.552 146.597 6.13867 146.704 6.768 146.704C7.376 146.704 7.94667 146.597 8.48 146.384C9.01333 146.16 9.49333 145.819 9.92 145.36L10.96 146.368C10.448 146.944 9.824 147.381 9.088 147.68C8.36267 147.979 7.56267 148.128 6.688 148.128ZM13.0185 148V136.128H14.5545V148H13.0185ZM17.4873 148V139.52H19.0233V148H17.4873ZM18.2553 137.888C17.9566 137.888 17.7059 137.792 17.5033 137.6C17.3113 137.408 17.2153 137.173 17.2153 136.896C17.2153 136.608 17.3113 136.368 17.5033 136.176C17.7059 135.984 17.9566 135.888 18.2553 135.888C18.5539 135.888 18.7993 135.984 18.9913 136.176C19.1939 136.357 19.2953 136.587 19.2953 136.864C19.2953 137.152 19.1993 137.397 19.0073 137.6C18.8153 137.792 18.5646 137.888 18.2553 137.888ZM25.652 148.096C24.788 148.096 24.0147 147.909 23.332 147.536C22.66 147.163 22.132 146.651 21.748 146C21.364 145.349 21.172 144.603 21.172 143.76C21.172 142.917 21.364 142.171 21.748 141.52C22.132 140.869 22.66 140.363 23.332 140C24.0147 139.627 24.788 139.44 25.652 139.44C26.42 139.44 27.1027 139.595 27.7 139.904C28.308 140.203 28.7773 140.651 29.108 141.248L27.94 142C27.6627 141.584 27.3213 141.28 26.916 141.088C26.5213 140.885 26.0947 140.784 25.636 140.784C25.0813 140.784 24.5853 140.907 24.148 141.152C23.7107 141.397 23.364 141.744 23.108 142.192C22.852 142.629 22.724 143.152 22.724 143.76C22.724 144.368 22.852 144.896 23.108 145.344C23.364 145.792 23.7107 146.139 24.148 146.384C24.5853 146.629 25.0813 146.752 25.636 146.752C26.0947 146.752 26.5213 146.656 26.916 146.464C27.3213 146.261 27.6627 145.952 27.94 145.536L29.108 146.272C28.7773 146.859 28.308 147.312 27.7 147.632C27.1027 147.941 26.42 148.096 25.652 148.096ZM32.2353 145.952L32.2673 143.984L37.1473 139.52H39.0033L35.2593 143.2L34.4273 143.904L32.2353 145.952ZM30.9873 148V136.128H32.5233V148H30.9873ZM37.4673 148L34.1393 143.872L35.1313 142.64L39.3553 148H37.4673ZM48.0555 148.096C47.2022 148.096 46.5408 147.867 46.0715 147.408C45.6022 146.949 45.3675 146.293 45.3675 145.44V137.664H46.9035V145.376C46.9035 145.835 47.0155 146.187 47.2395 146.432C47.4742 146.677 47.8048 146.8 48.2315 146.8C48.7115 146.8 49.1115 146.667 49.4315 146.4L49.9115 147.504C49.6768 147.707 49.3942 147.856 49.0635 147.952C48.7435 148.048 48.4075 148.096 48.0555 148.096ZM43.9275 140.784V139.52H49.3355V140.784H43.9275ZM56.2965 139.44C56.9898 139.44 57.5978 139.573 58.1205 139.84C58.6538 140.107 59.0698 140.512 59.3685 141.056C59.6672 141.6 59.8165 142.288 59.8165 143.12V148H58.2805V143.296C58.2805 142.475 58.0778 141.856 57.6725 141.44C57.2778 141.024 56.7178 140.816 55.9925 140.816C55.4485 140.816 54.9738 140.923 54.5685 141.136C54.1632 141.349 53.8485 141.664 53.6245 142.08C53.4112 142.496 53.3045 143.013 53.3045 143.632V148H51.7685V136.128H53.3045V141.808L53.0005 141.2C53.2778 140.645 53.7045 140.213 54.2805 139.904C54.8565 139.595 55.5285 139.44 56.2965 139.44ZM66.4351 148.096C65.5285 148.096 64.7285 147.909 64.0351 147.536C63.3525 147.163 62.8191 146.651 62.4351 146C62.0618 145.349 61.8751 144.603 61.8751 143.76C61.8751 142.917 62.0565 142.171 62.4191 141.52C62.7925 140.869 63.2991 140.363 63.9391 140C64.5898 139.627 65.3205 139.44 66.1311 139.44C66.9525 139.44 67.6778 139.621 68.3071 139.984C68.9365 140.347 69.4271 140.859 69.7791 141.52C70.1418 142.171 70.3231 142.933 70.3231 143.808C70.3231 143.872 70.3178 143.947 70.3071 144.032C70.3071 144.117 70.3018 144.197 70.2911 144.272H63.0751V143.168H69.4911L68.8671 143.552C68.8778 143.008 68.7658 142.523 68.5311 142.096C68.2965 141.669 67.9711 141.339 67.5551 141.104C67.1498 140.859 66.6751 140.736 66.1311 140.736C65.5978 140.736 65.1231 140.859 64.7071 141.104C64.2911 141.339 63.9658 141.675 63.7311 142.112C63.4965 142.539 63.3791 143.029 63.3791 143.584V143.84C63.3791 144.405 63.5071 144.912 63.7631 145.36C64.0298 145.797 64.3978 146.139 64.8671 146.384C65.3365 146.629 65.8751 146.752 66.4831 146.752C66.9845 146.752 67.4378 146.667 67.8431 146.496C68.2591 146.325 68.6218 146.069 68.9311 145.728L69.7791 146.72C69.3951 147.168 68.9151 147.509 68.3391 147.744C67.7738 147.979 67.1391 148.096 66.4351 148.096ZM81.2489 148.096C80.5235 148.096 79.8675 147.936 79.2809 147.616C78.7049 147.285 78.2462 146.8 77.9049 146.16C77.5742 145.52 77.4089 144.72 77.4089 143.76C77.4089 142.8 77.5795 142 77.9209 141.36C78.2729 140.72 78.7369 140.24 79.3129 139.92C79.8995 139.6 80.5449 139.44 81.2489 139.44C82.0809 139.44 82.8169 139.621 83.4569 139.984C84.0969 140.347 84.6035 140.853 84.9769 141.504C85.3502 142.144 85.5369 142.896 85.5369 143.76C85.5369 144.624 85.3502 145.381 84.9769 146.032C84.6035 146.683 84.0969 147.189 83.4569 147.552C82.8169 147.915 82.0809 148.096 81.2489 148.096ZM76.7529 148V136.128H78.2889V141.776L78.1289 143.744L78.2249 145.712V148H76.7529ZM81.1209 146.752C81.6649 146.752 82.1502 146.629 82.5769 146.384C83.0142 146.139 83.3555 145.792 83.6009 145.344C83.8569 144.885 83.9849 144.357 83.9849 143.76C83.9849 143.152 83.8569 142.629 83.6009 142.192C83.3555 141.744 83.0142 141.397 82.5769 141.152C82.1502 140.907 81.6649 140.784 81.1209 140.784C80.5875 140.784 80.1022 140.907 79.6649 141.152C79.2382 141.397 78.8969 141.744 78.6409 142.192C78.3955 142.629 78.2729 143.152 78.2729 143.76C78.2729 144.357 78.3955 144.885 78.6409 145.344C78.8969 145.792 79.2382 146.139 79.6649 146.384C80.1022 146.629 80.5875 146.752 81.1209 146.752ZM91.2271 148.096C90.5018 148.096 89.8618 147.963 89.3071 147.696C88.7631 147.429 88.3365 147.024 88.0271 146.48C87.7285 145.925 87.5791 145.232 87.5791 144.4V139.52H89.1151V144.224C89.1151 145.056 89.3125 145.68 89.7071 146.096C90.1125 146.512 90.6778 146.72 91.4031 146.72C91.9365 146.72 92.4005 146.613 92.7951 146.4C93.1898 146.176 93.4938 145.856 93.7071 145.44C93.9205 145.013 94.0271 144.501 94.0271 143.904V139.52H95.5631V148H94.1071V145.712L94.3471 146.32C94.0698 146.885 93.6538 147.323 93.0991 147.632C92.5445 147.941 91.9205 148.096 91.2271 148.096ZM101.399 148.096C100.546 148.096 99.8846 147.867 99.4153 147.408C98.9459 146.949 98.7113 146.293 98.7113 145.44V137.664H100.247V145.376C100.247 145.835 100.359 146.187 100.583 146.432C100.818 146.677 101.149 146.8 101.575 146.8C102.055 146.8 102.455 146.667 102.775 146.4L103.255 147.504C103.021 147.707 102.738 147.856 102.407 147.952C102.087 148.048 101.751 148.096 101.399 148.096ZM97.2713 140.784V139.52H102.679V140.784H97.2713ZM107.821 148.096C106.968 148.096 106.306 147.867 105.837 147.408C105.368 146.949 105.133 146.293 105.133 145.44V137.664H106.669V145.376C106.669 145.835 106.781 146.187 107.005 146.432C107.24 146.677 107.57 146.8 107.997 146.8C108.477 146.8 108.877 146.667 109.197 146.4L109.677 147.504C109.442 147.707 109.16 147.856 108.829 147.952C108.509 148.048 108.173 148.096 107.821 148.096ZM103.693 140.784V139.52H109.101V140.784H103.693ZM114.885 148.096C114.032 148.096 113.274 147.909 112.613 147.536C111.952 147.163 111.429 146.651 111.045 146C110.661 145.339 110.469 144.592 110.469 143.76C110.469 142.917 110.661 142.171 111.045 141.52C111.429 140.869 111.952 140.363 112.613 140C113.274 139.627 114.032 139.44 114.885 139.44C115.728 139.44 116.48 139.627 117.141 140C117.813 140.363 118.336 140.869 118.709 141.52C119.093 142.16 119.285 142.907 119.285 143.76C119.285 144.603 119.093 145.349 118.709 146C118.336 146.651 117.813 147.163 117.141 147.536C116.48 147.909 115.728 148.096 114.885 148.096ZM114.885 146.752C115.429 146.752 115.914 146.629 116.341 146.384C116.778 146.139 117.12 145.792 117.365 145.344C117.61 144.885 117.733 144.357 117.733 143.76C117.733 143.152 117.61 142.629 117.365 142.192C117.12 141.744 116.778 141.397 116.341 141.152C115.914 140.907 115.429 140.784 114.885 140.784C114.341 140.784 113.856 140.907 113.429 141.152C113.002 141.397 112.661 141.744 112.405 142.192C112.149 142.629 112.021 143.152 112.021 143.76C112.021 144.357 112.149 144.885 112.405 145.344C112.661 145.792 113.002 146.139 113.429 146.384C113.856 146.629 114.341 146.752 114.885 146.752ZM125.937 139.44C126.63 139.44 127.238 139.573 127.761 139.84C128.294 140.107 128.71 140.512 129.009 141.056C129.308 141.6 129.457 142.288 129.457 143.12V148H127.921V143.296C127.921 142.475 127.718 141.856 127.313 141.44C126.918 141.024 126.358 140.816 125.633 140.816C125.089 140.816 124.614 140.923 124.209 141.136C123.804 141.349 123.489 141.664 123.265 142.08C123.052 142.496 122.945 143.013 122.945 143.632V148H121.409V139.52H122.881V141.808L122.641 141.2C122.918 140.645 123.345 140.213 123.921 139.904C124.497 139.595 125.169 139.44 125.937 139.44ZM141.093 148.096C140.367 148.096 139.711 147.936 139.125 147.616C138.549 147.285 138.09 146.8 137.749 146.16C137.418 145.52 137.253 144.72 137.253 143.76C137.253 142.8 137.423 142 137.765 141.36C138.117 140.72 138.581 140.24 139.157 139.92C139.743 139.6 140.389 139.44 141.093 139.44C141.925 139.44 142.661 139.621 143.301 139.984C143.941 140.347 144.447 140.853 144.821 141.504C145.194 142.144 145.381 142.896 145.381 143.76C145.381 144.624 145.194 145.381 144.821 146.032C144.447 146.683 143.941 147.189 143.301 147.552C142.661 147.915 141.925 148.096 141.093 148.096ZM136.597 148V136.128H138.133V141.776L137.973 143.744L138.069 145.712V148H136.597ZM140.965 146.752C141.509 146.752 141.994 146.629 142.421 146.384C142.858 146.139 143.199 145.792 143.445 145.344C143.701 144.885 143.829 144.357 143.829 143.76C143.829 143.152 143.701 142.629 143.445 142.192C143.199 141.744 142.858 141.397 142.421 141.152C141.994 140.907 141.509 140.784 140.965 140.784C140.431 140.784 139.946 140.907 139.509 141.152C139.082 141.397 138.741 141.744 138.485 142.192C138.239 142.629 138.117 143.152 138.117 143.76C138.117 144.357 138.239 144.885 138.485 145.344C138.741 145.792 139.082 146.139 139.509 146.384C139.946 146.629 140.431 146.752 140.965 146.752ZM151.279 148.096C150.372 148.096 149.572 147.909 148.879 147.536C148.196 147.163 147.663 146.651 147.279 146C146.906 145.349 146.719 144.603 146.719 143.76C146.719 142.917 146.9 142.171 147.263 141.52C147.636 140.869 148.143 140.363 148.783 140C149.434 139.627 150.164 139.44 150.975 139.44C151.796 139.44 152.522 139.621 153.151 139.984C153.78 140.347 154.271 140.859 154.623 141.52C154.986 142.171 155.167 142.933 155.167 143.808C155.167 143.872 155.162 143.947 155.151 144.032C155.151 144.117 155.146 144.197 155.135 144.272H147.919V143.168H154.335L153.711 143.552C153.722 143.008 153.61 142.523 153.375 142.096C153.14 141.669 152.815 141.339 152.399 141.104C151.994 140.859 151.519 140.736 150.975 140.736C150.442 140.736 149.967 140.859 149.551 141.104C149.135 141.339 148.81 141.675 148.575 142.112C148.34 142.539 148.223 143.029 148.223 143.584V143.84C148.223 144.405 148.351 144.912 148.607 145.36C148.874 145.797 149.242 146.139 149.711 146.384C150.18 146.629 150.719 146.752 151.327 146.752C151.828 146.752 152.282 146.667 152.687 146.496C153.103 146.325 153.466 146.069 153.775 145.728L154.623 146.72C154.239 147.168 153.759 147.509 153.183 147.744C152.618 147.979 151.983 148.096 151.279 148.096ZM157.3 148V136.128H158.836V148H157.3ZM165.401 148.096C164.547 148.096 163.79 147.909 163.129 147.536C162.467 147.163 161.945 146.651 161.561 146C161.177 145.339 160.985 144.592 160.985 143.76C160.985 142.917 161.177 142.171 161.561 141.52C161.945 140.869 162.467 140.363 163.129 140C163.79 139.627 164.547 139.44 165.401 139.44C166.243 139.44 166.995 139.627 167.657 140C168.329 140.363 168.851 140.869 169.225 141.52C169.609 142.16 169.801 142.907 169.801 143.76C169.801 144.603 169.609 145.349 169.225 146C168.851 146.651 168.329 147.163 167.657 147.536C166.995 147.909 166.243 148.096 165.401 148.096ZM165.401 146.752C165.945 146.752 166.43 146.629 166.857 146.384C167.294 146.139 167.635 145.792 167.881 145.344C168.126 144.885 168.249 144.357 168.249 143.76C168.249 143.152 168.126 142.629 167.881 142.192C167.635 141.744 167.294 141.397 166.857 141.152C166.43 140.907 165.945 140.784 165.401 140.784C164.857 140.784 164.371 140.907 163.945 141.152C163.518 141.397 163.177 141.744 162.921 142.192C162.665 142.629 162.537 143.152 162.537 143.76C162.537 144.357 162.665 144.885 162.921 145.344C163.177 145.792 163.518 146.139 163.945 146.384C164.371 146.629 164.857 146.752 165.401 146.752ZM173.482 148L170.33 139.52H171.786L174.586 147.2H173.898L176.81 139.52H178.106L180.954 147.2H180.282L183.146 139.52H184.522L181.354 148H179.882L177.21 140.992H177.658L174.954 148H173.482ZM193.29 148.096C192.437 148.096 191.775 147.867 191.306 147.408C190.837 146.949 190.602 146.293 190.602 145.44V137.664H192.138V145.376C192.138 145.835 192.25 146.187 192.474 146.432C192.709 146.677 193.039 146.8 193.466 146.8C193.946 146.8 194.346 146.667 194.666 146.4L195.146 147.504C194.911 147.707 194.629 147.856 194.298 147.952C193.978 148.048 193.642 148.096 193.29 148.096ZM189.162 140.784V139.52H194.57V140.784H189.162ZM200.354 148.096C199.5 148.096 198.743 147.909 198.082 147.536C197.42 147.163 196.898 146.651 196.514 146C196.13 145.339 195.938 144.592 195.938 143.76C195.938 142.917 196.13 142.171 196.514 141.52C196.898 140.869 197.42 140.363 198.082 140C198.743 139.627 199.5 139.44 200.354 139.44C201.196 139.44 201.948 139.627 202.61 140C203.282 140.363 203.804 140.869 204.178 141.52C204.562 142.16 204.754 142.907 204.754 143.76C204.754 144.603 204.562 145.349 204.178 146C203.804 146.651 203.282 147.163 202.61 147.536C201.948 147.909 201.196 148.096 200.354 148.096ZM200.354 146.752C200.898 146.752 201.383 146.629 201.81 146.384C202.247 146.139 202.588 145.792 202.834 145.344C203.079 144.885 203.202 144.357 203.202 143.76C203.202 143.152 203.079 142.629 202.834 142.192C202.588 141.744 202.247 141.397 201.81 141.152C201.383 140.907 200.898 140.784 200.354 140.784C199.81 140.784 199.324 140.907 198.898 141.152C198.471 141.397 198.13 141.744 197.874 142.192C197.618 142.629 197.49 143.152 197.49 143.76C197.49 144.357 197.618 144.885 197.874 145.344C198.13 145.792 198.471 146.139 198.898 146.384C199.324 146.629 199.81 146.752 200.354 146.752ZM214.743 148.096C214.017 148.096 213.377 147.963 212.823 147.696C212.279 147.429 211.852 147.024 211.543 146.48C211.244 145.925 211.095 145.232 211.095 144.4V139.52H212.631V144.224C212.631 145.056 212.828 145.68 213.223 146.096C213.628 146.512 214.193 146.72 214.919 146.72C215.452 146.72 215.916 146.613 216.311 146.4C216.705 146.176 217.009 145.856 217.223 145.44C217.436 145.013 217.543 144.501 217.543 143.904V139.52H219.079V148H217.623V145.712L217.863 146.32C217.585 146.885 217.169 147.323 216.615 147.632C216.06 147.941 215.436 148.096 214.743 148.096ZM226.499 148.096C225.795 148.096 225.15 147.936 224.563 147.616C223.987 147.285 223.523 146.8 223.171 146.16C222.83 145.52 222.659 144.72 222.659 143.76C222.659 142.8 222.824 142 223.155 141.36C223.496 140.72 223.955 140.24 224.531 139.92C225.118 139.6 225.774 139.44 226.499 139.44C227.331 139.44 228.067 139.621 228.707 139.984C229.347 140.347 229.854 140.853 230.227 141.504C230.6 142.144 230.787 142.896 230.787 143.76C230.787 144.624 230.6 145.381 230.227 146.032C229.854 146.683 229.347 147.189 228.707 147.552C228.067 147.915 227.331 148.096 226.499 148.096ZM222.003 151.104V139.52H223.475V141.808L223.379 143.776L223.539 145.744V151.104H222.003ZM226.371 146.752C226.915 146.752 227.4 146.629 227.827 146.384C228.264 146.139 228.606 145.792 228.851 145.344C229.107 144.885 229.235 144.357 229.235 143.76C229.235 143.152 229.107 142.629 228.851 142.192C228.606 141.744 228.264 141.397 227.827 141.152C227.4 140.907 226.915 140.784 226.371 140.784C225.838 140.784 225.352 140.907 224.915 141.152C224.488 141.397 224.147 141.744 223.891 142.192C223.646 142.629 223.523 143.152 223.523 143.76C223.523 144.357 223.646 144.885 223.891 145.344C224.147 145.792 224.488 146.139 224.915 146.384C225.352 146.629 225.838 146.752 226.371 146.752ZM232.909 148V136.128H234.445V148H232.909ZM241.01 148.096C240.157 148.096 239.399 147.909 238.738 147.536C238.077 147.163 237.554 146.651 237.17 146C236.786 145.339 236.594 144.592 236.594 143.76C236.594 142.917 236.786 142.171 237.17 141.52C237.554 140.869 238.077 140.363 238.738 140C239.399 139.627 240.157 139.44 241.01 139.44C241.853 139.44 242.605 139.627 243.266 140C243.938 140.363 244.461 140.869 244.834 141.52C245.218 142.16 245.41 142.907 245.41 143.76C245.41 144.603 245.218 145.349 244.834 146C244.461 146.651 243.938 147.163 243.266 147.536C242.605 147.909 241.853 148.096 241.01 148.096ZM241.01 146.752C241.554 146.752 242.039 146.629 242.466 146.384C242.903 146.139 243.245 145.792 243.49 145.344C243.735 144.885 243.858 144.357 243.858 143.76C243.858 143.152 243.735 142.629 243.49 142.192C243.245 141.744 242.903 141.397 242.466 141.152C242.039 140.907 241.554 140.784 241.01 140.784C240.466 140.784 239.981 140.907 239.554 141.152C239.127 141.397 238.786 141.744 238.53 142.192C238.274 142.629 238.146 143.152 238.146 143.76C238.146 144.357 238.274 144.885 238.53 145.344C238.786 145.792 239.127 146.139 239.554 146.384C239.981 146.629 240.466 146.752 241.01 146.752ZM252.72 148V146.208L252.64 145.872V142.816C252.64 142.165 252.448 141.664 252.064 141.312C251.691 140.949 251.125 140.768 250.368 140.768C249.867 140.768 249.376 140.853 248.896 141.024C248.416 141.184 248.011 141.403 247.68 141.68L247.04 140.528C247.477 140.176 248 139.909 248.608 139.728C249.227 139.536 249.872 139.44 250.544 139.44C251.707 139.44 252.603 139.723 253.232 140.288C253.861 140.853 254.176 141.717 254.176 142.88V148H252.72ZM249.936 148.096C249.307 148.096 248.752 147.989 248.272 147.776C247.803 147.563 247.44 147.269 247.184 146.896C246.928 146.512 246.8 146.08 246.8 145.6C246.8 145.141 246.907 144.725 247.12 144.352C247.344 143.979 247.701 143.68 248.192 143.456C248.693 143.232 249.365 143.12 250.208 143.12H252.896V144.224H250.272C249.504 144.224 248.987 144.352 248.72 144.608C248.453 144.864 248.32 145.173 248.32 145.536C248.32 145.952 248.485 146.288 248.816 146.544C249.147 146.789 249.605 146.912 250.192 146.912C250.768 146.912 251.269 146.784 251.696 146.528C252.133 146.272 252.448 145.899 252.64 145.408L252.944 146.464C252.741 146.965 252.384 147.365 251.872 147.664C251.36 147.952 250.715 148.096 249.936 148.096ZM260.523 148.096C259.701 148.096 258.965 147.915 258.315 147.552C257.675 147.189 257.168 146.683 256.795 146.032C256.421 145.381 256.235 144.624 256.235 143.76C256.235 142.896 256.421 142.144 256.795 141.504C257.168 140.853 257.675 140.347 258.315 139.984C258.965 139.621 259.701 139.44 260.523 139.44C261.237 139.44 261.883 139.6 262.459 139.92C263.035 140.24 263.493 140.72 263.835 141.36C264.187 142 264.363 142.8 264.363 143.76C264.363 144.72 264.192 145.52 263.851 146.16C263.52 146.8 263.067 147.285 262.491 147.616C261.915 147.936 261.259 148.096 260.523 148.096ZM260.651 146.752C261.184 146.752 261.664 146.629 262.091 146.384C262.528 146.139 262.869 145.792 263.115 145.344C263.371 144.885 263.499 144.357 263.499 143.76C263.499 143.152 263.371 142.629 263.115 142.192C262.869 141.744 262.528 141.397 262.091 141.152C261.664 140.907 261.184 140.784 260.651 140.784C260.107 140.784 259.621 140.907 259.195 141.152C258.768 141.397 258.427 141.744 258.171 142.192C257.915 142.629 257.787 143.152 257.787 143.76C257.787 144.357 257.915 144.885 258.171 145.344C258.427 145.792 258.768 146.139 259.195 146.384C259.621 146.629 260.107 146.752 260.651 146.752ZM263.547 148V145.712L263.642 143.744L263.483 141.776V136.128H265.019V148H263.547ZM272.59 151.2C272.184 151.2 271.79 151.131 271.406 150.992C271.022 150.864 270.691 150.672 270.414 150.416L271.07 149.264C271.283 149.467 271.518 149.621 271.774 149.728C272.03 149.835 272.302 149.888 272.59 149.888C272.963 149.888 273.272 149.792 273.518 149.6C273.763 149.408 273.992 149.067 274.206 148.576L274.734 147.408L274.894 147.216L278.222 139.52H279.726L275.614 148.848C275.368 149.445 275.091 149.915 274.782 150.256C274.483 150.597 274.152 150.837 273.79 150.976C273.427 151.125 273.027 151.2 272.59 151.2ZM274.606 148.272L270.734 139.52H272.334L275.63 147.072L274.606 148.272ZM284.557 148.096C283.703 148.096 282.946 147.909 282.285 147.536C281.623 147.163 281.101 146.651 280.717 146C280.333 145.339 280.141 144.592 280.141 143.76C280.141 142.917 280.333 142.171 280.717 141.52C281.101 140.869 281.623 140.363 282.285 140C282.946 139.627 283.703 139.44 284.557 139.44C285.399 139.44 286.151 139.627 286.813 140C287.485 140.363 288.007 140.869 288.381 141.52C288.765 142.16 288.957 142.907 288.957 143.76C288.957 144.603 288.765 145.349 288.381 146C288.007 146.651 287.485 147.163 286.813 147.536C286.151 147.909 285.399 148.096 284.557 148.096ZM284.557 146.752C285.101 146.752 285.586 146.629 286.013 146.384C286.45 146.139 286.791 145.792 287.037 145.344C287.282 144.885 287.405 144.357 287.405 143.76C287.405 143.152 287.282 142.629 287.037 142.192C286.791 141.744 286.45 141.397 286.013 141.152C285.586 140.907 285.101 140.784 284.557 140.784C284.013 140.784 283.527 140.907 283.101 141.152C282.674 141.397 282.333 141.744 282.077 142.192C281.821 142.629 281.693 143.152 281.693 143.76C281.693 144.357 281.821 144.885 282.077 145.344C282.333 145.792 282.674 146.139 283.101 146.384C283.527 146.629 284.013 146.752 284.557 146.752ZM294.649 148.096C293.924 148.096 293.284 147.963 292.729 147.696C292.185 147.429 291.758 147.024 291.449 146.48C291.15 145.925 291.001 145.232 291.001 144.4V139.52H292.537V144.224C292.537 145.056 292.734 145.68 293.129 146.096C293.534 146.512 294.1 146.72 294.825 146.72C295.358 146.72 295.822 146.613 296.217 146.4C296.612 146.176 296.916 145.856 297.129 145.44C297.342 145.013 297.449 144.501 297.449 143.904V139.52H298.985V148H297.529V145.712L297.769 146.32C297.492 146.885 297.076 147.323 296.521 147.632C295.966 147.941 295.342 148.096 294.649 148.096ZM301.909 148V139.52H303.381V141.824L303.237 141.248C303.472 140.661 303.866 140.213 304.421 139.904C304.976 139.595 305.658 139.44 306.469 139.44V140.928C306.405 140.917 306.341 140.912 306.277 140.912C306.224 140.912 306.17 140.912 306.117 140.912C305.296 140.912 304.645 141.157 304.165 141.648C303.685 142.139 303.445 142.848 303.445 143.776V148H301.909ZM312.769 148V139.52H314.241V141.824L314.097 141.248C314.331 140.661 314.726 140.213 315.281 139.904C315.835 139.595 316.518 139.44 317.329 139.44V140.928C317.265 140.917 317.201 140.912 317.137 140.912C317.083 140.912 317.03 140.912 316.977 140.912C316.155 140.912 315.505 141.157 315.025 141.648C314.545 142.139 314.305 142.848 314.305 143.776V148H312.769ZM322.92 148.096C322.013 148.096 321.213 147.909 320.52 147.536C319.837 147.163 319.304 146.651 318.92 146C318.546 145.349 318.36 144.603 318.36 143.76C318.36 142.917 318.541 142.171 318.904 141.52C319.277 140.869 319.784 140.363 320.424 140C321.074 139.627 321.805 139.44 322.616 139.44C323.437 139.44 324.162 139.621 324.792 139.984C325.421 140.347 325.912 140.859 326.264 141.52C326.626 142.171 326.808 142.933 326.808 143.808C326.808 143.872 326.802 143.947 326.792 144.032C326.792 144.117 326.786 144.197 326.776 144.272H319.56V143.168H325.976L325.352 143.552C325.362 143.008 325.25 142.523 325.016 142.096C324.781 141.669 324.456 141.339 324.04 141.104C323.634 140.859 323.16 140.736 322.616 140.736C322.082 140.736 321.608 140.859 321.192 141.104C320.776 141.339 320.45 141.675 320.216 142.112C319.981 142.539 319.864 143.029 319.864 143.584V143.84C319.864 144.405 319.992 144.912 320.248 145.36C320.514 145.797 320.882 146.139 321.352 146.384C321.821 146.629 322.36 146.752 322.968 146.752C323.469 146.752 323.922 146.667 324.328 146.496C324.744 146.325 325.106 146.069 325.416 145.728L326.264 146.72C325.88 147.168 325.4 147.509 324.824 147.744C324.258 147.979 323.624 148.096 322.92 148.096ZM331.372 148.096C330.668 148.096 329.996 148 329.356 147.808C328.727 147.616 328.231 147.381 327.868 147.104L328.508 145.888C328.871 146.133 329.319 146.341 329.852 146.512C330.386 146.683 330.93 146.768 331.484 146.768C332.199 146.768 332.711 146.667 333.02 146.464C333.34 146.261 333.5 145.979 333.5 145.616C333.5 145.349 333.404 145.141 333.212 144.992C333.02 144.843 332.764 144.731 332.444 144.656C332.135 144.581 331.788 144.517 331.404 144.464C331.02 144.4 330.636 144.325 330.252 144.24C329.868 144.144 329.516 144.016 329.196 143.856C328.876 143.685 328.62 143.456 328.428 143.168C328.236 142.869 328.14 142.475 328.14 141.984C328.14 141.472 328.284 141.024 328.572 140.64C328.86 140.256 329.266 139.963 329.788 139.76C330.322 139.547 330.951 139.44 331.676 139.44C332.231 139.44 332.791 139.509 333.356 139.648C333.932 139.776 334.402 139.963 334.764 140.208L334.108 141.424C333.724 141.168 333.324 140.992 332.908 140.896C332.492 140.8 332.076 140.752 331.66 140.752C330.988 140.752 330.487 140.864 330.156 141.088C329.826 141.301 329.66 141.579 329.66 141.92C329.66 142.208 329.756 142.432 329.948 142.592C330.151 142.741 330.407 142.859 330.716 142.944C331.036 143.029 331.388 143.104 331.772 143.168C332.156 143.221 332.54 143.296 332.924 143.392C333.308 143.477 333.655 143.6 333.964 143.76C334.284 143.92 334.54 144.144 334.732 144.432C334.935 144.72 335.036 145.104 335.036 145.584C335.036 146.096 334.887 146.539 334.588 146.912C334.29 147.285 333.868 147.579 333.324 147.792C332.78 147.995 332.13 148.096 331.372 148.096ZM340.524 148.096C339.799 148.096 339.159 147.963 338.604 147.696C338.06 147.429 337.633 147.024 337.324 146.48C337.025 145.925 336.876 145.232 336.876 144.4V139.52H338.412V144.224C338.412 145.056 338.609 145.68 339.004 146.096C339.409 146.512 339.975 146.72 340.7 146.72C341.233 146.72 341.697 146.613 342.092 146.4C342.487 146.176 342.791 145.856 343.004 145.44C343.217 145.013 343.324 144.501 343.324 143.904V139.52H344.86V148H343.404V145.712L343.644 146.32C343.367 146.885 342.951 147.323 342.396 147.632C341.841 147.941 341.217 148.096 340.524 148.096ZM358.392 139.44C359.075 139.44 359.677 139.573 360.2 139.84C360.723 140.107 361.128 140.512 361.416 141.056C361.715 141.6 361.864 142.288 361.864 143.12V148H360.328V143.296C360.328 142.475 360.136 141.856 359.752 141.44C359.368 141.024 358.829 140.816 358.136 140.816C357.624 140.816 357.176 140.923 356.792 141.136C356.408 141.349 356.109 141.664 355.896 142.08C355.693 142.496 355.592 143.013 355.592 143.632V148H354.056V143.296C354.056 142.475 353.864 141.856 353.48 141.44C353.107 141.024 352.568 140.816 351.864 140.816C351.363 140.816 350.92 140.923 350.536 141.136C350.152 141.349 349.853 141.664 349.64 142.08C349.427 142.496 349.32 143.013 349.32 143.632V148H347.784V139.52H349.256V141.776L349.016 141.2C349.283 140.645 349.693 140.213 350.248 139.904C350.803 139.595 351.448 139.44 352.184 139.44C352.995 139.44 353.693 139.643 354.28 140.048C354.867 140.443 355.251 141.045 355.432 141.856L354.808 141.6C355.064 140.949 355.512 140.427 356.152 140.032C356.792 139.637 357.539 139.44 358.392 139.44ZM368.466 148.096C367.56 148.096 366.76 147.909 366.066 147.536C365.384 147.163 364.85 146.651 364.466 146C364.093 145.349 363.906 144.603 363.906 143.76C363.906 142.917 364.088 142.171 364.45 141.52C364.824 140.869 365.33 140.363 365.97 140C366.621 139.627 367.352 139.44 368.162 139.44C368.984 139.44 369.709 139.621 370.338 139.984C370.968 140.347 371.458 140.859 371.81 141.52C372.173 142.171 372.354 142.933 372.354 143.808C372.354 143.872 372.349 143.947 372.338 144.032C372.338 144.117 372.333 144.197 372.322 144.272H365.106V143.168H371.522L370.898 143.552C370.909 143.008 370.797 142.523 370.562 142.096C370.328 141.669 370.002 141.339 369.586 141.104C369.181 140.859 368.706 140.736 368.162 140.736C367.629 140.736 367.154 140.859 366.738 141.104C366.322 141.339 365.997 141.675 365.762 142.112C365.528 142.539 365.41 143.029 365.41 143.584V143.84C365.41 144.405 365.538 144.912 365.794 145.36C366.061 145.797 366.429 146.139 366.898 146.384C367.368 146.629 367.906 146.752 368.514 146.752C369.016 146.752 369.469 146.667 369.874 146.496C370.29 146.325 370.653 146.069 370.962 145.728L371.81 146.72C371.426 147.168 370.946 147.509 370.37 147.744C369.805 147.979 369.17 148.096 368.466 148.096ZM384.048 148V146.208L383.968 145.872V142.816C383.968 142.165 383.776 141.664 383.392 141.312C383.019 140.949 382.453 140.768 381.696 140.768C381.195 140.768 380.704 140.853 380.224 141.024C379.744 141.184 379.339 141.403 379.008 141.68L378.368 140.528C378.805 140.176 379.328 139.909 379.936 139.728C380.555 139.536 381.2 139.44 381.872 139.44C383.035 139.44 383.931 139.723 384.56 140.288C385.189 140.853 385.504 141.717 385.504 142.88V148H384.048ZM381.264 148.096C380.635 148.096 380.08 147.989 379.6 147.776C379.131 147.563 378.768 147.269 378.512 146.896C378.256 146.512 378.128 146.08 378.128 145.6C378.128 145.141 378.235 144.725 378.448 144.352C378.672 143.979 379.029 143.68 379.52 143.456C380.021 143.232 380.693 143.12 381.536 143.12H384.224V144.224H381.6C380.832 144.224 380.315 144.352 380.048 144.608C379.781 144.864 379.648 145.173 379.648 145.536C379.648 145.952 379.813 146.288 380.144 146.544C380.475 146.789 380.933 146.912 381.52 146.912C382.096 146.912 382.597 146.784 383.024 146.528C383.461 146.272 383.776 145.899 383.968 145.408L384.272 146.464C384.069 146.965 383.712 147.365 383.2 147.664C382.688 147.952 382.043 148.096 381.264 148.096ZM390.779 148.096C390.075 148.096 389.403 148 388.763 147.808C388.133 147.616 387.637 147.381 387.275 147.104L387.915 145.888C388.277 146.133 388.725 146.341 389.259 146.512C389.792 146.683 390.336 146.768 390.891 146.768C391.605 146.768 392.117 146.667 392.427 146.464C392.747 146.261 392.907 145.979 392.907 145.616C392.907 145.349 392.811 145.141 392.619 144.992C392.427 144.843 392.171 144.731 391.851 144.656C391.541 144.581 391.195 144.517 390.811 144.464C390.427 144.4 390.043 144.325 389.659 144.24C389.275 144.144 388.923 144.016 388.603 143.856C388.283 143.685 388.027 143.456 387.835 143.168C387.643 142.869 387.547 142.475 387.547 141.984C387.547 141.472 387.691 141.024 387.979 140.64C388.267 140.256 388.672 139.963 389.195 139.76C389.728 139.547 390.357 139.44 391.083 139.44C391.637 139.44 392.197 139.509 392.763 139.648C393.339 139.776 393.808 139.963 394.171 140.208L393.515 141.424C393.131 141.168 392.731 140.992 392.315 140.896C391.899 140.8 391.483 140.752 391.067 140.752C390.395 140.752 389.893 140.864 389.563 141.088C389.232 141.301 389.067 141.579 389.067 141.92C389.067 142.208 389.163 142.432 389.355 142.592C389.557 142.741 389.813 142.859 390.123 142.944C390.443 143.029 390.795 143.104 391.179 143.168C391.563 143.221 391.947 143.296 392.331 143.392C392.715 143.477 393.061 143.6 393.371 143.76C393.691 143.92 393.947 144.144 394.139 144.432C394.341 144.72 394.443 145.104 394.443 145.584C394.443 146.096 394.293 146.539 393.995 146.912C393.696 147.285 393.275 147.579 392.731 147.792C392.187 147.995 391.536 148.096 390.779 148.096ZM405.923 148V146.208L405.843 145.872V142.816C405.843 142.165 405.651 141.664 405.267 141.312C404.894 140.949 404.328 140.768 403.571 140.768C403.07 140.768 402.579 140.853 402.099 141.024C401.619 141.184 401.214 141.403 400.883 141.68L400.243 140.528C400.68 140.176 401.203 139.909 401.811 139.728C402.43 139.536 403.075 139.44 403.747 139.44C404.91 139.44 405.806 139.723 406.435 140.288C407.064 140.853 407.379 141.717 407.379 142.88V148H405.923ZM403.139 148.096C402.51 148.096 401.955 147.989 401.475 147.776C401.006 147.563 400.643 147.269 400.387 146.896C400.131 146.512 400.003 146.08 400.003 145.6C400.003 145.141 400.11 144.725 400.323 144.352C400.547 143.979 400.904 143.68 401.395 143.456C401.896 143.232 402.568 143.12 403.411 143.12H406.099V144.224H403.475C402.707 144.224 402.19 144.352 401.923 144.608C401.656 144.864 401.523 145.173 401.523 145.536C401.523 145.952 401.688 146.288 402.019 146.544C402.35 146.789 402.808 146.912 403.395 146.912C403.971 146.912 404.472 146.784 404.899 146.528C405.336 146.272 405.651 145.899 405.843 145.408L406.147 146.464C405.944 146.965 405.587 147.365 405.075 147.664C404.563 147.952 403.918 148.096 403.139 148.096ZM414.887 148.096C414.588 148.096 414.332 147.995 414.118 147.792C413.905 147.579 413.799 147.312 413.799 146.992C413.799 146.672 413.905 146.411 414.118 146.208C414.332 146.005 414.588 145.904 414.887 145.904C415.175 145.904 415.42 146.005 415.623 146.208C415.836 146.411 415.943 146.672 415.943 146.992C415.943 147.312 415.836 147.579 415.623 147.792C415.42 147.995 415.175 148.096 414.887 148.096ZM422.64 148.096C421.936 148.096 421.29 147.936 420.704 147.616C420.128 147.285 419.664 146.8 419.312 146.16C418.97 145.52 418.799 144.72 418.799 143.76C418.799 142.8 418.965 142 419.296 141.36C419.637 140.72 420.096 140.24 420.672 139.92C421.258 139.6 421.914 139.44 422.64 139.44C423.472 139.44 424.208 139.621 424.848 139.984C425.488 140.347 425.994 140.853 426.368 141.504C426.741 142.144 426.928 142.896 426.928 143.76C426.928 144.624 426.741 145.381 426.368 146.032C425.994 146.683 425.488 147.189 424.848 147.552C424.208 147.915 423.472 148.096 422.64 148.096ZM418.144 151.104V139.52H419.616V141.808L419.52 143.776L419.68 145.744V151.104H418.144ZM422.512 146.752C423.056 146.752 423.541 146.629 423.968 146.384C424.405 146.139 424.746 145.792 424.992 145.344C425.248 144.885 425.376 144.357 425.376 143.76C425.376 143.152 425.248 142.629 424.992 142.192C424.746 141.744 424.405 141.397 423.968 141.152C423.541 140.907 423.056 140.784 422.512 140.784C421.978 140.784 421.493 140.907 421.056 141.152C420.629 141.397 420.288 141.744 420.032 142.192C419.786 142.629 419.664 143.152 419.664 143.76C419.664 144.357 419.786 144.885 420.032 145.344C420.288 145.792 420.629 146.139 421.056 146.384C421.493 146.629 421.978 146.752 422.512 146.752ZM432.554 148.096C431.732 148.096 430.996 147.915 430.346 147.552C429.706 147.189 429.199 146.683 428.826 146.032C428.452 145.381 428.266 144.624 428.266 143.76C428.266 142.896 428.452 142.144 428.826 141.504C429.199 140.853 429.706 140.347 430.346 139.984C430.996 139.621 431.732 139.44 432.554 139.44C433.268 139.44 433.914 139.6 434.49 139.92C435.066 140.24 435.524 140.72 435.866 141.36C436.218 142 436.394 142.8 436.394 143.76C436.394 144.72 436.223 145.52 435.882 146.16C435.551 146.8 435.098 147.285 434.522 147.616C433.946 147.936 433.29 148.096 432.554 148.096ZM432.682 146.752C433.215 146.752 433.695 146.629 434.122 146.384C434.559 146.139 434.9 145.792 435.146 145.344C435.402 144.885 435.53 144.357 435.53 143.76C435.53 143.152 435.402 142.629 435.146 142.192C434.9 141.744 434.559 141.397 434.122 141.152C433.695 140.907 433.215 140.784 432.682 140.784C432.138 140.784 431.652 140.907 431.226 141.152C430.799 141.397 430.458 141.744 430.202 142.192C429.946 142.629 429.818 143.152 429.818 143.76C429.818 144.357 429.946 144.885 430.202 145.344C430.458 145.792 430.799 146.139 431.226 146.384C431.652 146.629 432.138 146.752 432.682 146.752ZM435.578 148V145.712L435.674 143.744L435.514 141.776V136.128H437.05V148H435.578ZM440.18 148V138.768C440.18 137.936 440.42 137.275 440.9 136.784C441.391 136.283 442.084 136.032 442.98 136.032C443.311 136.032 443.625 136.075 443.924 136.16C444.233 136.235 444.495 136.357 444.708 136.528L444.244 137.696C444.084 137.568 443.903 137.472 443.7 137.408C443.497 137.333 443.284 137.296 443.06 137.296C442.612 137.296 442.271 137.424 442.036 137.68C441.801 137.925 441.684 138.293 441.684 138.784V139.92L441.716 140.624V148H440.18ZM438.74 140.784V139.52H444.148V140.784H438.74ZM444.832 150.368L445.632 147.136L445.84 148.064C445.531 148.064 445.27 147.968 445.056 147.776C444.854 147.584 444.752 147.323 444.752 146.992C444.752 146.672 444.854 146.411 445.056 146.208C445.27 146.005 445.526 145.904 445.824 145.904C446.134 145.904 446.384 146.011 446.576 146.224C446.768 146.427 446.864 146.683 446.864 146.992C446.864 147.099 446.854 147.205 446.832 147.312C446.822 147.408 446.795 147.525 446.752 147.664C446.72 147.792 446.667 147.952 446.592 148.144L445.84 150.368H444.832ZM453.73 148.096C453.432 148.096 453.176 147.995 452.962 147.792C452.749 147.579 452.642 147.312 452.642 146.992C452.642 146.672 452.749 146.411 452.962 146.208C453.176 146.005 453.432 145.904 453.73 145.904C454.018 145.904 454.264 146.005 454.466 146.208C454.68 146.411 454.786 146.672 454.786 146.992C454.786 147.312 454.68 147.579 454.466 147.792C454.264 147.995 454.018 148.096 453.73 148.096ZM460.304 148.096C459.482 148.096 458.746 147.915 458.096 147.552C457.456 147.189 456.949 146.683 456.576 146.032C456.202 145.381 456.016 144.624 456.016 143.76C456.016 142.896 456.202 142.144 456.576 141.504C456.949 140.853 457.456 140.347 458.096 139.984C458.746 139.621 459.482 139.44 460.304 139.44C461.018 139.44 461.664 139.6 462.24 139.92C462.816 140.24 463.274 140.72 463.616 141.36C463.968 142 464.144 142.8 464.144 143.76C464.144 144.72 463.973 145.52 463.632 146.16C463.301 146.8 462.848 147.285 462.272 147.616C461.696 147.936 461.04 148.096 460.304 148.096ZM460.432 146.752C460.965 146.752 461.445 146.629 461.872 146.384C462.309 146.139 462.65 145.792 462.896 145.344C463.152 144.885 463.28 144.357 463.28 143.76C463.28 143.152 463.152 142.629 462.896 142.192C462.65 141.744 462.309 141.397 461.872 141.152C461.445 140.907 460.965 140.784 460.432 140.784C459.888 140.784 459.402 140.907 458.976 141.152C458.549 141.397 458.208 141.744 457.952 142.192C457.696 142.629 457.568 143.152 457.568 143.76C457.568 144.357 457.696 144.885 457.952 145.344C458.208 145.792 458.549 146.139 458.976 146.384C459.402 146.629 459.888 146.752 460.432 146.752ZM463.328 148V145.712L463.424 143.744L463.264 141.776V136.128H464.8V148H463.328ZM471.338 148.096C470.485 148.096 469.727 147.909 469.066 147.536C468.405 147.163 467.882 146.651 467.498 146C467.114 145.339 466.922 144.592 466.922 143.76C466.922 142.917 467.114 142.171 467.498 141.52C467.882 140.869 468.405 140.363 469.066 140C469.727 139.627 470.485 139.44 471.338 139.44C472.181 139.44 472.933 139.627 473.594 140C474.266 140.363 474.789 140.869 475.162 141.52C475.546 142.16 475.738 142.907 475.738 143.76C475.738 144.603 475.546 145.349 475.162 146C474.789 146.651 474.266 147.163 473.594 147.536C472.933 147.909 472.181 148.096 471.338 148.096ZM471.338 146.752C471.882 146.752 472.367 146.629 472.794 146.384C473.231 146.139 473.573 145.792 473.818 145.344C474.063 144.885 474.186 144.357 474.186 143.76C474.186 143.152 474.063 142.629 473.818 142.192C473.573 141.744 473.231 141.397 472.794 141.152C472.367 140.907 471.882 140.784 471.338 140.784C470.794 140.784 470.309 140.907 469.882 141.152C469.455 141.397 469.114 141.744 468.858 142.192C468.602 142.629 468.474 143.152 468.474 143.76C468.474 144.357 468.602 144.885 468.858 145.344C469.114 145.792 469.455 146.139 469.882 146.384C470.309 146.629 470.794 146.752 471.338 146.752ZM481.558 148.096C480.694 148.096 479.921 147.909 479.238 147.536C478.566 147.163 478.038 146.651 477.654 146C477.27 145.349 477.078 144.603 477.078 143.76C477.078 142.917 477.27 142.171 477.654 141.52C478.038 140.869 478.566 140.363 479.238 140C479.921 139.627 480.694 139.44 481.558 139.44C482.326 139.44 483.009 139.595 483.606 139.904C484.214 140.203 484.684 140.651 485.014 141.248L483.846 142C483.569 141.584 483.228 141.28 482.822 141.088C482.428 140.885 482.001 140.784 481.542 140.784C480.988 140.784 480.492 140.907 480.054 141.152C479.617 141.397 479.27 141.744 479.014 142.192C478.758 142.629 478.63 143.152 478.63 143.76C478.63 144.368 478.758 144.896 479.014 145.344C479.27 145.792 479.617 146.139 480.054 146.384C480.492 146.629 480.988 146.752 481.542 146.752C482.001 146.752 482.428 146.656 482.822 146.464C483.228 146.261 483.569 145.952 483.846 145.536L485.014 146.272C484.684 146.859 484.214 147.312 483.606 147.632C483.009 147.941 482.326 148.096 481.558 148.096ZM486.707 150.368L487.507 147.136L487.715 148.064C487.406 148.064 487.145 147.968 486.931 147.776C486.729 147.584 486.627 147.323 486.627 146.992C486.627 146.672 486.729 146.411 486.931 146.208C487.145 146.005 487.401 145.904 487.699 145.904C488.009 145.904 488.259 146.011 488.451 146.224C488.643 146.427 488.739 146.683 488.739 146.992C488.739 147.099 488.729 147.205 488.707 147.312C488.697 147.408 488.67 147.525 488.627 147.664C488.595 147.792 488.542 147.952 488.467 148.144L487.715 150.368H486.707ZM495.605 148.096C495.307 148.096 495.051 147.995 494.837 147.792C494.624 147.579 494.517 147.312 494.517 146.992C494.517 146.672 494.624 146.411 494.837 146.208C495.051 146.005 495.307 145.904 495.605 145.904C495.893 145.904 496.139 146.005 496.341 146.208C496.555 146.411 496.661 146.672 496.661 146.992C496.661 147.312 496.555 147.579 496.341 147.792C496.139 147.995 495.893 148.096 495.605 148.096ZM502.179 148.096C501.357 148.096 500.621 147.915 499.971 147.552C499.331 147.189 498.824 146.683 498.451 146.032C498.077 145.381 497.891 144.624 497.891 143.76C497.891 142.896 498.077 142.144 498.451 141.504C498.824 140.853 499.331 140.347 499.971 139.984C500.621 139.621 501.357 139.44 502.179 139.44C502.893 139.44 503.539 139.6 504.115 139.92C504.691 140.24 505.149 140.72 505.491 141.36C505.843 142 506.019 142.8 506.019 143.76C506.019 144.72 505.848 145.52 505.507 146.16C505.176 146.8 504.723 147.285 504.147 147.616C503.571 147.936 502.915 148.096 502.179 148.096ZM502.307 146.752C502.84 146.752 503.32 146.629 503.747 146.384C504.184 146.139 504.525 145.792 504.771 145.344C505.027 144.885 505.155 144.357 505.155 143.76C505.155 143.152 505.027 142.629 504.771 142.192C504.525 141.744 504.184 141.397 503.747 141.152C503.32 140.907 502.84 140.784 502.307 140.784C501.763 140.784 501.277 140.907 500.851 141.152C500.424 141.397 500.083 141.744 499.827 142.192C499.571 142.629 499.443 143.152 499.443 143.76C499.443 144.357 499.571 144.885 499.827 145.344C500.083 145.792 500.424 146.139 500.851 146.384C501.277 146.629 501.763 146.752 502.307 146.752ZM505.203 148V145.712L505.299 143.744L505.139 141.776V136.128H506.675V148H505.203ZM513.213 148.096C512.36 148.096 511.602 147.909 510.941 147.536C510.28 147.163 509.757 146.651 509.373 146C508.989 145.339 508.797 144.592 508.797 143.76C508.797 142.917 508.989 142.171 509.373 141.52C509.757 140.869 510.28 140.363 510.941 140C511.602 139.627 512.36 139.44 513.213 139.44C514.056 139.44 514.808 139.627 515.469 140C516.141 140.363 516.664 140.869 517.037 141.52C517.421 142.16 517.613 142.907 517.613 143.76C517.613 144.603 517.421 145.349 517.037 146C516.664 146.651 516.141 147.163 515.469 147.536C514.808 147.909 514.056 148.096 513.213 148.096ZM513.213 146.752C513.757 146.752 514.242 146.629 514.669 146.384C515.106 146.139 515.448 145.792 515.693 145.344C515.938 144.885 516.061 144.357 516.061 143.76C516.061 143.152 515.938 142.629 515.693 142.192C515.448 141.744 515.106 141.397 514.669 141.152C514.242 140.907 513.757 140.784 513.213 140.784C512.669 140.784 512.184 140.907 511.757 141.152C511.33 141.397 510.989 141.744 510.733 142.192C510.477 142.629 510.349 143.152 510.349 143.76C510.349 144.357 510.477 144.885 510.733 145.344C510.989 145.792 511.33 146.139 511.757 146.384C512.184 146.629 512.669 146.752 513.213 146.752ZM523.433 148.096C522.569 148.096 521.796 147.909 521.113 147.536C520.441 147.163 519.913 146.651 519.529 146C519.145 145.349 518.953 144.603 518.953 143.76C518.953 142.917 519.145 142.171 519.529 141.52C519.913 140.869 520.441 140.363 521.113 140C521.796 139.627 522.569 139.44 523.433 139.44C524.201 139.44 524.884 139.595 525.481 139.904C526.089 140.203 526.559 140.651 526.889 141.248L525.721 142C525.444 141.584 525.103 141.28 524.697 141.088C524.303 140.885 523.876 140.784 523.417 140.784C522.863 140.784 522.367 140.907 521.929 141.152C521.492 141.397 521.145 141.744 520.889 142.192C520.633 142.629 520.505 143.152 520.505 143.76C520.505 144.368 520.633 144.896 520.889 145.344C521.145 145.792 521.492 146.139 521.929 146.384C522.367 146.629 522.863 146.752 523.417 146.752C523.876 146.752 524.303 146.656 524.697 146.464C525.103 146.261 525.444 145.952 525.721 145.536L526.889 146.272C526.559 146.859 526.089 147.312 525.481 147.632C524.884 147.941 524.201 148.096 523.433 148.096ZM527.38 148L531.028 143.264L531.012 144.048L527.54 139.52H529.252L531.908 143.008H531.252L533.908 139.52H535.588L532.068 144.08L532.084 143.264L535.764 148H534.02L531.22 144.288L531.844 144.384L529.092 148H527.38ZM536.832 150.368L537.632 147.136L537.84 148.064C537.531 148.064 537.27 147.968 537.056 147.776C536.854 147.584 536.752 147.323 536.752 146.992C536.752 146.672 536.854 146.411 537.056 146.208C537.27 146.005 537.526 145.904 537.824 145.904C538.134 145.904 538.384 146.011 538.576 146.224C538.768 146.427 538.864 146.683 538.864 146.992C538.864 147.099 538.854 147.205 538.832 147.312C538.822 147.408 538.795 147.525 538.752 147.664C538.72 147.792 538.667 147.952 538.592 148.144L537.84 150.368H536.832ZM541.433 148.096C541.135 148.096 540.879 147.995 540.665 147.792C540.452 147.579 540.345 147.312 540.345 146.992C540.345 146.672 540.452 146.411 540.665 146.208C540.879 146.005 541.135 145.904 541.433 145.904C541.721 145.904 541.967 146.005 542.169 146.208C542.383 146.411 542.489 146.672 542.489 146.992C542.489 147.312 542.383 147.579 542.169 147.792C541.967 147.995 541.721 148.096 541.433 148.096ZM544.69 148V139.52H546.162V141.824L546.018 141.248C546.253 140.661 546.648 140.213 547.202 139.904C547.757 139.595 548.44 139.44 549.25 139.44V140.928C549.186 140.917 549.122 140.912 549.058 140.912C549.005 140.912 548.952 140.912 548.898 140.912C548.077 140.912 547.426 141.157 546.946 141.648C546.466 142.139 546.226 142.848 546.226 143.776V148H544.69ZM554.399 148.096C553.546 148.096 552.885 147.867 552.415 147.408C551.946 146.949 551.711 146.293 551.711 145.44V137.664H553.247V145.376C553.247 145.835 553.359 146.187 553.583 146.432C553.818 146.677 554.149 146.8 554.575 146.8C555.055 146.8 555.455 146.667 555.775 146.4L556.255 147.504C556.021 147.707 555.738 147.856 555.407 147.952C555.087 148.048 554.751 148.096 554.399 148.096ZM550.271 140.784V139.52H555.679V140.784H550.271ZM558.336 148V138.768C558.336 137.936 558.576 137.275 559.056 136.784C559.547 136.283 560.24 136.032 561.136 136.032C561.467 136.032 561.782 136.075 562.08 136.16C562.39 136.235 562.651 136.357 562.864 136.528L562.4 137.696C562.24 137.568 562.059 137.472 561.856 137.408C561.654 137.333 561.44 137.296 561.216 137.296C560.768 137.296 560.427 137.424 560.192 137.68C559.958 137.925 559.84 138.293 559.84 138.784V139.92L559.872 140.624V148H558.336ZM556.896 140.784V139.52H562.304V140.784H556.896ZM571.682 148.096C570.828 148.096 570.071 147.909 569.41 147.536C568.748 147.163 568.226 146.651 567.842 146C567.458 145.339 567.266 144.592 567.266 143.76C567.266 142.917 567.458 142.171 567.842 141.52C568.226 140.869 568.748 140.363 569.41 140C570.071 139.627 570.828 139.44 571.682 139.44C572.524 139.44 573.276 139.627 573.938 140C574.61 140.363 575.132 140.869 575.506 141.52C575.89 142.16 576.082 142.907 576.082 143.76C576.082 144.603 575.89 145.349 575.506 146C575.132 146.651 574.61 147.163 573.938 147.536C573.276 147.909 572.524 148.096 571.682 148.096ZM571.682 146.752C572.226 146.752 572.711 146.629 573.138 146.384C573.575 146.139 573.916 145.792 574.162 145.344C574.407 144.885 574.53 144.357 574.53 143.76C574.53 143.152 574.407 142.629 574.162 142.192C573.916 141.744 573.575 141.397 573.138 141.152C572.711 140.907 572.226 140.784 571.682 140.784C571.138 140.784 570.652 140.907 570.226 141.152C569.799 141.397 569.458 141.744 569.202 142.192C568.946 142.629 568.818 143.152 568.818 143.76C568.818 144.357 568.946 144.885 569.202 145.344C569.458 145.792 569.799 146.139 570.226 146.384C570.652 146.629 571.138 146.752 571.682 146.752ZM578.206 148V139.52H579.678V141.824L579.534 141.248C579.769 140.661 580.163 140.213 580.718 139.904C581.273 139.595 581.955 139.44 582.766 139.44V140.928C582.702 140.917 582.638 140.912 582.574 140.912C582.521 140.912 582.467 140.912 582.414 140.912C581.593 140.912 580.942 141.157 580.462 141.648C579.982 142.139 579.742 142.848 579.742 143.776V148H578.206ZM589.433 148.096C589.135 148.096 588.879 147.995 588.665 147.792C588.452 147.579 588.345 147.312 588.345 146.992C588.345 146.672 588.452 146.411 588.665 146.208C588.879 146.005 589.135 145.904 589.433 145.904C589.721 145.904 589.967 146.005 590.169 146.208C590.383 146.411 590.489 146.672 590.489 146.992C590.489 147.312 590.383 147.579 590.169 147.792C589.967 147.995 589.721 148.096 589.433 148.096ZM595.493 148.096C594.64 148.096 593.978 147.867 593.509 147.408C593.04 146.949 592.805 146.293 592.805 145.44V137.664H594.341V145.376C594.341 145.835 594.453 146.187 594.677 146.432C594.912 146.677 595.242 146.8 595.669 146.8C596.149 146.8 596.549 146.667 596.869 146.4L597.349 147.504C597.114 147.707 596.832 147.856 596.501 147.952C596.181 148.048 595.845 148.096 595.493 148.096ZM591.365 140.784V139.52H596.773V140.784H591.365ZM597.974 148L601.622 143.264L601.606 144.048L598.134 139.52H599.846L602.502 143.008H601.846L604.502 139.52H606.182L602.662 144.08L602.678 143.264L606.358 148H604.614L601.814 144.288L602.438 144.384L599.686 148H597.974ZM610.946 148.096C610.093 148.096 609.431 147.867 608.962 147.408C608.493 146.949 608.258 146.293 608.258 145.44V137.664H609.794V145.376C609.794 145.835 609.906 146.187 610.13 146.432C610.365 146.677 610.695 146.8 611.122 146.8C611.602 146.8 612.002 146.667 612.322 146.4L612.802 147.504C612.567 147.707 612.285 147.856 611.954 147.952C611.634 148.048 611.298 148.096 610.946 148.096ZM606.818 140.784V139.52H612.226V140.784H606.818ZM619.18 148V138.768C619.18 137.936 619.42 137.275 619.9 136.784C620.391 136.283 621.084 136.032 621.98 136.032C622.311 136.032 622.625 136.075 622.924 136.16C623.233 136.235 623.495 136.357 623.708 136.528L623.244 137.696C623.084 137.568 622.903 137.472 622.7 137.408C622.497 137.333 622.284 137.296 622.06 137.296C621.612 137.296 621.271 137.424 621.036 137.68C620.801 137.925 620.684 138.293 620.684 138.784V139.92L620.716 140.624V148H619.18ZM617.74 140.784V139.52H623.148V140.784H617.74ZM624.604 148V139.52H626.14V148H624.604ZM625.372 137.888C625.073 137.888 624.823 137.792 624.62 137.6C624.428 137.408 624.332 137.173 624.332 136.896C624.332 136.608 624.428 136.368 624.62 136.176C624.823 135.984 625.073 135.888 625.372 135.888C625.671 135.888 625.916 135.984 626.108 136.176C626.311 136.357 626.412 136.587 626.412 136.864C626.412 137.152 626.316 137.397 626.124 137.6C625.932 137.792 625.681 137.888 625.372 137.888ZM629.065 148V136.128H630.601V148H629.065ZM637.31 148.096C636.403 148.096 635.603 147.909 634.91 147.536C634.227 147.163 633.694 146.651 633.31 146C632.937 145.349 632.75 144.603 632.75 143.76C632.75 142.917 632.931 142.171 633.294 141.52C633.667 140.869 634.174 140.363 634.814 140C635.465 139.627 636.195 139.44 637.006 139.44C637.827 139.44 638.553 139.621 639.182 139.984C639.811 140.347 640.302 140.859 640.654 141.52C641.017 142.171 641.198 142.933 641.198 143.808C641.198 143.872 641.193 143.947 641.182 144.032C641.182 144.117 641.177 144.197 641.166 144.272H633.95V143.168H640.366L639.742 143.552C639.753 143.008 639.641 142.523 639.406 142.096C639.171 141.669 638.846 141.339 638.43 141.104C638.025 140.859 637.55 140.736 637.006 140.736C636.473 140.736 635.998 140.859 635.582 141.104C635.166 141.339 634.841 141.675 634.606 142.112C634.371 142.539 634.254 143.029 634.254 143.584V143.84C634.254 144.405 634.382 144.912 634.638 145.36C634.905 145.797 635.273 146.139 635.742 146.384C636.211 146.629 636.75 146.752 637.358 146.752C637.859 146.752 638.313 146.667 638.718 146.496C639.134 146.325 639.497 146.069 639.806 145.728L640.654 146.72C640.27 147.168 639.79 147.509 639.214 147.744C638.649 147.979 638.014 148.096 637.31 148.096Z" fill="#4F4F4F"/>
</svg>